<svg width="1440" height="1892" viewBox="0 0 1440 1892" fill="none" xmlns="http://www.w3.org/2000/svg">
<g opacity="0.8">
<path d="M77.2662 23.236C98.1919 30.712 108.911 53.2369 101.208 73.5467C93.5056 93.8564 71.7587 100.408 50.8331 92.9316C29.9074 85.4555 14.1021 75.3544 21.8049 55.0446C29.5077 34.7348 56.3406 15.7599 77.2662 23.236Z" fill="#548574"/>
<path fill-rule="evenodd" clip-rule="evenodd" d="M91.561 105.753C91.6309 107.687 91.6884 109.607 91.8094 111.537C91.9129 113.172 93.2421 114.328 94.7729 114.12C96.3037 113.911 97.4606 112.416 97.3572 110.781C97.2391 108.907 97.1846 107.043 97.1151 105.164C97.055 103.522 95.7615 102.324 94.2271 102.486C92.6953 102.649 91.5009 104.112 91.561 105.753Z" fill="#548574"/>
<path fill-rule="evenodd" clip-rule="evenodd" d="M104.293 97.2519C108.087 101.3 112.081 105.129 115.957 109.083C117.005 110.153 118.719 110.062 119.782 108.883C120.842 107.702 120.853 105.879 119.805 104.809C115.956 100.881 111.988 97.0824 108.222 93.0604C107.197 91.9674 105.483 92.018 104.401 93.1748C103.315 94.3307 103.268 96.1589 104.293 97.2519Z" fill="#548574"/>
<path fill-rule="evenodd" clip-rule="evenodd" d="M114.657 76.2997C119.151 77.1171 123.683 77.8022 128.166 78.6759C129.604 78.9536 131.044 77.9338 131.38 76.3969C131.714 74.8591 130.818 73.3844 129.378 73.1031C124.876 72.2311 120.326 71.5396 115.81 70.7176C114.367 70.456 112.937 71.4919 112.62 73.0325C112.299 74.5722 113.213 76.0381 114.657 76.2997Z" fill="#548574"/>
</g>
<path d="M1731.87 508.625C1606.76 706.163 1067.76 814.532 527.973 750.674C-11.8132 686.816 -347.976 474.912 -222.869 277.375C-97.7612 79.8368 441.241 -28.5319 981.027 35.3262C1520.81 99.1844 1856.98 311.088 1731.87 508.625Z" fill="url(#paint0_radial_7_402)" fill-opacity="0.51"/>
<path d="M1731.87 508.625C1606.76 706.163 1067.76 814.532 527.973 750.674C-11.8132 686.816 -347.976 474.912 -222.869 277.375C-97.7612 79.8368 441.241 -28.5319 981.027 35.3262C1520.81 99.1844 1856.98 311.088 1731.87 508.625Z" fill="url(#paint1_radial_7_402)" fill-opacity="0.51"/>
<path fill-rule="evenodd" clip-rule="evenodd" d="M1229.54 553.057C1229.15 551.165 1228.78 549.285 1228.34 547.404C1227.96 545.812 1226.46 544.882 1224.98 545.327C1223.51 545.772 1222.61 547.426 1222.99 549.018C1223.41 550.844 1223.78 552.67 1224.16 554.509C1224.49 556.114 1225.96 557.091 1227.45 556.691C1228.94 556.29 1229.87 554.663 1229.54 553.057Z" fill="#548574"/>
<path fill-rule="evenodd" clip-rule="evenodd" d="M1218.41 563.459C1213.99 560.073 1209.41 556.932 1204.92 553.651C1203.71 552.762 1202.03 553.12 1201.17 554.446C1200.32 555.773 1200.62 557.567 1201.83 558.455C1206.29 561.716 1210.84 564.83 1215.23 568.195C1216.42 569.11 1218.11 568.792 1218.99 567.485C1219.87 566.179 1219.61 564.373 1218.41 563.459Z" fill="#548574"/>
<path fill-rule="evenodd" clip-rule="evenodd" d="M1211.71 585.785C1207.13 585.685 1202.54 585.722 1197.97 585.565C1196.5 585.517 1195.25 586.746 1195.17 588.31C1195.1 589.874 1196.23 591.184 1197.7 591.235C1202.29 591.387 1206.9 591.354 1211.5 591.455C1212.97 591.486 1214.21 590.243 1214.27 588.678C1214.33 587.114 1213.18 585.816 1211.71 585.785Z" fill="#548574"/>
<path d="M83 892C42.6 890.4 11.5 942.333 1.00003 968.5L1.00006 618C142.5 631 149 758 153.5 813C158 868 133.5 894 83 892Z" fill="#2D54DE"/>
<path d="M1322.2 110.125C1326.2 97.3252 1328.87 78.4586 1329.7 70.6252C1332.03 62.2919 1344.4 43.1252 1375.2 33.1252C1413.7 20.6252 1428.7 39.1252 1436.2 54.1252C1443.7 69.1252 1433.7 81.1252 1423.7 89.6252C1415.7 96.4252 1411.03 107.125 1409.7 111.625C1404.2 147.625 1387.2 179.125 1352.7 169.625C1318.2 160.125 1317.2 126.125 1322.2 110.125Z" fill="#74FFC8"/>
<path d="M1416.9 22C1414.38 22 1413.12 24.2106 1414.69 29C1416.58 27.6492 1419.66 24.3579 1416.9 22Z" fill="#2D54DE"/>
<path d="M1401.99 33.5671C1398.88 33.0743 1396.88 35.6349 1397.86 42.0247C1400.46 40.679 1404.93 37.1034 1401.99 33.5671Z" fill="#2D54DE"/>
<path d="M1413.99 0.567143C1410.88 0.074283 1408.88 2.63486 1409.86 9.02474C1412.46 7.679 1416.93 4.10344 1413.99 0.567143Z" fill="#2D54DE"/>
<path d="M1397.99 15.5671C1394.88 15.0743 1392.88 17.6349 1393.86 24.0247C1396.46 22.679 1400.93 19.1034 1397.99 15.5671Z" fill="#2D54DE"/>
<path d="M1434.99 39.5671C1431.88 39.0743 1429.88 41.6349 1430.86 48.0247C1433.46 46.679 1437.93 43.1034 1434.99 39.5671Z" fill="#2D54DE"/>
<path d="M1413.08 55.0693C1415.53 55.6333 1417.25 53.761 1416.79 48.7409C1414.65 49.6344 1410.91 52.1509 1413.08 55.0693Z" fill="#2D54DE"/>
<path d="M1397.08 67.0693C1399.53 67.6333 1401.25 65.761 1400.79 60.7409C1398.65 61.6344 1394.91 64.1509 1397.08 67.0693Z" fill="#2D54DE"/>
<path d="M1424.08 68.0693C1426.53 68.6333 1428.25 66.761 1427.79 61.7409C1425.65 62.6344 1421.91 65.1509 1424.08 68.0693Z" fill="#2D54DE"/>
<path d="M1398.08 92.0693C1400.53 92.6333 1402.25 90.761 1401.79 85.7409C1399.65 86.6344 1395.91 89.1509 1398.08 92.0693Z" fill="#2D54DE"/>
<path d="M1422.14 86.5304C1419.65 86.1577 1418.08 88.1576 1418.93 93.1272C1420.99 92.0706 1424.53 89.2722 1422.14 86.5304Z" fill="#2D54DE"/>
<path d="M1382.9 76.4288C1380.41 76.0562 1378.84 78.056 1379.69 83.0256C1381.75 81.9691 1385.29 79.1706 1382.9 76.4288Z" fill="#2D54DE"/>
<path d="M1382.9 52.4288C1380.41 52.0562 1378.84 54.056 1379.69 59.0256C1381.75 57.9691 1385.29 55.1706 1382.9 52.4288Z" fill="#2D54DE"/>
<path d="M1379.9 29.4288C1377.41 29.0562 1375.84 31.056 1376.69 36.0256C1378.75 34.9691 1382.29 32.1706 1379.9 29.4288Z" fill="#2D54DE"/>
<path d="M1434.9 10C1432.38 10 1431.12 12.2106 1432.69 17C1434.58 15.6492 1437.66 12.3579 1434.9 10Z" fill="#2D54DE"/>
<path d="M1261.65 633.812C1239.75 629.666 1225.4 608.752 1229.59 587.099C1233.79 565.446 1254.15 555.361 1276.05 559.507C1297.95 563.654 1315.23 571.263 1311.04 592.915C1306.85 614.568 1283.55 637.958 1261.65 633.812Z" fill="#548574"/>
<g opacity="0.8">
<path d="M87.2662 933.236C108.192 940.712 118.911 963.237 111.208 983.547C103.506 1003.86 81.7587 1010.41 60.8331 1002.93C39.9074 995.455 24.1021 985.354 31.8049 965.045C39.5077 944.735 66.3406 925.76 87.2662 933.236Z" fill="#548574"/>
<path fill-rule="evenodd" clip-rule="evenodd" d="M101.561 1015.75C101.631 1017.69 101.688 1019.61 101.809 1021.54C101.913 1023.17 103.242 1024.33 104.773 1024.12C106.304 1023.91 107.461 1022.42 107.357 1020.78C107.239 1018.91 107.185 1017.04 107.115 1015.16C107.055 1013.52 105.761 1012.32 104.227 1012.49C102.695 1012.65 101.501 1014.11 101.561 1015.75Z" fill="#548574"/>
<path fill-rule="evenodd" clip-rule="evenodd" d="M114.293 1007.25C118.087 1011.3 122.081 1015.13 125.957 1019.08C127.005 1020.15 128.719 1020.06 129.782 1018.88C130.842 1017.7 130.853 1015.88 129.805 1014.81C125.956 1010.88 121.988 1007.08 118.222 1003.06C117.197 1001.97 115.483 1002.02 114.401 1003.17C113.315 1004.33 113.268 1006.16 114.293 1007.25Z" fill="#548574"/>
<path fill-rule="evenodd" clip-rule="evenodd" d="M124.657 986.3C129.151 987.117 133.683 987.802 138.166 988.676C139.604 988.954 141.044 987.934 141.38 986.397C141.714 984.859 140.818 983.384 139.378 983.103C134.876 982.231 130.326 981.54 125.81 980.718C124.367 980.456 122.937 981.492 122.62 983.033C122.299 984.572 123.213 986.038 124.657 986.3Z" fill="#548574"/>
</g>
<path d="M1741.87 1418.63C1616.76 1616.16 1077.76 1724.53 537.973 1660.67C-1.81317 1596.82 -337.976 1384.91 -212.869 1187.37C-87.7612 989.837 451.241 881.468 991.027 945.326C1530.81 1009.18 1866.98 1221.09 1741.87 1418.63Z" fill="url(#paint2_radial_7_402)" fill-opacity="0.51"/>
<path d="M1741.87 1418.63C1616.76 1616.16 1077.76 1724.53 537.973 1660.67C-1.81317 1596.82 -337.976 1384.91 -212.869 1187.37C-87.7612 989.837 451.241 881.468 991.027 945.326C1530.81 1009.18 1866.98 1221.09 1741.87 1418.63Z" fill="url(#paint3_radial_7_402)" fill-opacity="0.51"/>
<path fill-rule="evenodd" clip-rule="evenodd" d="M1239.54 1463.06C1239.15 1461.17 1238.78 1459.28 1238.34 1457.4C1237.96 1455.81 1236.46 1454.88 1234.98 1455.33C1233.51 1455.77 1232.61 1457.43 1232.99 1459.02C1233.41 1460.84 1233.78 1462.67 1234.16 1464.51C1234.49 1466.11 1235.96 1467.09 1237.45 1466.69C1238.94 1466.29 1239.87 1464.66 1239.54 1463.06Z" fill="#548574"/>
<path fill-rule="evenodd" clip-rule="evenodd" d="M1228.41 1473.46C1223.99 1470.07 1219.41 1466.93 1214.92 1463.65C1213.71 1462.76 1212.03 1463.12 1211.18 1464.45C1210.32 1465.77 1210.62 1467.57 1211.83 1468.46C1216.29 1471.72 1220.84 1474.83 1225.23 1478.2C1226.42 1479.11 1228.11 1478.79 1228.99 1477.48C1229.87 1476.18 1229.61 1474.37 1228.41 1473.46Z" fill="#548574"/>
<path fill-rule="evenodd" clip-rule="evenodd" d="M1221.71 1495.78C1217.13 1495.69 1212.54 1495.72 1207.97 1495.56C1206.5 1495.52 1205.25 1496.75 1205.17 1498.31C1205.1 1499.87 1206.23 1501.18 1207.7 1501.24C1212.29 1501.39 1216.9 1501.35 1221.5 1501.45C1222.97 1501.49 1224.21 1500.24 1224.27 1498.68C1224.33 1497.11 1223.18 1495.82 1221.71 1495.78Z" fill="#548574"/>
<path d="M1378.42 1614.77C1418.85 1614.89 1448.03 1561.85 1457.57 1535.32L1470.38 1885.59C1328.5 1877.77 1317.36 1751.09 1310.85 1696.29C1304.35 1641.49 1327.88 1614.61 1378.42 1614.77Z" fill="#2D54DE"/>
<path d="M1332.2 1020.13C1336.2 1007.33 1338.87 988.459 1339.7 980.625C1342.03 972.292 1354.4 953.125 1385.2 943.125C1423.7 930.625 1438.7 949.125 1446.2 964.125C1453.7 979.125 1443.7 991.125 1433.7 999.625C1425.7 1006.43 1421.03 1017.13 1419.7 1021.63C1414.2 1057.63 1397.2 1089.13 1362.7 1079.63C1328.2 1070.13 1327.2 1036.13 1332.2 1020.13Z" fill="#74FFC8"/>
<path d="M1426.9 932C1424.38 932 1423.12 934.211 1424.69 939C1426.58 937.649 1429.66 934.358 1426.9 932Z" fill="#2D54DE"/>
<path d="M1411.99 943.567C1408.88 943.074 1406.88 945.635 1407.86 952.025C1410.46 950.679 1414.93 947.103 1411.99 943.567Z" fill="#2D54DE"/>
<path d="M1423.99 910.567C1420.88 910.074 1418.88 912.635 1419.86 919.025C1422.46 917.679 1426.93 914.103 1423.99 910.567Z" fill="#2D54DE"/>
<path d="M1407.99 925.567C1404.88 925.074 1402.88 927.635 1403.86 934.025C1406.46 932.679 1410.93 929.103 1407.99 925.567Z" fill="#2D54DE"/>
<path d="M1444.99 949.567C1441.88 949.074 1439.88 951.635 1440.86 958.025C1443.46 956.679 1447.93 953.103 1444.99 949.567Z" fill="#2D54DE"/>
<path d="M1423.08 965.069C1425.53 965.633 1427.25 963.761 1426.79 958.741C1424.65 959.634 1420.91 962.151 1423.08 965.069Z" fill="#2D54DE"/>
<path d="M1407.08 977.069C1409.53 977.633 1411.25 975.761 1410.79 970.741C1408.65 971.634 1404.91 974.151 1407.08 977.069Z" fill="#2D54DE"/>
<path d="M1434.08 978.069C1436.53 978.633 1438.25 976.761 1437.79 971.741C1435.65 972.634 1431.91 975.151 1434.08 978.069Z" fill="#2D54DE"/>
<path d="M1408.08 1002.07C1410.53 1002.63 1412.25 1000.76 1411.79 995.741C1409.65 996.634 1405.91 999.151 1408.08 1002.07Z" fill="#2D54DE"/>
<path d="M1432.14 996.53C1429.65 996.158 1428.08 998.158 1428.93 1003.13C1430.99 1002.07 1434.53 999.272 1432.14 996.53Z" fill="#2D54DE"/>
<path d="M1392.9 986.429C1390.41 986.056 1388.84 988.056 1389.69 993.026C1391.75 991.969 1395.29 989.171 1392.9 986.429Z" fill="#2D54DE"/>
<path d="M1392.9 962.429C1390.41 962.056 1388.84 964.056 1389.69 969.026C1391.75 967.969 1395.29 965.171 1392.9 962.429Z" fill="#2D54DE"/>
<path d="M1389.9 939.429C1387.41 939.056 1385.84 941.056 1386.69 946.026C1388.75 944.969 1392.29 942.171 1389.9 939.429Z" fill="#2D54DE"/>
<path d="M1271.65 1543.81C1249.75 1539.67 1235.4 1518.75 1239.59 1497.1C1243.79 1475.45 1264.15 1465.36 1286.05 1469.51C1307.95 1473.65 1325.23 1481.26 1321.04 1502.92C1316.85 1524.57 1293.55 1547.96 1271.65 1543.81Z" fill="#548574"/>
<defs>
<radialGradient id="paint0_radial_7_402" cx="0" cy="0" r="1" gradientUnits="userSpaceOnUse" gradientTransform="translate(721.438 405.997) rotate(124.478) scale(778.839 1580.66)">
<stop offset="0.0660475" stop-color="#74FFC8"/>
<stop offset="0.312179" stop-color="#CCEAFC" stop-opacity="0.35"/>
<stop offset="0.484803" stop-color="#D9D9D9" stop-opacity="0"/>
</radialGradient>
<radialGradient id="paint1_radial_7_402" cx="0" cy="0" r="1" gradientUnits="userSpaceOnUse" gradientTransform="translate(721.438 405.997) rotate(124.478) scale(778.839 1580.66)">
<stop offset="0.0660475" stop-color="#74FFC8"/>
<stop offset="0.312179" stop-color="#CCEAFC" stop-opacity="0.35"/>
<stop offset="0.484803" stop-color="#D9D9D9" stop-opacity="0"/>
</radialGradient>
<radialGradient id="paint2_radial_7_402" cx="0" cy="0" r="1" gradientUnits="userSpaceOnUse" gradientTransform="translate(731.438 1316) rotate(124.478) scale(778.839 1580.66)">
<stop offset="0.0660475" stop-color="#74FFC8"/>
<stop offset="0.312179" stop-color="#CCEAFC" stop-opacity="0.35"/>
<stop offset="0.484803" stop-color="#D9D9D9" stop-opacity="0"/>
</radialGradient>
<radialGradient id="paint3_radial_7_402" cx="0" cy="0" r="1" gradientUnits="userSpaceOnUse" gradientTransform="translate(731.438 1316) rotate(124.478) scale(778.839 1580.66)">
<stop offset="0.0660475" stop-color="#74FFC8"/>
<stop offset="0.312179" stop-color="#CCEAFC" stop-opacity="0.35"/>
<stop offset="0.484803" stop-color="#D9D9D9" stop-opacity="0"/>
</radialGradient>
</defs>
</svg>

