<svg width="25" height="25" viewBox="0 0 25 25" fill="none" xmlns="http://www.w3.org/2000/svg">
    <path d="M5.88855 8.94682L6.40855 8.41682C6.98855 7.83682 7.94855 7.83682 8.54855 8.45682L8.56855 8.48682C9.05855 8.98682 9.70855 9.22682 10.4186 9.29682C11.3885 9.38682 12.3286 9.90682 12.9486 10.8468C13.6286 11.9268 13.6186 13.3668 12.9086 14.4368C12.6408 14.8603 12.2806 15.2177 11.8551 15.4823C11.4297 15.7469 10.9498 15.9118 10.4516 15.9647C9.95333 16.0176 9.44957 15.9572 8.97801 15.7878C8.50645 15.6185 8.0793 15.3446 7.72855 14.9868C7.16855 14.4368 6.84855 13.7268 6.76855 12.9868C6.68855 12.2568 6.39855 11.5668 5.88855 11.0568C5.30855 10.4868 5.30855 9.52682 5.88855 8.94682ZM10.0886 16.9868C8.91855 16.9868 7.82855 16.5368 7.01855 15.7068C6.31855 14.9868 5.87855 14.0868 5.76855 13.1068C5.73855 12.8068 5.64855 12.4168 5.40855 12.0568C4.80855 12.8868 4.44855 13.8868 4.44855 14.9868C4.44855 16.6268 5.24855 18.0768 6.47855 18.9868H19.4485V17.9868C19.4485 14.3868 17.0585 11.3368 13.7886 10.3368C14.6786 11.7368 14.6586 13.6068 13.7486 14.9868C12.9486 16.2368 11.5686 16.9868 10.0886 16.9868ZM15.2285 8.54682H16.4985C17.3685 8.54682 18.1286 9.15682 18.1286 10.2468V10.9868H19.3785V9.98682C19.3785 8.48682 18.0485 7.34682 16.4985 7.34682H15.2285C14.3986 7.34682 13.6885 6.52682 13.6885 5.68682C13.6885 4.84682 14.3986 4.22682 15.2285 4.22682V2.98682C13.6885 2.98682 12.4486 4.22682 12.4486 5.76682C12.4486 7.30682 13.6885 8.54682 15.2285 8.54682ZM4.94855 8.53682C5.00855 8.43682 5.08855 8.33682 5.17855 8.23682L5.69855 7.71682C5.78855 7.62682 5.88855 7.55682 5.98855 7.48682L4.57855 6.05682C4.71855 5.78682 4.66855 5.43682 4.44855 5.20682C4.30535 5.06742 4.11339 4.98942 3.91355 4.98942C3.7137 4.98942 3.52175 5.06742 3.37855 5.20682C3.23855 5.34682 3.16855 5.51682 3.15855 5.69682C2.97855 5.70682 2.80855 5.77682 2.66855 5.91682C2.37855 6.20682 2.37855 6.68682 2.66855 6.98682C2.89855 7.20682 3.23855 7.25682 3.51855 7.11682L4.94855 8.53682ZM18.8385 5.37682C19.3485 4.86682 19.6685 4.17682 19.6685 3.40682H18.4185C18.4185 4.23682 17.7186 4.93682 16.8886 4.93682V6.17682C18.7486 6.17682 20.2085 7.69682 20.2085 9.55682V11.9868H21.4485V9.55682C21.4535 8.68452 21.211 7.82872 20.7489 7.0888C20.2869 6.34889 19.6245 5.75524 18.8385 5.37682ZM5.44855 21.9868H19.4485C20.5585 21.9868 21.4485 21.0968 21.4485 19.9868H3.44855C3.44855 20.5173 3.65926 21.026 4.03434 21.401C4.40941 21.7761 4.91812 21.9868 5.44855 21.9868Z" fill="#FF385C"/>
</svg>
