<svg width="38" height="37" viewBox="0 0 38 37" fill="none" xmlns="http://www.w3.org/2000/svg">
<path opacity="0.1" fill-rule="evenodd" clip-rule="evenodd" d="M19 36C28.665 36 36.5 28.165 36.5 18.5C36.5 8.83502 28.665 1 19 1C9.33502 1 1.5 8.83502 1.5 18.5C1.5 28.165 9.33502 36 19 36Z" stroke="#2D54DE" stroke-width="1.5"/>
<path d="M24.3333 12.3334H12.6667C12.0036 12.3334 11.3677 12.5968 10.8989 13.0656C10.4301 13.5344 10.1667 14.1703 10.1667 14.8334V23.1667C10.1667 23.8297 10.4301 24.4656 10.8989 24.9345C11.3677 25.4033 12.0036 25.6667 12.6667 25.6667H24.3333C24.9964 25.6667 25.6323 25.4033 26.1011 24.9345C26.5699 24.4656 26.8333 23.8297 26.8333 23.1667V14.8334C26.8333 14.1703 26.5699 13.5344 26.1011 13.0656C25.6323 12.5968 24.9964 12.3334 24.3333 12.3334ZM23.9917 14L19.0917 18.9C19.0142 18.9781 18.922 19.0401 18.8205 19.0824C18.7189 19.1248 18.61 19.1465 18.5 19.1465C18.39 19.1465 18.2811 19.1248 18.1795 19.0824C18.078 19.0401 17.9858 18.9781 17.9083 18.9L13.0083 14H23.9917ZM25.1667 23.1667C25.1667 23.3877 25.0789 23.5997 24.9226 23.756C24.7663 23.9122 24.5543 24 24.3333 24H12.6667C12.4457 24 12.2337 23.9122 12.0774 23.756C11.9211 23.5997 11.8333 23.3877 11.8333 23.1667V15.175L16.7333 20.075C17.2021 20.5432 17.8375 20.8062 18.5 20.8062C19.1625 20.8062 19.7979 20.5432 20.2667 20.075L25.1667 15.175V23.1667Z" fill="#2D54DE"/>
</svg>
