<svg width="123" height="109" viewBox="0 0 123 109" fill="none" xmlns="http://www.w3.org/2000/svg">
    <path d="M64.9868 43.3185L65.4133 46.4878C66.4027 53.6627 66.1105 59.8766 64.5365 65.1297C61.7915 74.2276 57.0093 80.0788 50.19 82.6835C43.3935 85.2794 37.5476 83.4876 32.6523 77.308C31.3939 75.724 30.3161 73.7574 29.4188 71.4083C28.3212 68.5346 27.5018 65.1235 26.9606 61.1748C25.9678 53.9228 26.2601 47.7088 27.8374 42.5329C30.628 33.4176 35.4102 27.5664 42.1839 24.9791C49.0032 22.3745 54.8491 24.1663 59.7216 30.3546L54.5829 35.3751L54.2408 35.5057C51.0364 31.0847 47.3131 29.6843 43.071 31.3045C38.8745 32.9074 35.8925 36.8689 34.125 43.189C33.0062 47.1706 32.8988 52.2948 33.8027 58.5615C34.3667 62.5014 35.1322 65.7372 36.0992 68.2687C36.6915 69.8196 37.3695 71.1157 38.1331 72.1569C41.3603 76.5692 45.095 77.9653 49.3371 76.345C53.5108 74.7508 56.4814 70.7937 58.2489 64.4736C59.1521 61.2277 59.3903 57.1643 58.9634 52.2834L46.066 57.2096L46.0038 56.8414L47.7447 49.9042L64.9868 43.3185Z" fill="black"/>
    <path d="M40.1939 42.9124L68.3219 32.8456C75.2403 30.3836 81.3836 29.4042 86.7517 29.9076C96.2443 30.7834 102.947 34.2738 106.859 40.3786C110.798 46.5246 110.234 52.6129 105.168 58.6436L99.2062 54.635L99.0086 54.3266C102.684 50.289 103.297 46.3586 100.847 42.5353C98.3968 38.7121 93.9111 36.5993 87.3898 36.1971C84.0411 35.9943 80.021 36.5989 75.3293 38.0108L86.553 55.5238L86.2051 55.6597L79.0588 55.368L69.2776 40.1059L47.3357 47.948L40.3915 43.2207L40.1939 42.9124Z" fill="#FF385C"/>
</svg>
