<svg width="38" height="37" viewBox="0 0 38 37" fill="none" xmlns="http://www.w3.org/2000/svg">
<path opacity="0.1" fill-rule="evenodd" clip-rule="evenodd" d="M19 36C28.665 36 36.5 28.165 36.5 18.5C36.5 8.83502 28.665 1 19 1C9.33502 1 1.5 8.83502 1.5 18.5C1.5 28.165 9.33502 36 19 36Z" stroke="#2D54DE" stroke-width="1.5"/>
<g clip-path="url(#clip0_71_2724)">
<path d="M26.4167 22.395V24.77C26.4176 24.9905 26.3724 25.2087 26.2841 25.4107C26.1957 25.6127 26.0662 25.7941 25.9037 25.9431C25.7413 26.0922 25.5495 26.2057 25.3406 26.2763C25.1317 26.3469 24.9104 26.3732 24.6908 26.3533C22.2547 26.0886 19.9147 25.2562 17.8587 23.9229C15.9459 22.7074 14.3242 21.0857 13.1087 19.1729C11.7708 17.1076 10.9382 14.7562 10.6783 12.3092C10.6585 12.0902 10.6846 11.8696 10.7547 11.6613C10.8249 11.453 10.9377 11.2615 11.0859 11.0992C11.2341 10.9368 11.4144 10.8071 11.6155 10.7183C11.8166 10.6295 12.0339 10.5835 12.2537 10.5833H14.6287C15.0129 10.5795 15.3854 10.7156 15.6767 10.9661C15.968 11.2167 16.1583 11.5646 16.2121 11.945C16.3123 12.705 16.4982 13.4513 16.7662 14.1696C16.8728 14.4529 16.8958 14.7609 16.8327 15.0569C16.7695 15.353 16.6228 15.6248 16.41 15.84L15.4046 16.8454C16.5316 18.8274 18.1726 20.4684 20.1546 21.5954L21.16 20.59C21.3752 20.3771 21.647 20.2305 21.9431 20.1673C22.2391 20.1042 22.5471 20.1272 22.8304 20.2337C23.5487 20.5018 24.2949 20.6877 25.055 20.7879C25.4396 20.8422 25.7908 21.0359 26.0418 21.3322C26.2929 21.6285 26.4263 22.0067 26.4167 22.395Z" stroke="#2D54DE" stroke-width="2" stroke-linecap="round" stroke-linejoin="round"/>
</g>
<defs>
<clipPath id="clip0_71_2724">
<rect width="19" height="19" fill="white" transform="translate(9 9)"/>
</clipPath>
</defs>
</svg>
