<svg width="37" height="38" viewBox="0 0 37 38" fill="none" xmlns="http://www.w3.org/2000/svg">
    <path opacity="0.1" fill-rule="evenodd" clip-rule="evenodd" d="M18.5 36.5C28.165 36.5 36 28.665 36 19C36 9.33502 28.165 1.5 18.5 1.5C8.83502 1.5 1 9.33502 1 19C1 28.665 8.83502 36.5 18.5 36.5Z" stroke="#2D54DE" stroke-width="1.5"/>
    <path d="M19 18.5C21.21 18.5 23 16.71 23 14.5C23 12.29 21.21 10.5 19 10.5C16.79 10.5 15 12.29 15 14.5C15 16.71 16.79 18.5 19 18.5ZM19 20.5C16.33 20.5 11 21.84 11 24.5V26.5H27V24.5C27 21.84 21.67 20.5 19 20.5Z" fill="#2D54DE"/>
</svg>
