<svg width="50" height="51" viewBox="0 0 50 51" fill="none" xmlns="http://www.w3.org/2000/svg">
    <rect y="0.986816" width="50" height="50" rx="25" fill="#E4E4E4"/>
    <path fill-rule="evenodd" clip-rule="evenodd" d="M11.9583 12.3618C11.9583 11.975 12.112 11.6041 12.3855 11.3306C12.659 11.0571 13.0299 10.9035 13.4167 10.9035H29.4583C29.8451 10.9035 30.216 11.0571 30.4895 11.3306C30.763 11.6041 30.9167 11.975 30.9167 12.3618V19.6535H36.75C37.7076 19.6535 38.6557 19.8421 39.5404 20.2085C40.4251 20.575 41.2289 21.1121 41.906 21.7892C42.5831 22.4662 43.1202 23.2701 43.4866 24.1547C43.8531 25.0394 44.0417 25.9876 44.0417 26.9451V32.7785C44.0418 33.7173 43.7401 34.6312 43.181 35.3854C42.6219 36.1396 41.8352 36.694 40.9369 36.9668C40.6694 37.8491 40.1301 38.6243 39.3958 39.1819C38.6616 39.7394 37.77 40.0508 36.8482 40.0715C35.9265 40.0922 35.0218 39.8212 34.2633 39.2971C33.5048 38.7731 32.9312 38.0229 32.6244 37.1535H23.3771C23.0703 38.0229 22.4967 38.7731 21.7381 39.2971C20.9796 39.8212 20.0749 40.0922 19.1532 40.0715C18.2315 40.0508 17.3399 39.7394 16.6056 39.1819C15.8714 38.6243 15.332 37.8491 15.0646 36.9668C14.166 36.6943 13.3789 36.14 12.8196 35.3858C12.2602 34.6316 11.9583 33.7175 11.9583 32.7785V26.9451H20.7083C21.0951 26.9451 21.466 26.7915 21.7395 26.518C22.013 26.2445 22.1667 25.8736 22.1667 25.4868C22.1667 25.1 22.013 24.7291 21.7395 24.4556C21.466 24.1821 21.0951 24.0285 20.7083 24.0285H11.9583V21.1118H17.7917C18.1784 21.1118 18.5494 20.9582 18.8229 20.6847C19.0964 20.4112 19.25 20.0402 19.25 19.6535C19.25 19.2667 19.0964 18.8958 18.8229 18.6223C18.5494 18.3488 18.1784 18.1951 17.7917 18.1951H11.9583V12.3618ZM30.9167 34.2368H32.6244C32.9127 33.4208 33.4365 32.7086 34.1296 32.1904C34.8228 31.6721 35.654 31.3711 36.5183 31.3253C37.3825 31.2796 38.2409 31.4912 38.9848 31.9334C39.7288 32.3756 40.3249 33.0285 40.6977 33.8095C40.8333 33.6743 40.9409 33.5136 41.0142 33.3366C41.0875 33.1597 41.1252 32.97 41.125 32.7785V26.9451C41.125 25.7848 40.6641 24.672 39.8436 23.8515C39.0231 23.0311 37.9103 22.5701 36.75 22.5701H30.9167V34.2368ZM20.7083 35.6951C20.7083 35.3084 20.5547 34.9374 20.2812 34.6639C20.0077 34.3905 19.6368 34.2368 19.25 34.2368C18.8632 34.2368 18.4923 34.3905 18.2188 34.6639C17.9453 34.9374 17.7917 35.3084 17.7917 35.6951C17.7917 36.0819 17.9453 36.4528 18.2188 36.7263C18.4923 36.9998 18.8632 37.1535 19.25 37.1535C19.6368 37.1535 20.0077 36.9998 20.2812 36.7263C20.5547 36.4528 20.7083 36.0819 20.7083 35.6951ZM35.719 34.6641C35.5831 34.7992 35.4754 34.9599 35.4021 35.1368C35.3288 35.3138 35.2912 35.5036 35.2917 35.6951C35.2916 36.0325 35.4085 36.3595 35.6225 36.6204C35.8365 36.8812 36.1343 37.0598 36.4652 37.1257C36.7961 37.1916 37.1396 37.1407 37.4372 36.9817C37.7348 36.8227 37.968 36.5655 38.0972 36.2538C38.2264 35.9421 38.2435 35.5952 38.1456 35.2724C38.0477 34.9495 37.8409 34.6705 37.5604 34.483C37.2799 34.2955 36.9431 34.2111 36.6073 34.2441C36.2715 34.2771 35.9576 34.4256 35.719 34.6641Z" fill="#FF385C"/>
</svg>
