<svg width="50" height="51" viewBox="0 0 50 51" fill="none" xmlns="http://www.w3.org/2000/svg">
    <rect y="0.986816" width="50" height="50" rx="25" fill="#E4E4E4"/>
    <path d="M30.1562 14.2368H30.1624H30.1562ZM37.7817 12.0493H31.5569L32.1667 9.61161L34.7862 8.71953C35.3434 8.53017 35.6749 7.93818 35.5142 7.37216C35.4734 7.22978 35.404 7.09718 35.3103 6.98241C35.2167 6.86765 35.1007 6.7731 34.9694 6.70451C34.8381 6.63592 34.6942 6.59472 34.5465 6.5834C34.3988 6.57208 34.2504 6.59088 34.1101 6.63867L30.8973 7.73242C30.7242 7.79142 30.5688 7.89284 30.445 8.02743C30.3213 8.16201 30.2333 8.32546 30.1891 8.50283L29.3024 12.0493H20.3433C19.7547 12.0493 19.2495 12.5019 19.2201 13.0904C19.213 13.2383 19.236 13.3861 19.2876 13.5248C19.3393 13.6636 19.4186 13.7904 19.5208 13.8976C19.6229 14.0048 19.7457 14.0901 19.8818 14.1484C20.0179 14.2067 20.1644 14.2368 20.3125 14.2368H20.5005L20.5688 14.8288C20.5849 14.9671 20.6513 15.0946 20.7553 15.1871C20.8593 15.2796 20.9936 15.3307 21.1328 15.3306C23.7988 15.3306 26.1682 16.0757 27.9769 17.4852C28.983 18.2604 29.7986 19.2553 30.3613 20.3939C30.6763 21.0344 30.9088 21.7122 31.0531 22.4112C31.0819 22.5474 31.1625 22.6671 31.278 22.7448C32.2079 23.3758 32.8939 24.306 33.222 25.3808C33.5501 26.4557 33.5004 27.6104 33.0813 28.6531C33.0326 28.7738 33.029 28.908 33.0711 29.0311C33.3133 29.7251 33.4371 30.4549 33.4375 31.1899C33.4375 32.7171 32.918 34.1725 31.9746 35.2881C31.4398 35.9248 30.767 36.4314 30.0072 36.7694C29.8758 36.8273 29.7724 36.9347 29.7194 37.0682C29.4355 37.8078 29.0346 38.497 28.532 39.1094C28.5111 39.1342 28.4977 39.1645 28.4934 39.1967C28.4891 39.2289 28.494 39.2617 28.5076 39.2911C28.5213 39.3206 28.543 39.3456 28.5703 39.3632C28.5977 39.3807 28.6294 39.3902 28.6619 39.3903H32.0259C32.8495 39.387 33.642 39.0754 34.2474 38.5169C34.8528 37.9585 35.2272 37.1936 35.2969 36.3729L37.6348 14.2368H37.8125C37.9607 14.237 38.1073 14.207 38.2436 14.1488C38.3798 14.0906 38.5028 14.0053 38.6051 13.8981C38.7074 13.7909 38.7868 13.664 38.8386 13.5252C38.8904 13.3863 38.9134 13.2384 38.9062 13.0904C38.8775 12.5019 38.3703 12.0493 37.7817 12.0493Z" fill="#FF385C"/>
    <path d="M12.43 27.3618C12.6457 27.3608 12.8595 27.4026 13.059 27.4847C13.2584 27.5668 13.4396 27.6877 13.5921 27.8403L14.6523 28.9006C14.6777 28.926 14.7079 28.9462 14.7411 28.9599C14.7743 28.9737 14.8099 28.9808 14.8458 28.9808C14.8817 28.9808 14.9173 28.9737 14.9505 28.9599C14.9837 28.9462 15.0139 28.926 15.0393 28.9006L16.0975 27.8403C16.2499 27.6877 16.4311 27.5668 16.6306 27.4847C16.8301 27.4026 17.0439 27.3608 17.2596 27.3618H30.6977C30.7695 27.3625 30.8407 27.3491 30.9074 27.3223C30.974 27.2955 31.0347 27.2558 31.086 27.2055C31.1373 27.1552 31.1781 27.0954 31.2063 27.0293C31.2344 26.9632 31.2493 26.8922 31.25 26.8204V26.8149C31.2492 26.1848 31.0312 25.5742 30.6328 25.0861C30.2343 24.598 29.6797 24.2622 29.0625 24.1353C29.0064 22.1057 28.1738 20.4069 26.6351 19.2134C25.2118 18.1032 23.3101 17.5181 21.1328 17.5181H16.2109C11.5475 17.5181 8.38857 20.1684 8.28125 24.1353C7.66404 24.2622 7.10946 24.598 6.71099 25.0861C6.31251 25.5742 6.09452 26.1848 6.09375 26.8149C6.09375 26.96 6.15137 27.0991 6.25393 27.2016C6.35649 27.3042 6.49559 27.3618 6.64063 27.3618H12.43ZM17.7107 29.5493C17.6389 29.5493 17.5678 29.5634 17.5014 29.5908C17.435 29.6183 17.3747 29.6585 17.3238 29.7093L15.8104 31.2234C15.554 31.4797 15.2063 31.6237 14.8438 31.6237C14.4812 31.6237 14.1335 31.4797 13.8771 31.2234L12.3637 29.7093C12.3128 29.6585 12.2525 29.6183 12.1861 29.5908C12.1197 29.5634 12.0486 29.5493 11.9768 29.5493H7.23262C6.97569 29.5482 6.72664 29.6379 6.52949 29.8027C6.33234 29.9674 6.19979 30.1966 6.15527 30.4496C6.11421 30.6942 6.09363 30.9419 6.09375 31.1899C6.09375 33.2811 7.53818 34.9846 9.32441 35.0181C9.49053 36.0517 9.89248 36.9854 10.4975 37.7162C11.3923 38.797 12.6932 39.3931 14.1602 39.3931H23.1836C24.6506 39.3931 25.9515 38.797 26.8463 37.7148C27.4513 36.9841 27.8532 36.0503 28.0193 35.0167C29.8056 34.9846 31.25 33.2811 31.25 31.1886C31.2501 30.9405 31.2295 30.6929 31.1885 30.4482C31.1437 30.1955 31.011 29.9666 30.8139 29.8021C30.6168 29.6377 30.3679 29.5481 30.1111 29.5493H17.7107Z" fill="#FF385C"/>
</svg>
