<svg width="160" height="12" viewBox="0 0 160 12" fill="none" xmlns="http://www.w3.org/2000/svg">
    <g clip-path="url(#clip0_4_113)">
        <path d="M35.1052 3.22668C50.2085 2.9045 65.32 2.69739 80.4316 2.60534C95.5431 2.51329 110.515 2.54397 125.552 2.68972C134.095 2.7741 142.645 2.88916 151.188 3.04258L152.347 1.47005C132.845 1.78456 113.351 2.17577 93.8577 2.64369C74.3639 3.11162 54.8702 3.65625 35.3765 4.28526C24.4334 4.63811 13.4985 5.00632 2.55537 5.4052C1.91407 5.42821 0.952132 5.58163 0.590376 6.16461C0.253285 6.70924 0.878137 6.99307 1.39611 6.97772C21.712 6.49446 42.0443 6.44843 62.3684 6.84732C82.6925 7.2462 103 8.09767 123.283 9.38637C134.679 10.1074 146.066 10.9742 157.436 11.9791C158.053 12.0328 159.072 11.749 159.401 11.2197C159.763 10.6444 159.089 10.4449 158.596 10.4066C138.362 8.61929 118.079 7.26922 97.7794 6.36406C77.48 5.4589 57.1476 5.00632 36.8235 4.99864C25.4036 4.99864 13.9836 5.12905 2.56359 5.4052L1.40433 6.97772C20.8898 6.26433 40.3835 5.63532 59.8773 5.07535C79.371 4.52305 98.8647 4.03979 118.358 3.6409C129.302 3.41845 140.253 3.21134 151.196 3.03491C151.837 3.02724 152.807 2.85081 153.161 2.27549C153.514 1.70018 152.865 1.47005 152.355 1.46238C137.235 1.20157 122.132 1.04049 107.021 1.00213C91.9091 0.963777 76.9373 1.03281 61.8998 1.22459C53.3574 1.33198 44.8068 1.47772 36.2645 1.66182C35.6232 1.67717 34.653 1.84592 34.2995 2.42124C33.9624 2.96587 34.5872 3.24969 35.1052 3.23435V3.22668Z" fill="#548574"/>
    </g>
    <defs>
        <clipPath id="clip0_4_113">
            <rect width="159" height="11" fill="white" transform="translate(0.5 0.986816)"/>
        </clipPath>
    </defs>
</svg>
