<svg width="353" height="295" viewBox="0 0 353 295" fill="none" xmlns="http://www.w3.org/2000/svg">
<g opacity="0.41">
<path d="M352.754 188.242C353.092 182.481 352.937 176.701 352.289 170.966C349.241 144.028 335.423 118.629 315.089 100.711C307.83 94.3171 299.575 88.5881 294.854 80.1553C286.898 65.938 287.496 49.6042 277.634 35.5753C267.639 21.4008 253.474 10.6946 237.11 4.94674C188.696 -11.8303 120.912 15.485 127.018 73.8168C127.018 74.0273 127.018 74.3265 127.095 74.7144C127.278 77.5796 126.879 80.4522 125.921 83.1587C124.963 85.8652 123.466 88.3494 121.521 90.4612C119.576 92.573 117.223 94.2686 114.604 95.4456C111.985 96.6226 109.155 97.2565 106.284 97.3091C61.6159 98.3618 23.175 132.769 14.9416 176.429C9.64477 204.487 18.266 235.238 38.8328 255.106C54.1582 269.922 74.7139 278.067 95.2697 283.652C136.503 294.866 179.897 297.215 222.416 292.927C262.209 288.915 304.185 277.479 329.904 246.862C343.595 230.269 351.604 209.723 352.754 188.242Z" fill="#D8E5FF"/>
</g>
<g opacity="0.88">
<path d="M316.023 190.991C316.289 186.479 316.167 181.952 315.657 177.461C313.275 156.407 302.449 136.46 286.514 122.42C280.829 117.412 274.324 112.924 270.668 106.319C264.429 95.1826 264.905 82.3838 257.171 71.3912C249.341 60.2915 238.248 51.9062 225.434 47.4002C187.547 34.2578 134.357 55.7001 139.188 101.355C139.188 101.521 139.188 101.754 139.188 102.053C139.339 104.3 139.031 106.555 138.283 108.68C137.536 110.805 136.364 112.755 134.84 114.413C133.315 116.072 131.47 117.403 129.415 118.326C127.361 119.249 125.14 119.745 122.888 119.783C87.8931 120.614 57.7743 147.597 51.325 181.772C47.1806 203.757 53.9734 227.836 70.0523 243.395C82.0533 254.997 98.1544 261.368 114.267 265.757C146.568 274.533 180.555 276.383 213.865 273.026C245.037 269.879 277.915 260.914 298.083 236.923C308.83 223.93 315.119 207.829 316.023 190.991Z" fill="#D8E5FF"/>
</g>
<path opacity="0.31" d="M342.876 46.0984C344.269 40.2269 340.638 34.3384 334.766 32.9461C328.895 31.5538 323.006 35.1849 321.614 41.0564C320.222 46.928 323.853 52.8164 329.724 54.2087C335.596 55.601 341.484 51.9699 342.876 46.0984Z" fill="#D8E5FF"/>
<path opacity="0.31" d="M101.263 39.8613C106.21 34.9149 106.21 26.8954 101.263 21.949C96.3169 17.0027 88.2973 17.0027 83.351 21.949C78.4047 26.8953 78.4047 34.915 83.351 39.8613C88.2973 44.8076 96.3169 44.8076 101.263 39.8613Z" fill="#D8E5FF"/>
<path opacity="0.31" d="M16.4281 290.599C25.4612 290.599 32.784 283.276 32.784 274.243C32.784 265.21 25.4612 257.887 16.4281 257.887C7.39492 257.887 0.072113 265.21 0.072113 274.243C0.072113 283.276 7.39492 290.599 16.4281 290.599Z" fill="#D8E5FF"/>
<path d="M145.535 145.148C177.561 145.148 203.524 119.185 203.524 87.1593C203.524 55.1332 177.561 29.171 145.535 29.171C113.509 29.171 87.5471 55.1332 87.5471 87.1593C87.5471 119.185 113.509 145.148 145.535 145.148Z" fill="#2D54DE"/>
<path d="M185.795 128.924C185.649 128.922 185.51 128.863 185.408 128.758C185.355 128.708 185.312 128.648 185.283 128.582C185.255 128.515 185.24 128.443 185.24 128.37C185.24 128.298 185.255 128.226 185.283 128.159C185.312 128.092 185.355 128.032 185.408 127.983C196.179 117.211 202.23 102.602 202.23 87.3697C202.23 72.1369 196.179 57.528 185.408 46.7569C174.636 35.9857 160.028 29.9345 144.795 29.9345C129.562 29.9345 114.953 35.9857 104.182 46.7569C104.078 46.8612 103.936 46.9198 103.789 46.9198C103.641 46.9198 103.5 46.8612 103.395 46.7569C103.291 46.6525 103.232 46.511 103.232 46.3635C103.232 46.2159 103.291 46.0744 103.395 45.9701C114.374 34.9902 129.264 28.8212 144.791 28.8202C160.318 28.8192 175.209 34.9862 186.189 45.9645C197.169 56.9429 203.338 71.8334 203.339 87.3602C203.34 102.887 197.173 117.778 186.194 128.758C186.089 128.864 185.945 128.924 185.795 128.924Z" fill="#0A2A43"/>
<path d="M145.534 131.285C169.904 131.285 189.66 111.529 189.66 87.1592C189.66 62.7893 169.904 43.0336 145.534 43.0336C121.164 43.0336 101.409 62.7893 101.409 87.1592C101.409 111.529 121.164 131.285 145.534 131.285Z" fill="white"/>
<path d="M145.534 131.839C133.684 131.839 122.32 127.131 113.941 118.752C105.562 110.373 100.854 99.0088 100.854 87.159C100.854 75.3092 105.562 63.9448 113.941 55.5657C122.32 47.1867 133.684 42.4794 145.534 42.4794C145.681 42.4794 145.822 42.5377 145.926 42.6416C146.03 42.7455 146.088 42.8865 146.088 43.0334C146.088 43.1804 146.03 43.3213 145.926 43.4252C145.822 43.5291 145.681 43.5875 145.534 43.5875C139.812 43.5875 134.146 44.7145 128.86 46.9042C123.574 49.0938 118.77 52.3033 114.724 56.3493C110.678 60.3953 107.469 65.1986 105.279 70.4849C103.09 75.7712 101.963 81.4371 101.963 87.159C101.963 92.8809 103.09 98.5468 105.279 103.833C107.469 109.119 110.678 113.923 114.724 117.969C118.77 122.015 123.574 125.224 128.86 127.414C134.146 129.604 139.812 130.731 145.534 130.731C145.68 130.733 145.819 130.793 145.923 130.896C146.026 130.999 146.085 131.139 146.088 131.285C146.088 131.432 146.03 131.572 145.926 131.676C145.822 131.78 145.681 131.839 145.534 131.839Z" fill="#0A2A43"/>
<path d="M156.961 95.5913H144.96C143.784 95.5913 142.657 95.1243 141.825 94.293C140.994 93.4618 140.527 92.3344 140.527 91.1588V74.5369C140.527 73.5083 140.936 72.5218 141.663 71.7944C142.391 71.0671 143.377 70.6584 144.406 70.6584C145.434 70.6584 146.421 71.0671 147.148 71.7944C147.875 72.5218 148.284 73.5083 148.284 74.5369V87.8344H156.994C158.023 87.8344 159.009 88.243 159.736 88.9704C160.464 89.6977 160.872 90.6842 160.872 91.7128C160.872 92.7415 160.464 93.728 159.736 94.4553C159.009 95.1827 158.023 95.5913 156.994 95.5913H156.961Z" fill="#0A2A43"/>
<path d="M55.501 107.304L117.966 169.769C120.872 172.675 124.322 174.981 128.119 176.554C131.916 178.127 135.985 178.936 140.095 178.936C144.205 178.936 148.275 178.127 152.072 176.554C155.869 174.981 159.319 172.675 162.225 169.769L169.693 162.3C171.045 160.946 171.804 159.111 171.804 157.197C171.804 155.284 171.045 153.449 169.693 152.095L144.206 126.608C142.852 125.256 141.017 124.497 139.104 124.497C137.19 124.497 135.355 125.256 134.001 126.608L121.257 139.351C120.777 139.829 120.128 140.097 119.451 140.097C118.774 140.097 118.124 139.829 117.645 139.351L86.7058 108.434C86.2335 107.961 85.9682 107.319 85.9682 106.65C85.9682 105.981 86.2335 105.34 86.7058 104.866L99.283 92.2668C99.9548 91.5976 100.488 90.8023 100.852 89.9266C101.215 89.0509 101.402 88.1121 101.402 87.1639C101.402 86.2156 101.215 85.2768 100.852 84.4011C100.488 83.5254 99.9548 82.7301 99.283 82.0609L73.1091 55.8759C71.7682 54.5388 69.9566 53.7806 68.063 53.7641C66.1695 53.7475 64.3449 54.4739 62.9808 55.7873L55.8888 62.6355C52.8965 65.5235 50.5096 68.9788 48.8676 72.7995C47.2255 76.6203 46.3612 80.7299 46.3251 84.8884C46.289 89.0469 47.0818 93.1709 48.6573 97.0196C50.2327 100.868 52.5593 104.365 55.501 107.304Z" fill="#0A2A43"/>
<path d="M57.4628 63.9325L92.5572 99.0268L93.765 97.8301L99.3057 92.2894C99.9774 91.6202 100.51 90.825 100.874 89.9493C101.238 89.0736 101.425 88.1347 101.425 87.1865C101.425 86.2383 101.238 85.2994 100.874 84.4237C100.51 83.548 99.9774 82.7528 99.3057 82.0836L73.1317 55.8985C71.7908 54.5615 69.9792 53.8033 68.0857 53.7867C66.1921 53.7701 64.3675 54.4965 63.0034 55.8099L55.9114 62.6581L57.4628 63.9325Z" fill="#F3F4F6"/>
<path d="M92.5564 99.8137L57.0963 64.3537L55.0685 62.7247L62.6148 55.4332C64.0793 54.0152 66.0432 53.2306 68.0817 53.2493C70.1202 53.268 72.0694 54.0883 73.5077 55.533L99.6927 81.7069C100.418 82.4278 100.994 83.2851 101.387 84.2293C101.779 85.1735 101.982 86.1861 101.982 87.2088C101.982 88.2314 101.779 89.244 101.387 90.1883C100.994 91.1325 100.418 91.9897 99.6927 92.7106L92.5564 99.8137ZM56.7861 62.6361L57.8942 63.5337L92.6007 98.2512L98.9392 91.9128C99.5607 91.2949 100.054 90.5602 100.39 89.751C100.727 88.9418 100.9 88.0741 100.9 87.1977C100.9 86.3213 100.727 85.4536 100.39 84.6444C100.054 83.8352 99.5607 83.1005 98.9392 82.4826L72.7652 56.2976C71.5223 55.0713 69.8506 54.3774 68.1047 54.3629C66.3587 54.3484 64.6757 55.0145 63.4126 56.22L56.7861 62.6361Z" fill="#0A2A43"/>
<path d="M128.813 134.132L163.919 169.226L165.126 168.03L170.667 162.489C171.339 161.82 171.872 161.025 172.236 160.149C172.599 159.273 172.787 158.334 172.787 157.386C172.787 156.438 172.599 155.499 172.236 154.623C171.872 153.748 171.339 152.952 170.667 152.283L144.482 126.098C143.144 124.759 141.334 123.999 139.442 123.983C137.549 123.966 135.726 124.694 134.365 126.009L127.273 132.858L128.813 134.132Z" fill="#F3F4F6"/>
<path d="M163.965 170.013L128.505 134.553L126.477 132.924L134.012 125.633C135.485 124.227 137.448 123.451 139.484 123.47C141.52 123.489 143.469 124.3 144.916 125.733L171.09 151.907C171.816 152.627 172.391 153.485 172.784 154.429C173.177 155.373 173.379 156.386 173.379 157.408C173.379 158.431 173.177 159.444 172.784 160.388C172.391 161.332 171.816 162.189 171.09 162.91L163.965 170.013ZM128.139 132.836L129.247 133.744L163.954 168.451L170.292 162.112C170.914 161.494 171.407 160.76 171.744 159.951C172.08 159.141 172.253 158.274 172.253 157.397C172.253 156.521 172.08 155.653 171.744 154.844C171.407 154.035 170.914 153.3 170.292 152.682L144.118 126.508C142.886 125.268 141.214 124.563 139.466 124.547C137.717 124.53 136.033 125.203 134.777 126.42L128.139 132.836Z" fill="#0A2A43"/>
<path d="M81.5297 81.7292C81.3859 81.7257 81.2483 81.6707 81.1418 81.5741L59.755 60.1872C59.7033 60.1356 59.6623 60.0742 59.6344 60.0067C59.6064 59.9392 59.592 59.8669 59.592 59.7938C59.592 59.7208 59.6064 59.6484 59.6344 59.5809C59.6623 59.5134 59.7033 59.4521 59.755 59.4004C59.8066 59.3488 59.868 59.3078 59.9355 59.2798C60.003 59.2519 60.0753 59.2375 60.1484 59.2375C60.2214 59.2375 60.2938 59.2519 60.3613 59.2798C60.4288 59.3078 60.4901 59.3488 60.5418 59.4004L81.9286 80.7873C82.0308 80.8927 82.088 81.0338 82.088 81.1807C82.088 81.3275 82.0308 81.4686 81.9286 81.5741C81.8193 81.6732 81.6772 81.7284 81.5297 81.7292Z" fill="#0A2A43"/>
<path d="M166.612 166.811C166.463 166.811 166.319 166.751 166.213 166.645L144.827 145.258C144.722 145.154 144.664 145.012 144.664 144.865C144.664 144.717 144.722 144.576 144.827 144.471C144.931 144.367 145.072 144.308 145.22 144.308C145.368 144.308 145.509 144.367 145.613 144.471L167 165.858C167.052 165.91 167.093 165.971 167.122 166.038C167.15 166.106 167.164 166.178 167.164 166.251C167.164 166.325 167.15 166.397 167.122 166.464C167.093 166.532 167.052 166.593 167 166.645C166.898 166.749 166.759 166.809 166.612 166.811Z" fill="#0A2A43"/>
<path d="M260.46 276.139L178.569 264.027C174.123 263.368 170.12 260.97 167.44 257.361C164.759 253.752 163.621 249.227 164.275 244.779L193.64 46.2253C194.3 41.7786 196.698 37.7756 200.306 35.0954C203.915 32.4152 208.441 31.2769 212.888 31.9304L294.779 44.0423C296.981 44.3675 299.097 45.1235 301.007 46.2671C302.917 47.4106 304.582 48.9192 305.909 50.7067C307.235 52.4943 308.197 54.5256 308.738 56.6848C309.279 58.844 309.389 61.0886 309.062 63.2904L279.708 261.811C279.387 264.017 278.634 266.137 277.492 268.051C276.35 269.965 274.842 271.635 273.055 272.966C271.267 274.297 269.234 275.262 267.073 275.807C264.912 276.351 262.665 276.464 260.46 276.139Z" fill="#0A2A43"/>
<path d="M200.022 50.4555L172.3 237.962L273.974 252.994L301.696 65.4874L200.022 50.4555Z" fill="#F3F4F6"/>
<path d="M200.029 50.4531L197.948 64.5284L299.622 79.5604L301.703 65.485L200.029 50.4531Z" fill="#2D54DE"/>
<path d="M221.431 263.772C221.105 263.773 220.778 263.747 220.456 263.694C218.77 263.433 217.251 262.528 216.217 261.17C215.184 259.812 214.718 258.107 214.916 256.412C215.115 254.717 215.962 253.165 217.281 252.083C218.6 251 220.287 250.47 221.988 250.606C223.689 250.741 225.271 251.53 226.402 252.808C227.533 254.086 228.125 255.752 228.052 257.457C227.98 259.162 227.25 260.772 226.015 261.95C224.781 263.127 223.137 263.78 221.431 263.772ZM221.431 251.582C220.402 251.582 219.394 251.869 218.518 252.41C217.643 252.951 216.936 253.725 216.475 254.645C216.015 255.565 215.821 256.596 215.913 257.62C216.005 258.645 216.381 259.624 216.999 260.447C217.653 261.319 218.551 261.978 219.578 262.343C220.606 262.707 221.718 262.76 222.776 262.495C223.834 262.23 224.79 261.659 225.524 260.853C226.259 260.047 226.739 259.043 226.905 257.965C227.115 256.517 226.743 255.045 225.871 253.869C224.999 252.694 223.698 251.912 222.251 251.693C221.977 251.641 221.699 251.612 221.42 251.604L221.431 251.582Z" fill="#F3F4F6"/>
<path d="M236.125 48.685H235.815C235.396 48.6237 235.005 48.4395 234.69 48.1556C234.376 47.8717 234.154 47.501 234.05 47.0904C233.947 46.6798 233.968 46.2478 234.111 45.8492C234.253 45.4505 234.511 45.1031 234.851 44.8509C235.189 44.5969 235.595 44.4496 236.018 44.4277C236.44 44.4058 236.86 44.5103 237.223 44.728C237.586 44.9457 237.875 45.2666 238.055 45.6497C238.234 46.0328 238.295 46.4607 238.23 46.8788C238.154 47.3819 237.899 47.8408 237.513 48.1722C237.126 48.5036 236.634 48.6856 236.125 48.685ZM236.125 45.5158C235.883 45.5299 235.652 45.6232 235.467 45.7813C235.283 45.9395 235.156 46.1538 235.106 46.3912C235.069 46.6624 235.141 46.937 235.305 47.1558C235.383 47.2649 235.482 47.3574 235.596 47.4278C235.71 47.4982 235.837 47.5451 235.97 47.5658C236.241 47.6024 236.516 47.5307 236.735 47.3664C236.844 47.2897 236.936 47.1909 237.005 47.0763C237.073 46.9618 237.117 46.8341 237.133 46.7015C237.156 46.5679 237.151 46.4311 237.119 46.2996C237.086 46.168 237.027 46.0446 236.945 45.9369C236.868 45.8275 236.77 45.7355 236.655 45.6667C236.541 45.598 236.413 45.5541 236.28 45.538L236.125 45.5158Z" fill="#F3F4F6"/>
<path d="M269.148 53.5607C269.044 53.5717 268.94 53.5717 268.837 53.5607L242.951 49.7044C242.673 49.6677 242.406 49.5739 242.165 49.429C241.925 49.2841 241.717 49.0911 241.555 48.8623C241.385 48.6387 241.262 48.383 241.194 48.1107C241.125 47.8384 241.112 47.555 241.156 47.2776C241.196 47.0016 241.29 46.7362 241.432 46.4966C241.575 46.257 241.764 46.0479 241.987 45.8814C242.442 45.545 243.012 45.4017 243.572 45.4825L269.513 49.3166C269.79 49.3583 270.056 49.4541 270.295 49.5986C270.535 49.7431 270.744 49.9335 270.909 50.1588C271.245 50.6122 271.388 51.1799 271.307 51.7382C271.226 52.2965 270.928 52.8002 270.477 53.1396C270.094 53.4247 269.625 53.5729 269.148 53.5607ZM243.206 46.5684C242.961 46.5686 242.724 46.6573 242.539 46.8181C242.354 46.9789 242.233 47.201 242.198 47.4439C242.172 47.7042 242.248 47.9644 242.409 48.1706C242.569 48.3769 242.803 48.5134 243.062 48.552L268.992 52.3861C269.126 52.408 269.262 52.4029 269.394 52.371C269.525 52.3392 269.649 52.2812 269.757 52.2006C269.866 52.1199 269.957 52.0183 270.026 51.9017C270.094 51.785 270.138 51.6558 270.156 51.5218C270.178 51.39 270.173 51.2549 270.141 51.1252C270.108 50.9955 270.049 50.8739 269.968 50.7682C269.887 50.6588 269.786 50.5662 269.67 50.4958C269.554 50.4255 269.426 50.3787 269.292 50.3582L243.361 46.5241L243.206 46.5684Z" fill="#F3F4F6"/>
<path d="M274.411 195.644L203.491 185.15C202.937 185.071 202.375 185.214 201.926 185.548C201.478 185.882 201.18 186.381 201.098 186.934L198.36 205.296C198.32 205.571 198.333 205.851 198.401 206.121C198.469 206.391 198.589 206.644 198.754 206.868C198.92 207.091 199.128 207.279 199.367 207.422C199.605 207.565 199.869 207.66 200.145 207.7L260.781 216.665L267.031 225.286L268.139 217.762L271.065 218.194C271.62 218.274 272.184 218.131 272.634 217.797C273.084 217.463 273.384 216.964 273.469 216.41L276.184 198.015C276.26 197.466 276.117 196.909 275.785 196.465C275.453 196.021 274.959 195.726 274.411 195.644Z" fill="#D8E5FF"/>
<path d="M260.782 217.254H260.682L200.045 208.278C199.351 208.169 198.728 207.789 198.313 207.222C197.898 206.655 197.724 205.947 197.829 205.253L200.544 186.858C200.653 186.161 201.034 185.537 201.603 185.121C202.173 184.706 202.884 184.533 203.58 184.641L219.969 187.068C220.042 187.079 220.112 187.104 220.175 187.142C220.238 187.18 220.293 187.23 220.337 187.289C220.381 187.348 220.412 187.416 220.43 187.487C220.448 187.558 220.451 187.633 220.44 187.705C220.429 187.778 220.404 187.848 220.366 187.911C220.328 187.974 220.279 188.029 220.219 188.073C220.16 188.117 220.093 188.148 220.022 188.166C219.95 188.184 219.876 188.187 219.803 188.176L203.414 185.761C203.006 185.703 202.592 185.808 202.261 186.052C201.929 186.297 201.707 186.662 201.641 187.068L198.926 205.474C198.898 205.669 198.91 205.867 198.959 206.057C199.009 206.247 199.095 206.426 199.214 206.582C199.459 206.915 199.826 207.138 200.234 207.203L260.87 216.168C260.943 216.177 261.013 216.201 261.076 216.238C261.14 216.275 261.194 216.325 261.238 216.384C261.281 216.443 261.313 216.51 261.329 216.582C261.346 216.653 261.348 216.727 261.336 216.799C261.314 216.929 261.246 217.047 261.144 217.131C261.042 217.214 260.913 217.258 260.782 217.254Z" fill="#0A2A43"/>
<path d="M285.681 119.405L214.761 108.911C214.206 108.832 213.642 108.975 213.192 109.309C212.742 109.643 212.441 110.141 212.356 110.695L209.642 129.09C209.599 129.366 209.612 129.646 209.679 129.917C209.746 130.187 209.866 130.441 210.032 130.665C210.198 130.889 210.406 131.077 210.645 131.22C210.885 131.362 211.15 131.456 211.426 131.495L272.062 140.46L278.301 149.081L279.409 141.557L282.335 141.989C282.888 142.068 283.451 141.925 283.899 141.591C284.348 141.256 284.646 140.758 284.728 140.205L287.454 121.799C287.534 121.247 287.392 120.686 287.06 120.237C286.728 119.789 286.232 119.49 285.681 119.405Z" fill="#D8E5FF"/>
<path d="M278.655 150.499L271.763 141.024L211.359 132.082C210.666 131.97 210.045 131.59 209.63 131.023C209.216 130.457 209.04 129.751 209.142 129.056C209.167 128.912 209.247 128.783 209.364 128.696C209.482 128.609 209.629 128.572 209.774 128.591C209.847 128.6 209.917 128.624 209.98 128.662C210.043 128.699 210.098 128.748 210.142 128.807C210.185 128.866 210.216 128.934 210.233 129.005C210.25 129.076 210.252 129.15 210.239 129.223C210.193 129.617 210.3 130.014 210.539 130.331C210.784 130.663 211.15 130.886 211.558 130.951L272.372 139.916L277.913 147.617L278.91 140.891L282.378 141.401C282.581 141.432 282.787 141.423 282.986 141.375C283.185 141.326 283.373 141.238 283.537 141.116C283.702 140.995 283.841 140.842 283.947 140.666C284.052 140.491 284.122 140.296 284.151 140.093L285.958 127.849C285.982 127.704 286.062 127.575 286.18 127.488C286.297 127.402 286.444 127.364 286.589 127.383C286.661 127.394 286.731 127.419 286.793 127.456C286.856 127.494 286.91 127.544 286.953 127.602C286.996 127.661 287.028 127.728 287.045 127.798C287.062 127.869 287.066 127.943 287.055 128.015L285.249 140.204C285.2 140.552 285.082 140.886 284.901 141.187C284.72 141.488 284.48 141.749 284.196 141.955C283.918 142.168 283.6 142.322 283.261 142.408C282.922 142.493 282.569 142.509 282.223 142.454L279.841 142.099L278.655 150.499Z" fill="#0A2A43"/>
<path d="M195.911 143.108L266.831 153.602C267.385 153.684 267.883 153.982 268.217 154.431C268.552 154.879 268.695 155.442 268.616 155.996L265.89 174.402C265.807 174.955 265.509 175.453 265.061 175.787C264.612 176.122 264.05 176.265 263.496 176.186L202.859 167.21L194.382 173.648L195.49 166.124L192.565 165.692C192.289 165.652 192.024 165.559 191.785 165.416C191.545 165.274 191.337 165.085 191.171 164.862C191.005 164.638 190.885 164.384 190.818 164.113C190.751 163.843 190.738 163.562 190.781 163.287L193.496 144.892C193.58 144.336 193.882 143.835 194.335 143.501C194.788 143.167 195.355 143.025 195.911 143.108Z" fill="#2D54DE"/>
<path d="M263.805 176.762C263.676 176.773 263.547 176.773 263.418 176.762L225.564 171.166C225.491 171.156 225.421 171.131 225.358 171.094C225.295 171.057 225.239 171.007 225.195 170.949C225.151 170.89 225.118 170.823 225.1 170.752C225.082 170.681 225.077 170.607 225.087 170.534C225.098 170.462 225.122 170.391 225.159 170.328C225.197 170.265 225.246 170.209 225.305 170.165C225.363 170.121 225.43 170.089 225.501 170.07C225.572 170.052 225.646 170.048 225.719 170.058L263.573 175.654C263.775 175.685 263.982 175.676 264.181 175.627C264.38 175.579 264.567 175.491 264.732 175.369C264.896 175.248 265.036 175.095 265.141 174.919C265.246 174.744 265.316 174.549 265.346 174.346L268.072 155.94C268.129 155.531 268.023 155.115 267.776 154.783C267.529 154.452 267.162 154.23 266.753 154.167C266.61 154.145 266.481 154.068 266.394 153.952C266.307 153.836 266.269 153.69 266.288 153.547C266.31 153.4 266.388 153.269 266.506 153.179C266.624 153.09 266.773 153.051 266.919 153.07C267.613 153.185 268.234 153.567 268.648 154.135C269.063 154.703 269.238 155.411 269.136 156.106L266.41 174.501C266.312 175.133 265.994 175.709 265.51 176.127C265.027 176.546 264.411 176.778 263.772 176.784L263.805 176.762Z" fill="#0A2A43"/>
<path d="M174.851 220.694L172.3 237.949L273.974 252.981L276.525 235.726L174.851 220.694Z" fill="white"/>
<path d="M189.87 231.603C189.69 232.813 189.156 233.942 188.334 234.848C187.513 235.753 186.441 236.395 185.255 236.692C184.069 236.989 182.821 236.927 181.67 236.515C180.518 236.103 179.515 235.359 178.787 234.376C178.058 233.394 177.638 232.217 177.578 230.996C177.518 229.775 177.822 228.563 178.451 227.514C179.08 226.465 180.006 225.626 181.111 225.104C182.217 224.581 183.452 224.398 184.662 224.577C185.466 224.695 186.239 224.971 186.936 225.388C187.633 225.805 188.241 226.356 188.725 227.009C189.209 227.661 189.559 228.403 189.756 229.192C189.952 229.98 189.991 230.8 189.87 231.603Z" fill="#D8E5FF"/>
<path opacity="0.33" d="M264.859 248.358C264.588 248.362 264.318 248.343 264.05 248.303L198.161 238.54C197.443 238.44 196.753 238.197 196.131 237.826C195.508 237.455 194.966 236.963 194.537 236.379C193.9 235.501 193.535 234.455 193.487 233.371C193.439 232.287 193.711 231.213 194.268 230.282C194.825 229.351 195.643 228.604 196.62 228.134C197.598 227.663 198.692 227.49 199.768 227.636L265.657 237.388C266.975 237.658 268.149 238.398 268.962 239.471C269.774 240.544 270.168 241.876 270.07 243.218C269.972 244.56 269.389 245.82 268.431 246.764C267.472 247.708 266.202 248.27 264.859 248.347V248.358ZM264.205 247.25C264.809 247.413 265.44 247.446 266.057 247.347C266.675 247.249 267.265 247.021 267.788 246.678C268.311 246.336 268.755 245.886 269.092 245.36C269.429 244.833 269.651 244.241 269.743 243.623C269.835 243.004 269.796 242.374 269.626 241.772C269.457 241.17 269.163 240.61 268.762 240.13C268.362 239.65 267.864 239.26 267.302 238.986C266.74 238.712 266.127 238.56 265.502 238.54L199.612 228.789C198.518 228.741 197.444 229.101 196.599 229.798C195.754 230.496 195.198 231.481 195.036 232.565C194.875 233.649 195.121 234.754 195.727 235.667C196.333 236.58 197.255 237.236 198.316 237.509L264.205 247.25Z" fill="#2D54DE"/>
<path d="M206.382 60.5862H206.072C205.507 60.4907 205 60.1799 204.66 59.7192C204.319 59.2584 204.169 58.6835 204.243 58.1151C204.284 57.8336 204.38 57.5631 204.526 57.3195C204.673 57.0759 204.867 56.8641 205.097 56.6967C205.446 56.4638 205.854 56.3349 206.273 56.3249C206.693 56.3149 207.107 56.4242 207.467 56.6401C207.826 56.856 208.118 57.1697 208.306 57.5445C208.495 57.9194 208.573 58.3402 208.532 58.7578C208.442 59.2649 208.178 59.7247 207.786 60.0584C207.393 60.3921 206.897 60.5787 206.382 60.5862ZM206.382 57.3505C206.155 57.3542 205.934 57.4277 205.75 57.561C205.534 57.7355 205.391 57.9851 205.35 58.2602C205.309 58.5353 205.373 58.8157 205.529 59.0459C205.663 59.1973 205.837 59.309 206.03 59.3688C206.224 59.4286 206.43 59.4343 206.626 59.3852C206.823 59.3361 207.002 59.2341 207.144 59.0902C207.287 58.9464 207.387 58.7663 207.435 58.5694C207.457 58.4316 207.451 58.2906 207.417 58.1553C207.382 58.02 207.321 57.8931 207.235 57.7826C207.154 57.6687 207.05 57.5725 206.93 57.5001C206.81 57.4277 206.676 57.3806 206.537 57.3615L206.382 57.3505Z" fill="white"/>
<path d="M212.378 61.4728H212.056C211.574 61.3 211.167 60.9657 210.904 60.5266C210.64 60.0876 210.537 59.5709 210.611 59.0643C210.686 58.5577 210.933 58.0925 211.312 57.7478C211.69 57.4031 212.177 57.2 212.688 57.1732C212.972 57.214 213.245 57.3115 213.491 57.46C213.736 57.6085 213.949 57.8049 214.117 58.0376C214.445 58.5036 214.581 59.0778 214.496 59.6411C214.411 60.2044 214.113 60.7135 213.663 61.0627C213.292 61.3375 212.84 61.4816 212.378 61.4728ZM212.378 58.237C212.127 58.248 211.887 58.3439 211.698 58.509C211.509 58.6741 211.381 58.8986 211.336 59.1457C211.313 59.2835 211.319 59.4246 211.353 59.56C211.387 59.6955 211.45 59.8223 211.536 59.9325C211.617 60.0464 211.721 60.1426 211.841 60.215C211.961 60.2874 212.095 60.3345 212.234 60.3535C212.371 60.3739 212.511 60.3667 212.646 60.3326C212.781 60.2984 212.908 60.2378 213.019 60.1543C213.13 60.0709 213.224 59.9662 213.295 59.8463C213.365 59.7264 213.411 59.5938 213.43 59.456C213.453 59.3181 213.447 59.1772 213.412 59.0419C213.378 58.9065 213.316 58.7797 213.231 58.6692C213.063 58.4476 212.818 58.2973 212.544 58.2481L212.378 58.237Z" fill="white"/>
<path d="M218.262 62.3481C218.156 62.3596 218.048 62.3596 217.941 62.3481C217.401 62.3066 216.898 62.0575 216.538 61.6532C216.178 61.2488 215.988 60.7207 216.009 60.1795C216.03 59.6384 216.259 59.1264 216.65 58.7508C217.04 58.3753 217.56 58.1656 218.102 58.1656C218.643 58.1656 219.164 58.3753 219.554 58.7508C219.944 59.1264 220.174 59.6384 220.195 60.1795C220.215 60.7207 220.026 61.2488 219.665 61.6532C219.305 62.0575 218.802 62.3066 218.262 62.3481ZM218.262 59.1124C218.034 59.1108 217.812 59.1848 217.631 59.323C217.482 59.4579 217.373 59.6305 217.315 59.8225C217.257 60.0145 217.253 60.2186 217.302 60.4131C217.351 60.6076 217.451 60.7852 217.593 60.9269C217.735 61.0686 217.913 61.1692 218.107 61.2178C218.264 61.2929 218.436 61.3301 218.609 61.3266C218.783 61.323 218.953 61.2787 219.106 61.1973C219.26 61.1159 219.392 60.9996 219.492 60.8578C219.592 60.716 219.657 60.5527 219.683 60.3811C219.708 60.2094 219.693 60.0341 219.638 59.8694C219.583 59.7047 219.491 59.5551 219.368 59.4328C219.245 59.3104 219.095 59.2187 218.929 59.165C218.764 59.1113 218.589 59.097 218.418 59.1235L218.262 59.1124Z" fill="white"/>
<path d="M301.018 80.333H300.94L206.827 66.4149C206.683 66.3904 206.554 66.3108 206.467 66.193C206.38 66.0752 206.343 65.9284 206.362 65.7833C206.373 65.7112 206.398 65.642 206.435 65.5796C206.473 65.5172 206.522 65.4628 206.581 65.4195C206.64 65.3763 206.706 65.3451 206.777 65.3276C206.848 65.3102 206.921 65.3069 206.994 65.3179L301.096 79.236C301.243 79.2462 301.379 79.3145 301.476 79.4257C301.573 79.5368 301.621 79.6818 301.611 79.8288C301.601 79.9757 301.532 80.1126 301.421 80.2092C301.31 80.3059 301.165 80.3544 301.018 80.3441V80.333Z" fill="#0A2A43"/>
<path d="M261.788 199.878H261.7L211.49 192.453C211.346 192.429 211.217 192.349 211.13 192.231C211.043 192.114 211.006 191.967 211.025 191.822C211.034 191.75 211.058 191.681 211.095 191.619C211.131 191.556 211.18 191.502 211.237 191.458C211.295 191.415 211.361 191.384 211.431 191.366C211.501 191.349 211.574 191.345 211.646 191.356L261.866 198.781C261.938 198.791 262.007 198.816 262.07 198.854C262.132 198.892 262.186 198.941 262.23 199C262.273 199.059 262.304 199.125 262.322 199.196C262.339 199.267 262.342 199.34 262.331 199.412C262.312 199.542 262.247 199.661 262.147 199.747C262.047 199.833 261.92 199.879 261.788 199.878Z" fill="white"/>
<path d="M232.058 201.606H231.981L210.605 198.448C210.458 198.426 210.326 198.346 210.238 198.227C210.149 198.107 210.112 197.958 210.134 197.811C210.156 197.664 210.236 197.532 210.355 197.443C210.475 197.355 210.624 197.318 210.771 197.34L232.136 200.509C232.209 200.514 232.28 200.533 232.345 200.566C232.41 200.599 232.469 200.644 232.516 200.699C232.564 200.754 232.601 200.818 232.624 200.887C232.647 200.956 232.656 201.029 232.651 201.102C232.646 201.175 232.627 201.246 232.594 201.311C232.562 201.376 232.517 201.434 232.462 201.482C232.407 201.53 232.343 201.567 232.273 201.59C232.204 201.613 232.131 201.622 232.058 201.617V201.606Z" fill="white"/>
<path d="M224.856 206.271H224.778L209.774 204.055C209.702 204.044 209.633 204.019 209.571 203.981C209.508 203.944 209.454 203.894 209.411 203.835C209.367 203.777 209.336 203.71 209.319 203.639C209.301 203.569 209.298 203.495 209.309 203.423C209.334 203.279 209.413 203.15 209.531 203.063C209.649 202.976 209.796 202.938 209.941 202.958L224.934 205.174C225.006 205.182 225.076 205.205 225.139 205.241C225.202 205.277 225.257 205.325 225.301 205.383C225.344 205.442 225.375 205.508 225.392 205.579C225.409 205.649 225.412 205.723 225.399 205.794C225.38 205.926 225.315 206.046 225.216 206.133C225.116 206.221 224.989 206.27 224.856 206.271Z" fill="white"/>
<path d="M260.902 205.872H260.813L238.728 202.614C238.584 202.59 238.455 202.51 238.368 202.393C238.281 202.275 238.244 202.128 238.263 201.983C238.272 201.91 238.296 201.84 238.333 201.777C238.371 201.714 238.42 201.659 238.479 201.615C238.538 201.572 238.605 201.541 238.677 201.524C238.748 201.507 238.822 201.505 238.894 201.517L260.979 204.786C261.123 204.808 261.252 204.886 261.339 205.002C261.426 205.118 261.464 205.263 261.445 205.407C261.424 205.536 261.358 205.654 261.258 205.739C261.159 205.824 261.033 205.871 260.902 205.872Z" fill="white"/>
<path d="M255.65 158.212H255.572L205.363 150.787C205.29 150.777 205.22 150.753 205.157 150.715C205.094 150.678 205.038 150.629 204.994 150.57C204.95 150.512 204.918 150.445 204.899 150.374C204.881 150.303 204.876 150.228 204.887 150.156C204.897 150.083 204.921 150.013 204.958 149.95C204.996 149.886 205.045 149.831 205.104 149.787C205.162 149.742 205.229 149.71 205.3 149.692C205.371 149.673 205.446 149.669 205.518 149.679L255.739 157.115C255.882 157.137 256.011 157.214 256.098 157.33C256.185 157.446 256.223 157.592 256.204 157.735C256.183 157.867 256.116 157.988 256.014 158.075C255.913 158.162 255.784 158.211 255.65 158.212Z" fill="white"/>
<path d="M225.93 159.94H225.841L204.476 156.782C204.33 156.76 204.198 156.682 204.109 156.563C204.02 156.445 203.981 156.297 204 156.15C204.024 156.006 204.104 155.877 204.222 155.79C204.339 155.703 204.486 155.666 204.631 155.685L226.007 158.843C226.154 158.853 226.291 158.922 226.387 159.033C226.484 159.144 226.533 159.289 226.522 159.436C226.512 159.583 226.444 159.72 226.333 159.816C226.221 159.913 226.076 159.962 225.93 159.951V159.94Z" fill="white"/>
<path d="M248.138 168.95H248.05L204.711 162.223C204.567 162.199 204.438 162.119 204.351 162.001C204.264 161.884 204.226 161.737 204.246 161.592C204.27 161.447 204.35 161.318 204.467 161.232C204.585 161.145 204.732 161.107 204.877 161.126L248.216 167.853C248.363 167.863 248.5 167.931 248.596 168.042C248.693 168.153 248.742 168.298 248.731 168.445C248.721 168.592 248.653 168.729 248.542 168.826C248.43 168.922 248.285 168.971 248.138 168.961V168.95Z" fill="white"/>
<path d="M254.763 164.206H254.685L232.601 160.882C232.529 160.872 232.46 160.849 232.398 160.812C232.335 160.776 232.281 160.727 232.237 160.669C232.194 160.612 232.163 160.546 232.145 160.476C232.128 160.406 232.124 160.333 232.135 160.261C232.154 160.116 232.231 159.984 232.347 159.895C232.463 159.805 232.61 159.766 232.756 159.785L254.852 163.054C254.999 163.066 255.135 163.135 255.231 163.247C255.326 163.36 255.373 163.505 255.361 163.652C255.35 163.799 255.28 163.935 255.168 164.031C255.056 164.127 254.91 164.174 254.763 164.162V164.206Z" fill="white"/>
<path d="M205.021 73.9392L275.942 84.4331C276.217 84.4738 276.481 84.5682 276.72 84.7111C276.958 84.854 277.166 85.0424 277.332 85.2658C277.498 85.4891 277.618 85.7429 277.685 86.0126C277.753 86.2823 277.766 86.5627 277.726 86.8378L275 105.233C274.917 105.786 274.62 106.284 274.171 106.619C273.722 106.953 273.16 107.096 272.606 107.017L211.925 98.0409L203.492 104.457L204.6 96.9328L201.675 96.5006C201.399 96.4614 201.134 96.3678 200.895 96.2253C200.655 96.0829 200.447 95.8944 200.281 95.6707C200.115 95.4471 199.995 95.1927 199.928 94.9224C199.861 94.6521 199.849 94.3712 199.891 94.096L202.606 75.7011C202.696 75.1487 203 74.654 203.452 74.3242C203.904 73.9944 204.468 73.8561 205.021 73.9392Z" fill="#2D54DE"/>
<path d="M274.999 105.787H274.922C274.778 105.765 274.649 105.688 274.562 105.572C274.475 105.456 274.437 105.31 274.456 105.166L277.182 86.7272C277.229 86.3331 277.122 85.9361 276.883 85.6191C276.638 85.2864 276.272 85.0635 275.864 84.9986L231.871 78.4717C231.798 78.4608 231.728 78.4356 231.665 78.3977C231.602 78.3598 231.547 78.3098 231.504 78.2506C231.46 78.1915 231.428 78.1243 231.41 78.0529C231.393 77.9815 231.389 77.9073 231.4 77.8345C231.411 77.7618 231.436 77.6919 231.474 77.6288C231.512 77.5658 231.562 77.5108 231.621 77.4671C231.68 77.4233 231.747 77.3917 231.819 77.3739C231.89 77.3562 231.964 77.3526 232.037 77.3636L276.074 83.8683C276.773 83.9756 277.402 84.3537 277.825 84.921C278.034 85.2026 278.185 85.523 278.269 85.8636C278.352 86.2042 278.367 86.5581 278.313 86.9045L275.598 105.299C275.578 105.441 275.506 105.571 275.395 105.661C275.284 105.752 275.142 105.797 274.999 105.787Z" fill="#0A2A43"/>
<path d="M264.757 89.0427H264.68L214.46 81.6072C214.316 81.5852 214.187 81.508 214.1 81.3919C214.013 81.2759 213.975 81.1304 213.994 80.9866C214.016 80.8404 214.095 80.7085 214.213 80.6194C214.331 80.5303 214.479 80.4911 214.626 80.5101L264.846 87.9457C264.989 87.9676 265.118 88.0449 265.205 88.1609C265.292 88.2769 265.331 88.4225 265.311 88.5662C265.29 88.6984 265.223 88.8188 265.122 88.9061C265.02 88.9933 264.891 89.0417 264.757 89.0427Z" fill="white"/>
<path d="M235.038 90.7716H234.95L213.585 87.6134C213.438 87.5928 213.305 87.5147 213.216 87.3963C213.127 87.2778 213.088 87.1287 213.108 86.9818C213.129 86.8348 213.207 86.7021 213.326 86.6127C213.444 86.5233 213.593 86.4847 213.74 86.5053L235.116 89.6634C235.263 89.6737 235.4 89.742 235.496 89.8531C235.593 89.9643 235.641 90.1093 235.631 90.2563C235.621 90.4032 235.553 90.5401 235.441 90.6367C235.33 90.7333 235.185 90.7818 235.038 90.7716Z" fill="white"/>
<path d="M257.245 99.7803H257.156L213.817 93.0539C213.673 93.0294 213.544 92.9498 213.457 92.832C213.37 92.7142 213.332 92.5674 213.352 92.4223C213.376 92.2781 213.456 92.1489 213.574 92.0621C213.691 91.9753 213.838 91.9376 213.983 91.9569L257.355 98.6832C257.5 98.7078 257.629 98.7873 257.716 98.9051C257.802 99.0229 257.84 99.1698 257.821 99.3149C257.801 99.451 257.731 99.5747 257.624 99.6611C257.517 99.7474 257.382 99.79 257.245 99.7803Z" fill="white"/>
<path d="M263.873 95.0378H263.795L241.71 91.7134C241.638 91.7054 241.568 91.6827 241.505 91.6467C241.442 91.6106 241.387 91.562 241.343 91.5039C241.3 91.4457 241.268 91.3793 241.252 91.3086C241.235 91.2379 241.232 91.1645 241.245 91.0929C241.264 90.9475 241.34 90.8157 241.457 90.7264C241.573 90.6371 241.72 90.5975 241.865 90.6164L264.006 93.9297C264.153 93.9414 264.289 94.0111 264.385 94.1233C264.48 94.2355 264.527 94.3811 264.516 94.528C264.504 94.675 264.434 94.8113 264.322 94.9069C264.21 95.0024 264.064 95.0496 263.917 95.0378H263.873Z" fill="white"/>
<path d="M273.104 124.404H273.027L222.806 116.979C222.659 116.957 222.527 116.878 222.439 116.758C222.35 116.639 222.313 116.489 222.335 116.342C222.357 116.195 222.437 116.063 222.556 115.975C222.676 115.886 222.825 115.849 222.972 115.871L273.193 123.296C273.336 123.317 273.465 123.395 273.552 123.511C273.639 123.627 273.677 123.772 273.658 123.916C273.64 124.05 273.573 124.173 273.472 124.263C273.37 124.352 273.24 124.402 273.104 124.404Z" fill="white"/>
<path d="M243.382 126.076H243.293L221.895 122.907C221.822 122.897 221.752 122.872 221.689 122.835C221.626 122.798 221.57 122.749 221.526 122.69C221.482 122.631 221.45 122.564 221.431 122.493C221.413 122.422 221.409 122.348 221.419 122.275C221.429 122.203 221.453 122.133 221.491 122.069C221.528 122.006 221.577 121.951 221.636 121.906C221.694 121.862 221.761 121.83 221.832 121.811C221.904 121.793 221.978 121.789 222.05 121.799L243.426 124.957C243.573 124.967 243.71 125.036 243.807 125.147C243.903 125.258 243.952 125.403 243.941 125.55C243.931 125.697 243.863 125.834 243.752 125.93C243.641 126.027 243.495 126.075 243.349 126.065L243.382 126.076Z" fill="white"/>
<path d="M236.181 130.73H236.092L221.099 128.513C220.952 128.493 220.82 128.415 220.73 128.296C220.641 128.178 220.602 128.029 220.623 127.882C220.643 127.735 220.722 127.602 220.84 127.513C220.958 127.423 221.108 127.385 221.255 127.405L236.259 129.621C236.331 129.632 236.4 129.657 236.462 129.695C236.525 129.732 236.579 129.782 236.622 129.841C236.666 129.899 236.697 129.966 236.714 130.037C236.732 130.108 236.735 130.181 236.724 130.253C236.708 130.385 236.643 130.507 236.543 130.595C236.443 130.683 236.314 130.731 236.181 130.73Z" fill="white"/>
<path d="M272.215 130.332H272.138L250.053 127.063C249.906 127.043 249.773 126.964 249.684 126.846C249.594 126.728 249.556 126.578 249.576 126.431C249.597 126.285 249.675 126.152 249.793 126.062C249.912 125.973 250.061 125.934 250.208 125.955L272.304 129.279C272.451 129.291 272.587 129.361 272.683 129.473C272.778 129.585 272.825 129.731 272.814 129.878C272.802 130.025 272.732 130.161 272.62 130.257C272.508 130.352 272.362 130.399 272.215 130.387V130.332Z" fill="white"/>
<path d="M171.001 259.107L57.2518 271.917C56.7303 271.981 56.201 271.942 55.6949 271.801C55.1887 271.659 54.7157 271.419 54.3033 271.093C53.8909 270.767 53.5473 270.362 53.2926 269.903C53.0378 269.443 52.8769 268.937 52.8193 268.415L44.597 195.533C44.5936 195.478 44.6111 195.424 44.646 195.38C44.6808 195.337 44.7306 195.309 44.7854 195.301L166.014 181.649C166.041 181.646 166.069 181.648 166.095 181.656C166.121 181.664 166.145 181.677 166.166 181.695C166.187 181.713 166.204 181.734 166.216 181.759C166.228 181.783 166.235 181.81 166.236 181.837L174.458 254.73C174.577 255.768 174.28 256.811 173.632 257.631C172.985 258.451 172.039 258.982 171.001 259.107Z" fill="#74FFC8"/>
<path d="M56.7863 272.504C55.6821 272.484 54.6231 272.062 53.8073 271.318C52.9915 270.573 52.4748 269.557 52.3538 268.46L44.1426 195.589C44.1302 195.49 44.1377 195.39 44.1645 195.294C44.1913 195.197 44.237 195.108 44.2989 195.029C44.3607 194.951 44.4375 194.885 44.5249 194.837C44.6122 194.789 44.7082 194.758 44.8074 194.747L166.036 181.084C166.238 181.062 166.439 181.121 166.597 181.248C166.755 181.374 166.856 181.559 166.879 181.76L175.09 254.663C175.162 255.253 175.115 255.851 174.951 256.422C174.787 256.994 174.51 257.526 174.137 257.988C173.393 258.923 172.309 259.525 171.123 259.661L57.3071 272.471C57.1344 272.494 56.9604 272.505 56.7863 272.504ZM45.2064 195.822L53.3843 268.349C53.4339 268.797 53.5714 269.23 53.7888 269.625C54.0063 270.019 54.2994 270.367 54.6515 270.648C55.0035 270.929 55.4076 271.138 55.8405 271.262C56.2733 271.387 56.7266 271.425 57.1741 271.374L170.923 258.553C171.368 258.509 171.8 258.375 172.192 258.16C172.585 257.945 172.929 257.652 173.206 257.301C173.485 256.951 173.692 256.55 173.815 256.12C173.939 255.691 173.977 255.241 173.926 254.796L165.748 182.236L45.2064 195.822Z" fill="#0A2A43"/>
<path opacity="0.29" d="M165.671 259.107L62.8146 271.917C60.5983 272.171 94.6843 228.478 94.4405 226.295L44.597 195.533C44.5936 195.478 44.6111 195.424 44.646 195.38C44.6808 195.337 44.7306 195.309 44.7854 195.301L166.014 181.649C166.041 181.646 166.069 181.648 166.095 181.656C166.121 181.664 166.145 181.677 166.166 181.695C166.187 181.713 166.204 181.734 166.216 181.759C166.228 181.783 166.235 181.81 166.236 181.837L124.77 222.838C125.047 225.043 167.843 258.863 165.671 259.107Z" fill="#0A2A43"/>
<path d="M44.8182 195.323L94.9498 145.746C96.403 144.306 98.2983 143.398 100.331 143.167C102.363 142.936 104.414 143.395 106.153 144.472L165.737 181.483C165.762 181.491 165.783 181.506 165.799 181.527C165.814 181.548 165.823 181.573 165.823 181.599C165.823 181.625 165.814 181.651 165.799 181.672C165.783 181.692 165.762 181.708 165.737 181.716L44.5966 195.323" fill="#74FFC8"/>
<path d="M44.6734 195.878L44.5847 195.069L44.4296 194.914L44.5515 194.792L94.5501 145.347C96.0879 143.816 98.0971 142.849 100.253 142.601C102.409 142.354 104.585 142.841 106.429 143.984L166.013 180.995C166.131 181.071 166.224 181.18 166.279 181.308C166.334 181.436 166.35 181.578 166.323 181.716C166.292 181.854 166.219 181.98 166.114 182.075C166.009 182.17 165.877 182.231 165.736 182.248L44.6734 195.878ZM101.354 143.641C99.0989 143.639 96.9351 144.532 95.3369 146.123L46.3466 194.581L164.395 181.284L105.853 144.937C104.504 144.093 102.945 143.644 101.354 143.641Z" fill="#0A2A43"/>
<path opacity="0.29" d="M44.8182 195.323L94.9498 145.746C96.403 144.306 98.2983 143.398 100.331 143.167C102.363 142.936 104.414 143.395 106.153 144.472L165.737 181.483C165.762 181.491 165.783 181.506 165.799 181.527C165.814 181.548 165.823 181.573 165.823 181.599C165.823 181.625 165.814 181.651 165.799 181.672C165.783 181.692 165.762 181.708 165.737 181.716L44.5966 195.323" fill="#0A2A43"/>
<path d="M100.489 218.65L62.8128 271.086L165.669 259.495L117.266 216.766C116.073 215.714 114.674 214.923 113.157 214.445C111.64 213.967 110.04 213.811 108.46 213.989C106.88 214.166 105.354 214.673 103.981 215.475C102.608 216.278 101.419 217.359 100.489 218.65Z" fill="#74FFC8"/>
<path d="M61.6298 271.784L100.004 218.328C100.982 216.972 102.233 215.837 103.677 214.995C105.121 214.153 106.725 213.623 108.386 213.439C110.048 213.255 111.729 213.422 113.322 213.928C114.915 214.434 116.384 215.269 117.635 216.378L166.979 259.938L61.6298 271.784ZM109.734 214.483C108.016 214.481 106.322 214.889 104.794 215.674C103.265 216.458 101.946 217.596 100.946 218.993L63.9901 270.388L164.364 259.085L116.903 217.176C114.922 215.432 112.373 214.471 109.734 214.472V214.483Z" fill="#0A2A43"/>
<path d="M50.9359 159.387L130.167 150.522C135.364 149.935 139.985 153.115 140.495 157.625L145.581 202.814L123.551 223.027L94.4631 226.351L65.6518 208.311L60.7096 164.517L50.9359 159.387Z" fill="white"/>
<path d="M94.308 226.871L65.1643 208.62L60.2331 164.86L52.6868 158.622L130.112 149.89C132.672 149.573 135.261 150.19 137.403 151.629C138.398 152.282 139.24 153.143 139.87 154.154C140.499 155.164 140.901 156.299 141.049 157.48L146.168 202.913L123.795 223.48L94.308 226.871ZM66.1948 207.978L94.5629 225.708L123.274 222.483L144.972 202.537L139.896 157.646C139.768 156.623 139.418 155.639 138.871 154.764C138.324 153.89 137.592 153.145 136.727 152.582C134.805 151.297 132.484 150.746 130.189 151.031L52.7533 159.763L61.2193 164.195L66.1948 207.978Z" fill="#0A2A43"/>
<path opacity="0.29" d="M100.489 214.162L62.8128 271.119L165.669 259.528L117.266 212.278C116.074 211.224 114.675 210.433 113.158 209.953C111.641 209.474 110.04 209.318 108.459 209.496C106.879 209.673 105.352 210.18 103.98 210.984C102.607 211.788 101.418 212.87 100.489 214.162Z" fill="#0A2A43"/>
<path d="M100.489 218.65L62.8128 271.086L165.669 259.495L117.266 216.766C116.073 215.714 114.674 214.923 113.157 214.445C111.64 213.967 110.04 213.811 108.46 213.989C106.88 214.166 105.354 214.673 103.981 215.475C102.608 216.278 101.419 217.359 100.489 218.65Z" fill="#74FFC8"/>
<path d="M61.6298 271.784L100.004 218.328C100.982 216.972 102.233 215.837 103.677 214.995C105.121 214.153 106.725 213.623 108.386 213.439C110.048 213.255 111.729 213.422 113.322 213.928C114.915 214.434 116.384 215.269 117.635 216.378L166.979 259.938L61.6298 271.784ZM109.734 214.483C108.016 214.481 106.322 214.889 104.794 215.674C103.265 216.458 101.946 217.596 100.946 218.993L63.9901 270.388L164.364 259.085L116.903 217.176C114.922 215.432 112.373 214.471 109.734 214.472V214.483Z" fill="#0A2A43"/>
<path opacity="0.35" d="M104.148 230.263L76.4444 268.759L151.985 260.249L116.437 228.866C115.561 228.098 114.535 227.522 113.424 227.174C112.312 226.826 111.14 226.714 109.983 226.845C108.826 226.977 107.709 227.349 106.704 227.937C105.699 228.526 104.828 229.318 104.148 230.263Z" fill="#F3F4F6"/>
<path d="M45.163 194.945L44.5769 195.885L94.1486 226.777L94.7347 225.837L45.163 194.945Z" fill="#0A2A43"/>
<path d="M165.861 181.341L124.416 222.498L125.196 223.284L166.642 182.127L165.861 181.341Z" fill="#0A2A43"/>
<path d="M62.9357 184.697L49.1063 186.259L46.89 166.535C46.6937 164.785 47.1995 163.029 48.2964 161.651C49.3932 160.274 50.9917 159.388 52.741 159.188L53.3726 159.11C55.124 158.914 56.8817 159.421 58.2594 160.52C59.637 161.62 60.5219 163.221 60.7195 164.972L62.9357 184.697Z" fill="#F3F4F6"/>
<path d="M48.6189 186.868L46.3361 166.589C46.2298 165.65 46.3097 164.699 46.5714 163.79C46.8331 162.882 47.2713 162.034 47.8611 161.295C48.4508 160.556 49.1805 159.94 50.0084 159.483C50.8362 159.027 51.746 158.738 52.6857 158.633L53.3062 158.566C54.2451 158.459 55.1961 158.537 56.1046 158.797C57.013 159.058 57.8612 159.495 58.6004 160.084C59.3395 160.673 59.9552 161.402 60.412 162.229C60.8689 163.056 61.1579 163.966 61.2626 164.905L63.5564 185.184L48.6189 186.868ZM54.1595 159.63H53.4724L52.8408 159.708C52.0465 159.796 51.2773 160.04 50.5775 160.426C49.8777 160.812 49.2609 161.333 48.7626 161.958C48.2644 162.582 47.8944 163.3 47.6738 164.068C47.4533 164.836 47.3866 165.64 47.4775 166.434L49.6937 185.616L62.3264 184.242L60.1655 165.071C59.9994 163.585 59.2918 162.212 58.1778 161.215C57.0638 160.217 55.6215 159.665 54.1263 159.664L54.1595 159.63Z" fill="#0A2A43"/>
<path d="M72.3012 174.424C72.1644 174.428 72.0313 174.379 71.9286 174.289C71.8259 174.199 71.7611 174.073 71.7471 173.937C71.7316 173.791 71.7741 173.646 71.8654 173.531C71.9567 173.417 72.0895 173.344 72.2347 173.327L129.636 166.856C129.782 166.84 129.929 166.882 130.045 166.973C130.161 167.064 130.237 167.197 130.256 167.343C130.272 167.489 130.229 167.634 130.138 167.748C130.047 167.863 129.914 167.936 129.769 167.953L72.3566 174.424H72.3012Z" fill="#0A2A43"/>
<path d="M74.5155 193.938C74.3685 193.946 74.2241 193.897 74.114 193.799C74.0038 193.701 73.937 193.564 73.9282 193.417C73.9194 193.27 73.9693 193.125 74.067 193.015C74.1646 192.905 74.3021 192.838 74.449 192.83L131.861 186.358C132.008 186.342 132.155 186.385 132.271 186.477C132.386 186.57 132.46 186.704 132.476 186.851C132.492 186.998 132.449 187.145 132.357 187.261C132.264 187.376 132.13 187.45 131.983 187.466L74.582 193.927L74.5155 193.938Z" fill="#0A2A43"/>
<path d="M73.4072 184.076C73.2603 184.084 73.1158 184.034 73.0057 183.937C72.8956 183.839 72.8287 183.702 72.8199 183.555C72.8111 183.408 72.861 183.263 72.9587 183.153C73.0563 183.043 73.1938 182.976 73.3407 182.967L98.1517 180.175C98.2986 180.159 98.446 180.202 98.5613 180.294C98.6766 180.387 98.7505 180.521 98.7667 180.668C98.7828 180.815 98.74 180.962 98.6475 181.078C98.555 181.193 98.4205 181.267 98.2736 181.283L73.4626 184.076H73.4072Z" fill="#0A2A43"/>
<path d="M104.714 180.541C104.579 180.542 104.449 180.492 104.348 180.402C104.248 180.312 104.185 180.188 104.171 180.053C104.155 179.908 104.198 179.762 104.289 179.648C104.38 179.534 104.513 179.461 104.658 179.444L130.766 176.485C130.912 176.473 131.058 176.518 131.172 176.611C131.285 176.704 131.358 176.838 131.375 176.984C131.391 177.129 131.348 177.275 131.257 177.389C131.166 177.503 131.033 177.577 130.888 177.593L104.78 180.53L104.714 180.541Z" fill="#0A2A43"/>
<path d="M75.7695 205.008C75.6353 205.007 75.5063 204.956 75.4064 204.867C75.3066 204.777 75.2427 204.654 75.2266 204.521C75.2173 204.449 75.2227 204.375 75.2424 204.305C75.2621 204.235 75.2957 204.17 75.3411 204.113C75.3866 204.056 75.4431 204.009 75.5072 203.974C75.5712 203.94 75.6416 203.918 75.7141 203.911L100.525 201.108C100.672 201.092 100.819 201.135 100.935 201.227C101.05 201.319 101.124 201.454 101.14 201.601C101.156 201.748 101.113 201.895 101.021 202.011C100.928 202.126 100.794 202.2 100.647 202.216L75.836 205.008H75.7695Z" fill="#0A2A43"/>
</svg>
