<svg width="379" height="379" viewBox="0 0 379 379" fill="none" xmlns="http://www.w3.org/2000/svg">
<g clip-path="url(#clip0_77_404)">
<path d="M367.426 184.769C373.565 216.05 386.006 279.449 356.234 321.86C303.03 397.649 120.7 394.395 40.8086 296.363C35.2293 289.516 -11.5648 230.206 2.68882 154.764C21.0551 57.5569 130.656 -12.7727 217.637 6.28557C272.665 18.3434 307.891 63.81 322.185 82.2834C328.273 90.1443 356.129 127.204 367.426 184.769Z" fill="#F4F7FA"/>
<path d="M77.3081 181.816L77.6231 182.055C83.8428 186.757 91.4719 190.8 100.892 193.507L106.513 194.702C109.164 190.683 110.967 186.383 105.732 183.264C97.6096 178.427 101.294 162.943 105.081 158.091C109.767 152.085 120.394 137.878 107.955 130.203C97.6005 123.813 89.6043 121.804 92.4767 107.136C95.349 92.4682 89.7163 81.4554 76.3594 79.0067C62.3023 76.4293 55.605 55.1913 42.7205 58.4862C20.2768 64.2285 30.1067 100.619 51.78 115.904C73.4532 131.189 57.5064 136.358 53.8623 148.037C48.8959 163.979 71.652 166.038 75.8284 173.844C77.2483 176.488 77.5684 179.233 77.3081 181.816Z" fill="#2D54DE"/>
<mask id="mask0_77_404" style="mask-type:luminance" maskUnits="userSpaceOnUse" x="29" y="58" width="85" height="140">
<path d="M74.4202 190.563L104.614 197.916C107.414 194.076 111.582 186.75 105.74 183.27C97.6174 178.434 101.302 162.95 105.089 158.098C109.774 152.092 120.402 137.884 107.963 130.209C97.6083 123.82 89.6121 121.81 92.4845 107.142C95.3568 92.4747 89.7163 81.4554 76.3594 79.0067C62.3023 76.4293 55.605 55.1913 42.7205 58.4862C20.2768 64.2285 30.1067 100.619 51.78 115.904C73.4532 131.189 57.5064 136.358 53.8623 148.037C48.8959 163.979 71.652 166.038 75.8284 173.844C79.1081 179.965 76.5325 186.622 74.4202 190.563Z" fill="white"/>
</mask>
<g mask="url(#mask0_77_404)">
<g style="mix-blend-mode:soft-light" opacity="0.5">
<path d="M89.793 189.283L90.4659 189.313C92.6706 140.199 70.9973 90.2573 33.9031 58.9762L33.4697 59.4961C70.4065 90.6395 91.9886 140.371 89.793 189.283Z" fill="#FCFDFE"/>
<path d="M88.6985 162.403L89.3493 162.565C94.015 143.815 113.726 133.191 113.925 133.083L113.61 132.489C113.411 132.595 93.4385 143.36 88.6985 162.403Z" fill="#FCFDFE"/>
<path d="M89.9518 180.237L90.6026 180.07C85.7286 161.094 51.7318 150.145 51.3895 150.036L51.1852 150.678C51.5262 150.784 85.1703 161.624 89.9518 180.237Z" fill="#FCFDFE"/>
<path d="M75.598 116.026L76.2618 115.916C73.6953 100.589 88.0348 81.5438 88.1806 81.354L87.6444 80.9459C87.4973 81.1396 72.9834 100.416 75.598 116.026Z" fill="#FCFDFE"/>
<path d="M60.233 88.8328L60.7132 88.3623C48.2946 75.7261 24.353 75.062 24.1096 75.0568L24.0953 75.7287C24.3347 75.7339 48.007 76.3942 60.233 88.8328Z" fill="#FCFDFE"/>
</g>
</g>
<mask id="mask1_77_404" style="mask-type:luminance" maskUnits="userSpaceOnUse" x="35" y="14" width="101" height="200">
<path d="M117.652 213.855L84.2631 213.742C84.2631 213.742 78.0357 196.615 86.2596 184.57C103.038 159.997 80.3158 147.036 71.6129 140.185C58.4877 129.854 51.4325 115.033 70.8047 108.657C90.177 102.28 70.8321 72.2636 47.2261 58.6305C24.1265 45.2899 34.5434 -3.41834 87.1953 20.8727C118.639 35.3793 113.593 68.7036 115.047 86.1437C116.5 103.584 142.458 105.111 133.501 126.374C125.851 144.538 111.388 157.751 122.349 170.294C133.31 182.836 134.406 196.859 117.652 213.855Z" fill="white"/>
</mask>
<g mask="url(#mask1_77_404)">
<path d="M117.652 213.855L84.2631 213.742C84.2631 213.742 78.0357 196.615 86.2596 184.57C103.038 159.997 80.3158 147.036 71.6129 140.185C58.4877 129.854 52.7326 116.544 68.5896 107.976C86.5277 98.2821 70.8321 72.2636 47.2261 58.6305C24.1265 45.2899 34.5434 -3.41834 87.1953 20.8727C118.639 35.3793 113.593 68.7036 115.047 86.1437C116.5 103.584 142.458 105.111 133.501 126.374C125.851 144.538 111.388 157.751 122.349 170.294C133.31 182.836 134.406 196.859 117.652 213.855Z" fill="#74FFC8"/>
<g style="mix-blend-mode:soft-light" opacity="0.5">
<path d="M103.192 216.9L102.498 216.77C102.579 216.341 110.45 173.401 105.401 128.483C100.751 87.1002 83.8623 35.5235 29.8204 24.8109L29.9505 24.1207C54.0146 28.8908 72.8363 42.0118 85.8978 63.1224C96.3329 79.9867 103.132 101.955 106.104 128.419C111.162 173.44 103.271 216.471 103.192 216.9Z" fill="#BEB8F2"/>
<path d="M90.9748 72.1804L90.2759 72.0907C93.2536 48.8499 84.4961 15.792 84.4076 15.4605L85.0883 15.2786C85.1768 15.6113 93.9708 48.8031 90.9748 72.1804Z" fill="#BEB8F2"/>
<path d="M81.8854 58.3562C58.2079 43.5066 36.0128 50.5161 35.7915 50.5889L35.5716 49.9209C35.7967 49.8468 58.2912 42.7293 82.2602 57.7558L81.8854 58.3562Z" fill="#BEB8F2"/>
<path d="M107.1 158.029C99.3341 124.813 54.159 116.52 53.7126 116.476L53.7348 115.773C54.1786 115.773 99.9497 124.351 107.787 157.869L107.1 158.029Z" fill="#BEB8F2"/>
<path d="M107.365 143.967L106.676 143.82C111.186 122.525 134.382 107.947 134.617 107.796L134.989 108.394C134.757 108.537 111.812 122.968 107.365 143.967Z" fill="#BEB8F2"/>
<path d="M103.587 209.987C102.615 197.066 84.1825 186.774 83.9963 186.672L84.336 186.054C85.1091 186.481 103.289 196.632 104.291 209.935L103.587 209.987Z" fill="#BEB8F2"/>
<path d="M105.589 199.843L104.894 199.723C106.656 189.629 121.98 178.43 127.019 174.75C127.729 174.23 128.344 173.781 128.437 173.679L128.958 174.149C128.828 174.294 128.42 174.594 127.429 175.318C122.453 178.956 107.302 190.029 105.589 199.843Z" fill="#BEB8F2"/>
</g>
</g>
<path d="M269.322 194.872C272.996 202.8 269.494 210.729 266.133 216.058C265.332 216.058 264.866 216.285 264.051 216.482C256.742 218.258 253.313 217.354 245.881 217.892C244.282 218.007 239.53 216.817 237.621 216.202L234.081 214.983C234.081 214.983 227.801 195.701 237.679 190.376C247.558 185.051 243.772 165.864 242.944 155.398C240.699 127.005 271.421 129.587 271.456 92.8699C271.465 83.1049 268.213 64.4781 276.457 56.7004C285.849 47.8387 292.707 56.5314 298.745 49.1216C308.184 37.5395 323.5 33.3855 332.632 45.3042C341.643 57.0682 330.694 80.4859 303.479 99.3076C285.473 115.025 285.192 119.723 286.614 131.176C287.606 139.2 295.27 160.101 284.366 168.447C273.461 176.792 265.119 185.811 269.322 194.872Z" fill="#77DDFF"/>
<mask id="mask2_77_404" style="mask-type:luminance" maskUnits="userSpaceOnUse" x="232" y="38" width="104" height="185">
<path d="M261.388 222.553L234.686 215.682C234.686 215.682 227.807 195.701 237.679 190.376C247.552 185.051 243.772 165.864 242.944 155.398C240.699 127.005 271.421 129.587 271.456 92.8699C271.465 83.1049 268.213 64.4781 276.456 56.7004C285.849 47.8387 292.707 56.5314 298.745 49.1216C308.184 37.5395 323.5 33.3855 332.631 45.3042C341.643 57.0682 330.694 80.4859 303.479 99.3076C285.473 115.025 285.192 119.723 286.614 131.176C287.606 139.2 295.27 160.101 284.365 168.447C273.461 176.792 265.127 185.811 269.328 194.872C275.713 208.66 261.388 222.553 261.388 222.553Z" fill="white"/>
</mask>
<g mask="url(#mask2_77_404)">
<g style="mix-blend-mode:soft-light" opacity="0.5">
<path d="M249.754 218.195L249.212 218.127C249.615 214.898 250.062 211.648 250.539 208.465C254.074 184.896 259.685 162.511 267.215 141.929C273.592 124.49 281.44 108.099 290.531 93.2118C297.841 81.2385 305.993 70.1698 314.762 60.3098C320.926 53.3796 327.329 47.1135 333.792 41.6883C334.918 40.7421 336.122 39.8374 337.288 38.9588C338.839 37.789 340.445 36.5894 341.877 35.2766L342.247 35.6795C340.796 37.0105 339.179 38.2232 337.616 39.3955C336.456 40.2664 335.258 41.1658 334.144 42.1016C327.702 47.5112 321.318 53.7578 315.171 60.6686C306.424 70.5038 298.291 81.5465 290.996 93.4925C281.925 108.349 274.096 124.707 267.728 142.114C260.21 162.66 254.609 185.005 251.079 208.541C250.603 211.727 250.157 214.976 249.754 218.195Z" fill="#FCFDFE"/>
<path d="M280.688 112.062L280.193 111.831C290.161 90.6136 281.409 51.4144 281.319 51.0205L281.851 50.8997C281.942 51.2948 290.736 90.6747 280.688 112.062Z" fill="#FCFDFE"/>
<path d="M258.013 173.857L257.493 173.685C262.578 158.478 291.093 146.733 291.379 146.616L291.586 147.122C291.3 147.237 263.019 158.884 258.013 173.857Z" fill="#FCFDFE"/>
<path d="M255.875 182.743L255.334 182.665C256.842 172.306 253.358 157.373 245.522 140.619C245.132 139.777 245.132 139.777 245.142 139.674L245.683 139.746L245.413 139.709L245.673 139.642C245.693 139.701 245.841 140.018 246.014 140.388C253.898 157.232 257.399 172.274 255.875 182.743Z" fill="#FCFDFE"/>
<path d="M250.573 212.313L250.077 212.084C254.939 201.627 271.551 197.499 271.724 197.458L271.855 197.989C271.688 198.029 255.323 202.096 250.573 212.313Z" fill="#FCFDFE"/>
<path d="M248.928 218.238C246.868 209.171 242.133 200.398 234.454 191.418L234.87 191.064C242.608 200.113 247.381 208.961 249.462 218.117L248.928 218.238Z" fill="#FCFDFE"/>
<path d="M310.102 66.5642L309.622 66.3043C315.822 54.817 319.669 41.3126 320.934 36.874C321.24 35.8004 321.348 35.4221 321.409 35.2974L321.901 35.5365C321.855 35.6327 321.681 36.2462 321.46 37.0234C320.192 41.4764 316.331 55.0237 310.102 66.5642Z" fill="#FCFDFE"/>
<path d="M297.254 83.7535L296.871 83.3635C305.604 74.7774 330.111 75.0529 331.149 75.0685L331.141 75.6144C330.889 75.6118 305.824 75.3285 297.254 83.7535Z" fill="#FCFDFE"/>
</g>
</g>
<mask id="mask3_77_404" style="mask-type:luminance" maskUnits="userSpaceOnUse" x="220" y="88" width="139" height="186">
<path d="M225.956 263.539L257.818 273.513C257.818 273.513 268.938 259.068 264.746 245.103C256.191 216.614 281.774 211.12 292.144 207.218C307.784 201.333 318.996 189.336 302.46 177.41C285.923 165.483 313.449 142.706 340.078 136.843C366.134 131.101 370.949 81.5269 313.41 88.7834C279.052 93.1168 273.766 126.41 267.098 142.593C260.429 158.776 235.226 152.395 237.327 175.368C239.12 194.994 248.91 211.953 234.663 220.599C220.416 229.245 215.132 242.28 225.956 263.539Z" fill="white"/>
</mask>
<g mask="url(#mask3_77_404)">
<path d="M225.956 263.539L257.818 273.513C257.818 273.513 268.938 259.068 264.746 245.103C256.191 216.614 281.774 211.12 292.144 207.218C307.784 201.333 317.298 190.384 304.778 177.429C290.611 162.772 313.449 142.711 340.078 136.843C366.134 131.101 370.949 81.5269 313.41 88.7834C279.052 93.1168 273.766 126.41 267.098 142.593C260.429 158.776 235.226 152.395 237.327 175.368C239.12 194.994 248.91 211.953 234.663 220.599C220.416 229.245 215.132 242.28 225.956 263.539Z" fill="#2D54DE"/>
<g style="mix-blend-mode:soft-light" opacity="0.5">
<path d="M238.82 270.809L239.518 270.896C239.572 270.463 245.068 227.155 263.478 185.862C280.439 147.821 312.153 103.757 366.907 109.863L366.986 109.164C342.61 106.446 320.697 113.271 301.856 129.449C286.804 142.372 273.673 161.262 262.828 185.589C244.378 226.977 238.873 270.376 238.82 270.809Z" fill="#BEB8F2"/>
<path d="M294.275 136.549L294.968 136.679C299.166 113.627 317.52 84.7594 317.705 84.4708L317.112 84.0913C316.925 84.3773 298.497 113.362 294.275 136.549Z" fill="#BEB8F2"/>
<path d="M307.124 126.114C334.195 119.112 353.223 132.494 353.412 132.631L353.823 132.059C353.632 131.921 334.344 118.345 306.948 125.43L307.124 126.114Z" fill="#BEB8F2"/>
<path d="M252.914 213.513C270.375 184.196 315.944 189.93 316.384 190.022L316.574 189.345C316.152 189.215 269.924 183.576 252.309 213.153L252.914 213.513Z" fill="#BEB8F2"/>
<path d="M256.919 200.029L257.62 200.098C259.768 178.438 242.072 157.531 241.894 157.322L241.357 157.781C241.534 157.986 259.036 178.669 256.919 200.029Z" fill="#BEB8F2"/>
<path d="M240.534 264.099C245.372 252.075 266.059 247.831 266.267 247.79L266.129 247.1C265.264 247.271 244.861 251.458 239.88 263.837L240.534 264.099Z" fill="#BEB8F2"/>
<path d="M241.697 253.826L242.396 253.921C243.773 243.767 232.556 228.465 228.87 223.438C228.349 222.727 227.899 222.113 227.84 221.989L227.197 222.277C227.278 222.455 227.576 222.863 228.301 223.854C231.945 228.825 243.036 243.961 241.697 253.826Z" fill="#BEB8F2"/>
</g>
</g>
<path d="M270.086 14.5637V341.215C270.086 346.099 265.908 347.151 261.17 347.306L98.7601 355.694L96.2991 355.775C95.1052 355.817 93.9151 355.619 92.8 355.19C91.685 354.762 90.668 354.114 89.8102 353.283C88.9523 352.453 88.2713 351.458 87.8078 350.359C87.3444 349.259 87.1082 348.077 87.1133 346.884V8.89413C87.108 7.70112 87.3441 6.51933 87.8075 5.41972C88.2708 4.3201 88.9519 3.32534 89.8099 2.49514C90.6678 1.66494 91.6848 1.01643 92.7999 0.588542C93.915 0.160653 95.1052 -0.0377932 96.2991 0.00512061L99.6386 0.114299L262.643 12.7752C267.375 12.9299 270.086 9.67918 270.086 14.5637Z" fill="#0A2A43"/>
<path d="M275.139 14.5637V341.215C275.139 346.099 271.269 350.222 266.53 350.378L101.353 355.775C100.159 355.817 98.9684 355.619 97.8532 355.191C96.738 354.763 95.7209 354.114 94.8629 353.284C94.0049 352.454 93.3237 351.459 92.8602 350.359C92.3967 349.259 92.1605 348.078 92.1656 346.884V8.89418C92.1603 7.70105 92.3964 6.51915 92.8599 5.41945C93.3233 4.31974 94.0045 3.32492 94.8626 2.4947C95.7206 1.66448 96.7378 1.016 97.8531 0.588196C98.9684 0.160387 100.159 -0.0379255 101.353 0.0051675L266.53 5.40174C271.269 5.55641 275.139 9.67923 275.139 14.5637Z" fill="#0A2A43"/>
<path d="M269.793 32.521V335.124C269.793 339.685 266.176 343.53 261.749 343.669L106.428 348.542C105.316 348.579 104.208 348.392 103.169 347.992C102.131 347.591 101.184 346.986 100.386 346.212C99.5877 345.437 98.954 344.51 98.523 343.485C98.092 342.46 97.8725 341.359 97.8777 340.248V27.7873C97.8725 26.6747 98.0917 25.5725 98.5224 24.5463C98.953 23.5202 99.5863 22.5912 100.384 21.8148C101.182 21.0385 102.129 20.4306 103.167 20.0276C104.206 19.6245 105.315 19.4345 106.428 19.4689L261.749 23.9921C266.181 24.1246 269.793 27.9615 269.793 32.521Z" fill="#2D54DE"/>
<path d="M188.281 12.8649C188.287 13.2671 188.212 13.6663 188.059 14.0385C187.907 14.4107 187.68 14.7482 187.394 15.0307C187.107 15.3132 186.766 15.5348 186.392 15.6822C186.017 15.8296 185.616 15.8996 185.214 15.8882C183.522 15.8375 182.142 14.3987 182.142 12.6752C182.136 12.2727 182.212 11.8732 182.364 11.5007C182.517 11.1282 182.744 10.7905 183.031 10.5079C183.318 10.2254 183.659 10.0039 184.034 9.85676C184.41 9.70964 184.811 9.63997 185.214 9.65196C186.908 9.71045 188.281 11.148 188.281 12.8649Z" fill="#DE8BDF"/>
<path d="M245.69 216.287L121.644 217.948C121.272 217.954 120.903 217.886 120.558 217.748C120.213 217.61 119.899 217.404 119.635 217.143C119.37 216.883 119.16 216.572 119.017 216.229C118.875 215.887 118.802 215.519 118.803 215.148V188.021C118.803 187.266 119.101 186.542 119.633 186.007C120.166 185.471 120.888 185.167 121.644 185.161L245.69 184.323C246.048 184.325 246.402 184.398 246.732 184.537C247.062 184.676 247.361 184.879 247.612 185.135C247.863 185.39 248.061 185.693 248.194 186.025C248.327 186.357 248.393 186.712 248.388 187.069V213.486C248.388 215.013 247.18 216.267 245.69 216.287Z" fill="#F4F7FA"/>
<path d="M245.409 266.254L121.94 269.189C121.531 269.201 121.124 269.13 120.743 268.981C120.362 268.832 120.015 268.608 119.722 268.323C119.429 268.037 119.197 267.696 119.039 267.319C118.881 266.942 118.801 266.537 118.803 266.128V239.594C118.806 238.758 119.135 237.957 119.722 237.362C120.308 236.766 121.104 236.423 121.94 236.405L245.409 234.291C247.054 234.262 248.388 235.606 248.388 237.292V263.13C248.388 264.817 247.05 266.215 245.409 266.254Z" fill="#F4F7FA"/>
<path d="M233.165 103.269C233.165 130.498 211.478 152.573 184.456 152.578C157.125 152.578 134.753 130.064 134.753 102.278C134.753 74.4914 157.131 52.4255 184.456 52.9792C211.478 53.5303 233.165 76.042 233.165 103.269Z" fill="white"/>
<path d="M204.539 88.0231C204.539 99.2412 195.569 108.252 184.469 108.148C173.327 108.044 164.265 98.8045 164.265 87.511C164.265 76.2174 173.327 67.2075 184.469 67.3869C195.569 67.565 204.539 76.8036 204.539 88.0231Z" fill="#0A2A43"/>
<path d="M184.456 152.578C195.915 152.595 207.004 148.532 215.733 141.118C212.862 126.287 199.992 115.006 184.456 114.889C168.819 114.771 155.715 125.986 152.772 140.98C161.399 148.229 172.451 152.579 184.456 152.578Z" fill="#0A2A43"/>
<path d="M201.53 204.749L133.829 205.488C133.281 205.493 132.737 205.389 132.228 205.182C131.72 204.976 131.258 204.671 130.869 204.285C130.479 203.899 130.17 203.44 129.959 202.934C129.748 202.429 129.64 201.886 129.64 201.338C129.644 200.225 130.085 199.158 130.868 198.366C131.652 197.574 132.715 197.12 133.829 197.102L201.53 196.48C203.769 196.46 205.598 198.299 205.598 200.575C205.598 202.845 203.769 204.724 201.53 204.749Z" fill="#0A2A43"/>
<path d="M139.769 252.36C139.767 253.785 139.208 255.152 138.211 256.171C137.215 257.191 135.859 257.782 134.433 257.819C133.736 257.835 133.042 257.712 132.394 257.456C131.745 257.199 131.155 256.816 130.657 256.328C130.159 255.84 129.765 255.257 129.497 254.613C129.229 253.97 129.093 253.28 129.097 252.583C129.1 251.159 129.659 249.792 130.656 248.772C131.652 247.753 133.007 247.162 134.433 247.124C135.131 247.108 135.824 247.232 136.473 247.488C137.121 247.744 137.712 248.127 138.209 248.616C138.707 249.104 139.101 249.687 139.369 250.33C139.637 250.973 139.773 251.663 139.769 252.36Z" fill="#0A2A43"/>
<path d="M159.731 251.952C159.731 254.889 157.365 257.321 154.444 257.383C153.751 257.399 153.061 257.275 152.416 257.02C151.771 256.764 151.184 256.381 150.69 255.895C150.196 255.409 149.805 254.828 149.54 254.188C149.274 253.547 149.141 252.86 149.146 252.168C149.147 250.751 149.702 249.392 150.691 248.377C151.68 247.363 153.027 246.774 154.444 246.736C155.137 246.722 155.825 246.847 156.469 247.104C157.112 247.36 157.698 247.743 158.191 248.229C158.683 248.715 159.074 249.295 159.338 249.935C159.603 250.574 159.736 251.26 159.731 251.952Z" fill="#0A2A43"/>
<path d="M179.53 251.548C179.53 254.472 177.188 256.893 174.287 256.956C173.597 256.97 172.911 256.845 172.271 256.59C171.63 256.334 171.047 255.952 170.557 255.467C170.067 254.982 169.679 254.404 169.417 253.767C169.155 253.129 169.024 252.446 169.031 251.757C169.031 248.825 171.386 246.403 174.287 246.347C174.976 246.335 175.66 246.461 176.299 246.717C176.939 246.974 177.52 247.356 178.009 247.841C178.498 248.325 178.884 248.903 179.146 249.54C179.407 250.177 179.538 250.859 179.53 251.548Z" fill="#0A2A43"/>
<path d="M199.172 251.146C199.172 254.059 196.843 256.475 193.966 256.533C191.088 256.592 188.754 254.278 188.754 251.359C188.754 248.44 191.088 246.03 193.966 245.972C196.843 245.913 199.172 248.233 199.172 251.146Z" fill="#0A2A43"/>
<path d="M218.655 250.748C218.655 253.649 216.346 256.051 213.494 256.112C210.643 256.173 208.324 253.866 208.324 250.959C208.324 248.051 210.64 245.649 213.494 245.593C216.348 245.538 218.655 247.846 218.655 250.748Z" fill="#0A2A43"/>
<path d="M184.45 153.787C170.896 153.787 158.129 148.429 148.498 138.699C138.867 128.969 133.544 116.024 133.544 102.28C133.544 88.4208 138.932 75.5156 148.715 65.9416C158.329 56.5327 171.028 51.4987 184.481 51.7743C197.859 52.0446 210.407 57.553 219.816 67.2816C229.178 76.925 234.403 89.837 234.376 103.269C234.376 116.771 229.202 129.454 219.808 138.981C210.394 148.525 197.839 153.784 184.457 153.787H184.45ZM183.445 54.1814C171.017 54.1814 159.321 58.9476 150.41 67.6677C141.095 76.7828 135.964 89.0759 135.964 102.28C135.964 115.383 141.026 127.714 150.219 136.999C159.391 146.265 171.548 151.369 184.447 151.369C210.639 151.369 231.95 129.793 231.95 103.269C231.95 76.7451 210.635 54.7169 184.431 54.197C184.102 54.184 183.772 54.1814 183.444 54.1814H183.445Z" fill="white"/>
<g style="mix-blend-mode:multiply" opacity="0.3">
<path d="M275.139 14.3778C275.139 12.0466 274.232 9.80667 272.609 8.13107C270.986 6.45547 268.775 5.4754 266.442 5.39784L176.365 2.4552C209.776 37.8163 217.289 67.4844 218.142 87.7579C220.589 145.628 170.67 170.841 179.952 234.128C182.496 251.477 188.124 262.375 190.322 292.346C191.795 312.557 191.112 332.867 188.285 352.933L266.529 350.377C271.268 350.222 275.138 346.099 275.138 341.215L275.139 14.3778Z" fill="#0A2A43"/>
</g>
<g style="mix-blend-mode:multiply" opacity="0.3">
<path d="M141.77 177.414C142.72 149.538 133.155 137.884 130.621 135.03C128.83 133.014 127.172 131.586 114.795 121.383C105.601 113.801 97.9376 107.517 92.4975 103.064L92.1656 337.335C95.8709 307.361 102.994 284.756 108.412 270.322C123.58 229.909 140.551 213.175 141.77 177.414Z" fill="#0A2A43"/>
</g>
<path d="M300.793 288.399C306.21 285.131 303.939 267.811 295.977 255.881C284.671 238.939 261.003 231.534 256.413 236.877C251.71 242.345 266.564 261.658 268.972 264.795C277.716 276.175 294.384 292.266 300.793 288.399Z" fill="url(#paint0_linear_77_404)"/>
<path d="M362.31 360.037C361.382 361.263 361.334 363.376 362.32 364.326C363.307 365.276 364.547 364.383 368.307 364.161C372.342 363.923 373.473 364.778 376.138 363.782C377.214 363.379 379.099 362.467 378.991 361.683C378.915 361.131 377.898 360.933 374.484 360.124C369.637 358.968 369.65 358.88 368.636 358.803C366.093 358.609 363.531 358.416 362.31 360.037Z" fill="url(#paint1_linear_77_404)"/>
<path d="M362.229 353.4L366.464 359.007C366.446 359.397 364.933 361.24 363.012 361.137L357.924 356.055L362.229 353.4Z" fill="#FA9B4D"/>
<path d="M340.436 374.313C339.533 375.56 339.525 377.672 340.537 378.602C341.548 379.533 342.763 378.613 346.523 378.311C350.549 377.989 351.701 378.819 354.344 377.768C355.412 377.343 357.276 376.391 357.152 375.609C357.066 375.059 356.044 374.884 352.613 374.141C347.744 373.087 347.756 372.999 346.739 372.944C344.188 372.807 341.627 372.666 340.436 374.313Z" fill="url(#paint2_linear_77_404)"/>
<path d="M340.272 367.807L344.506 373.414C344.488 373.804 342.976 375.647 341.053 375.543L335.967 370.461L340.272 367.807Z" fill="#FA9B4D"/>
<path d="M212.074 239.659C221.072 236.204 230.577 234.251 240.209 233.879C253.812 233.373 264.737 232.969 272.521 239.105C298.42 259.531 285.724 313.357 283.851 319.345C281.626 326.467 277.392 331.303 277.392 331.303C275.53 333.418 273.384 335.266 271.015 336.793C251.535 349.661 239.425 357.668 226.635 354.398C224.934 353.963 217.204 351.279 212.937 344.862C212.176 343.717 211.701 342.249 211.58 340.2C209.591 306.318 213.592 272.295 212.074 239.659Z" fill="url(#paint3_linear_77_404)"/>
<path style="mix-blend-mode:multiply" opacity="0.3" d="M223.244 280.045C220.641 272.951 223.331 264.827 217.543 261.284C215.422 259.984 212.786 259.437 209.917 259.501C210.272 284.442 210.776 309.359 211.395 335.387C211.599 343.985 212.677 344.41 221.026 351.939C230.698 360.664 238.658 357.85 252.947 354.988C234.225 343.502 229.57 337.256 231.473 327.044C233.694 315.156 255.489 311.636 254.608 303.185C253.677 294.234 228.925 295.553 223.244 280.045Z" fill="url(#paint4_linear_77_404)"/>
<path d="M218.048 240.11C211.618 236.522 196.834 246.727 188.75 255.526C184.994 259.615 171.918 273.853 175.985 292.17C176.647 295.159 179.707 309.112 193.326 315.497C205.518 321.216 221.61 319.024 234.224 309.812C235.939 308.332 237.655 306.853 239.371 305.374L244.401 300.1C240.102 297.138 235.303 294.976 230.234 293.719C220.181 291.202 215.657 294.728 213.173 291.995C210.114 288.63 216.933 282.827 218.72 268.013C219.199 264.015 225.232 244.117 218.048 240.11Z" fill="url(#paint5_linear_77_404)"/>
<path d="M229.724 350.307C230.515 364.422 235.829 356.604 247.858 343.938C260.527 330.6 290.333 307.155 310.228 316.106C325.045 322.773 323.607 342.491 347.295 354.866C350.516 356.548 353.888 357.923 357.366 358.976L365.064 351.865C363.687 344.494 357.54 316.382 331.84 298.671C325.626 294.382 313.768 286.138 298.774 286.33C258.243 286.853 228.994 337.283 229.724 350.307Z" fill="url(#paint6_linear_77_404)"/>
<path d="M211.048 343.758C211.217 351.972 216.587 359.5 222.631 363.175C236.06 371.335 256.172 362.526 267.436 353.529C281.143 342.576 281.138 331.844 288.142 331.897C299.025 331.979 300.923 357.969 325.209 370.657C328.43 372.338 331.802 373.714 335.28 374.767L342.978 367.656C338.765 351.74 332.245 340.175 327.437 332.977C321.439 324 315.666 315.359 304.486 309.095C292.714 302.5 281.467 302.195 276.688 302.121C246.549 301.652 210.609 322.336 211.048 343.758Z" fill="url(#paint7_linear_77_404)"/>
<path d="M292.88 294.425L218.256 307.864L239.911 313.531L294.02 299.232L292.88 294.425Z" fill="#0A2A43"/>
<path d="M216.018 310.352C216.151 311.031 216.49 311.653 216.989 312.132C217.488 312.612 218.123 312.927 218.807 313.034L244.407 317.693L243.25 311.219L218.262 307.863C217.938 307.834 217.611 307.881 217.309 308C217.006 308.119 216.735 308.306 216.517 308.548C216.299 308.789 216.141 309.078 216.054 309.391C215.968 309.704 215.955 310.033 216.018 310.352Z" fill="#0A2A43"/>
<path d="M228.008 304.503C227.531 304.49 229.167 298.631 231.392 298.835C233.618 299.039 245.081 302.985 246.497 305.256L247.914 307.527C247.914 307.527 243.489 308.755 240.524 308.365C237.56 307.975 231.883 304.605 228.008 304.503Z" fill="url(#paint8_linear_77_404)"/>
<path d="M240.963 264.713L239.326 313.573C239.269 315.263 241.799 317.572 243.479 317.364L321.288 306.632C321.91 306.555 322.486 306.269 322.923 305.819C323.359 305.37 323.628 304.786 323.687 304.163L329.934 256.618C330.096 254.892 326.897 253.368 325.17 253.545L243.424 262.07C242.763 262.139 242.15 262.445 241.698 262.931C241.245 263.417 240.984 264.05 240.963 264.713Z" fill="url(#paint9_linear_77_404)"/>
<path d="M242.858 265.99L241.219 314.851C241.206 315.247 241.279 315.642 241.434 316.008C241.588 316.373 241.819 316.701 242.113 316.969C242.406 317.236 242.754 317.437 243.132 317.558C243.511 317.679 243.911 317.716 244.305 317.667L323.186 307.909C323.807 307.832 324.384 307.545 324.821 307.096C325.257 306.647 325.526 306.062 325.584 305.439L330.083 257.815C330.121 257.41 330.069 257.002 329.931 256.62C329.792 256.238 329.57 255.892 329.281 255.606C328.992 255.32 328.643 255.102 328.259 254.967C327.875 254.832 327.466 254.784 327.061 254.825L245.315 263.351C244.655 263.42 244.043 263.726 243.592 264.211C243.14 264.696 242.879 265.328 242.858 265.99Z" fill="#0A2A43"/>
<g style="mix-blend-mode:multiply" opacity="0.3">
<path d="M292.114 298.851C284.979 296.45 286.993 290.684 278.302 284.353C266.835 275.998 256.162 280.81 251.778 273.993C250.413 271.87 249.579 268.469 251.238 262.734L245.319 263.352C244.659 263.421 244.046 263.726 243.594 264.211C243.141 264.696 242.88 265.328 242.858 265.99L241.219 314.851C241.206 315.247 241.279 315.642 241.434 316.008C241.588 316.373 241.819 316.701 242.113 316.969C242.406 317.236 242.754 317.438 243.132 317.558C243.511 317.679 243.911 317.716 244.305 317.667L323.186 307.909C323.807 307.832 324.384 307.545 324.821 307.096C325.257 306.647 325.526 306.062 325.584 305.439L326.206 298.866C323.401 297.557 320.41 296.689 317.339 296.294C305.543 294.829 300.328 301.614 292.114 298.851Z" fill="#0A2A43"/>
</g>
<path d="M240.783 215.271C240.977 219.217 240.772 223.172 240.172 227.077C239.68 230.233 239.271 231.06 238.74 231.738C238.74 231.738 238.57 231.953 238.377 232.145C237.885 232.635 231.698 233.835 229.876 234.263C229.683 234.309 226.112 235.173 225.088 237.093C225.069 237.127 225.056 237.163 225.05 237.201C224.697 239.118 235.663 245.197 246.684 243.221C253.428 242.013 259.453 237.92 258.997 235.904C258.542 233.888 251.808 235.225 249.652 231.607C248.151 229.09 249.589 225.384 251.336 222.293C249.403 218.989 242.712 218.575 240.783 215.271Z" fill="url(#paint10_linear_77_404)"/>
<path d="M255.249 221.144C259.558 219.895 262.338 205.074 258.712 203.283C256.979 202.425 255.694 205.492 248.784 208.24C243.252 210.438 240.915 209.728 239.384 212.152C237.872 214.546 238.801 218.014 239.278 220.47C239.485 221.538 240.176 222.041 240.721 222.934C241.477 224.171 242.654 226.134 244.562 229.402C245.016 228.473 245.55 227.584 246.157 226.746C246.43 226.373 247.516 224.917 250.725 222.739C252.776 221.345 254.759 221.287 255.249 221.144Z" fill="url(#paint11_linear_77_404)"/>
<path d="M241.491 226.332C241.491 226.332 243.267 231.505 248.886 232.367C253.918 233.139 257.101 222.19 254.454 219.133C253.57 218.114 251.526 217.321 249.698 217.423C248.618 217.484 248.181 217.829 246.416 217.893C244.787 217.953 244.39 217.686 243.838 217.974C243.148 218.335 242.457 219.44 242.71 222.901C241.974 221.731 240.92 221.118 240.031 221.319C239.722 221.408 239.444 221.58 239.228 221.817C238.255 222.932 239.056 224.809 241.491 226.332Z" fill="url(#paint12_linear_77_404)"/>
<path d="M243.76 217.26C243.96 217.491 243.032 218.221 242.698 219.47C242.047 221.895 243.882 225.381 246.359 226.189C247.823 226.666 248.435 225.857 250.966 226.141C252.2 226.283 253.403 226.622 254.529 227.145C254.713 230.004 253.389 232.519 251.317 233.364C249.087 234.274 246.794 232.918 245.836 232.352C245.194 231.972 243.139 230.761 242.43 228.476C241.691 226.096 243.156 225.082 242.089 223.347C241.55 222.471 240.703 221.956 240.118 220.357C239.993 220.015 239.894 219.664 239.823 219.306C241.403 218.24 243.471 216.926 243.76 217.26Z" fill="url(#paint13_linear_77_404)"/>
<path d="M252.516 227.745C252.516 227.745 251.321 228.068 249.493 227.555C249.404 227.531 249.299 227.535 249.277 227.579C249.196 227.745 250.209 228.793 251.371 228.728C252.196 228.68 252.964 228.078 252.9 227.87C252.866 227.78 252.689 227.752 252.516 227.745Z" fill="url(#paint14_linear_77_404)"/>
<path d="M6.18194 169.046C4.11392 162.979 5.56245 156.004 8.75493 151.129C14.1482 142.892 21.1774 145.754 28.2183 136.62C32.7734 130.711 36.9173 125.664 41.9747 121.884C45.6943 119.104 54.4974 115.955 57.9372 118.141C68.2265 124.683 49.3475 180.38 28.5319 183.55C20.2052 184.822 9.29114 178.165 6.18194 169.046Z" fill="url(#paint15_linear_77_404)"/>
<path d="M45.667 344.93C46.412 346.508 46.864 348.209 47.001 349.949C47.0652 350.788 47.0543 351.631 46.9685 352.468C46.3646 353.357 43.5404 356.41 39.7271 357.169C37.3676 357.636 33.5439 355.638 37.8765 352.935C42.209 350.231 42.8558 349.581 41.583 342.667C41.255 340.889 41.3839 340.237 41.6637 340.113C42.317 339.818 44.1768 342.544 45.667 344.93Z" fill="url(#paint16_linear_77_404)"/>
<path d="M65.6483 350.208C66.3932 351.787 66.8452 353.488 66.9823 355.227C67.0466 356.066 67.0357 356.909 66.9498 357.746C66.3459 358.635 63.5218 361.689 59.7085 362.442C57.3489 362.909 53.5252 360.911 57.8578 358.208C62.1904 355.504 62.8372 354.853 61.5643 347.94C61.2364 346.162 61.3652 345.511 61.645 345.386C62.2984 345.096 64.1582 347.823 65.6483 350.208Z" fill="url(#paint17_linear_77_404)"/>
<path d="M86.4288 205.829C87.8621 214.541 89.2937 223.254 90.7236 231.965C87.3704 240.769 84.5233 249.757 82.1964 258.885C73.2697 293.916 67.7086 327.656 67.2947 351.825L61.3978 353.955C57.876 340.674 58.9393 320.592 55.8015 296.91C52.1027 268.932 54.6185 247.059 53.3287 246.983C52.0949 246.909 48.6369 266.933 48.6317 289.799C48.6252 313.975 45.8401 333.433 47.6348 347.406L40.5705 347.827C34.0475 329.349 31.1999 307.337 27.8968 278.229C25.6037 258.015 22.8979 231.162 36.4201 203.457C37.7697 200.691 42.4836 194.549 43.3673 193.031C58.882 196 70.9219 202.867 86.4288 205.829Z" fill="url(#paint18_linear_77_404)"/>
<path style="mix-blend-mode:multiply" opacity="0.25" d="M82.199 258.885C84.5259 249.757 87.373 240.769 90.7262 231.965C89.2929 223.253 87.8613 214.541 86.4314 205.829C70.9219 202.867 58.882 196 43.3712 193.031C42.4875 194.549 37.7749 200.691 36.424 203.457C31.8689 212.797 29.1567 222.043 27.6483 230.962C57.6483 230.635 66.3303 236.873 68.7211 242.623C72.5253 251.779 60.954 261.062 65.0484 279.59C66.2795 285.162 68.1185 287.908 68.3346 294.888C68.617 304.047 65.6236 304.935 65.1551 314.254C64.6423 324.449 61.1062 334.413 62.7643 341.64C63.5946 345.262 64.6517 348.828 65.9295 352.317L67.2908 351.826C67.7085 327.656 73.2697 293.916 82.199 258.885Z" fill="url(#paint19_linear_77_404)"/>
<path d="M73.5742 84.9297C74.536 86.2138 73.107 87.936 72.822 94.206C72.7168 96.5355 72.7956 98.8698 73.0576 101.187C73.1122 102.732 73.2007 104.165 73.3179 105.431C73.4064 106.36 73.5014 107.085 73.6354 107.859C73.8827 109.29 74.235 110.702 74.6896 112.081C74.704 112.125 74.7016 112.172 74.6828 112.214C74.664 112.255 74.6302 112.288 74.5881 112.306L74.5725 112.313C74.5262 112.328 74.476 112.324 74.4326 112.302C74.3893 112.28 74.3563 112.242 74.3408 112.196C73.8811 110.799 73.5244 109.37 73.2736 107.921C73.1435 107.141 73.0432 106.404 72.9534 105.466C72.8897 104.799 72.8363 104.083 72.7908 103.333C72.5144 105.699 72.6688 108.096 73.2463 110.407C75.382 119.255 68.505 125.079 63.0858 125.314C56.8387 125.583 52.5973 120.635 51.2867 119.018C46.0054 112.494 44.9889 101.862 49.9566 94.0838C56.4652 83.8964 71.2225 81.783 73.5742 84.9297Z" fill="#0A2A43"/>
<path d="M57.768 93.4495C58.0361 92.4604 59.2451 88.4273 62.9413 85.8992C69.9536 81.1031 81.1943 84.9517 87.6391 90.6004C94.382 96.5104 91.5774 100.599 98.207 107.163C105.407 114.291 110.459 111.178 120.462 118.064C124.399 120.772 135.007 128.072 135.716 139.458C136.328 149.297 129.361 159.151 120.836 162.951C106.24 169.46 87.9606 157.838 79.3371 147.149C71.065 136.898 76.6457 134.389 64.8909 114.591C60.6377 107.431 55.7702 100.839 57.768 93.4495Z" fill="#0A2A43"/>
<path d="M47.2496 122.147C41.9136 127.537 40.482 134.017 40.0629 136.913C38.7614 145.923 42.2988 153.273 43.1317 155.203C47.0635 164.325 45.6149 182.303 22.6988 221.018C24.8774 222.831 32.3882 236.255 35.9412 229.817C40.7852 221.041 62.7591 159.287 41.5661 232.468C41.2863 233.433 43.4467 233.239 44.4293 233.604C52.4483 236.621 60.9596 238.119 69.528 238.024C84.582 237.836 96.0531 232.741 102.118 229.465C96.8676 217.272 93.412 204.385 91.8585 191.204C88.3445 161.2 95.6561 137.004 100.751 123.955C96.1052 120.747 81.3895 111.458 63.9773 114.467C59.6395 115.205 52.8719 116.468 47.2496 122.147Z" fill="url(#paint20_linear_77_404)"/>
<path style="mix-blend-mode:multiply" opacity="0.3" d="M91.8546 191.201C88.3406 161.198 95.6522 137.002 100.747 123.952C96.1012 120.744 81.3856 111.455 63.9734 114.464C59.6343 115.211 52.8654 116.475 47.2496 122.153C43.0055 126.442 41.2329 131.422 40.4742 134.736C40.6043 134.714 40.7839 134.686 40.9947 134.656C51.7175 133.177 64.1022 141.793 68.3359 149.943C75.4015 163.544 59.1475 174.657 59.5549 196.214C59.7748 207.867 64.8453 221.644 80.3483 237.027C87.9642 235.698 95.3139 233.145 102.111 229.467C96.8617 217.273 93.407 204.384 91.8546 191.201Z" fill="url(#paint21_linear_77_404)"/>
<path d="M68.0443 103.667C66.5164 106.763 65.2267 110.636 66.9081 113.234C67.9337 114.817 69.6295 115.704 71.3045 116.531C75.2635 118.494 77.0999 117.7 77.8821 118.888C79.6013 121.51 74.7312 131.518 66.7884 132.387C58.8833 133.252 51.7305 124.65 52.92 121.017C53.9937 117.739 61.77 118.767 63.1664 114.624C63.8666 112.544 62.5847 110.223 61.4589 108.654L60.5284 108.736L68.0443 103.667Z" fill="url(#paint22_linear_77_404)"/>
<path style="mix-blend-mode:multiply" opacity="0.4" d="M77.8821 118.888C77.1012 117.696 75.2635 118.498 71.3045 116.531C69.6295 115.7 67.9337 114.817 66.9081 113.234C65.2267 110.635 66.5177 106.763 68.0443 103.667L60.5284 108.736L61.4615 108.657C62.3556 109.902 63.3304 111.617 63.3513 113.315C63.8491 113.649 64.298 114.051 64.6853 114.508C63.885 116.216 63.3706 118.043 63.1625 119.916C62.953 121.866 62.7968 123.305 63.6311 124.67C64.5421 126.158 66.1038 126.68 67.4613 127.139C70.4859 128.153 73.3179 127.816 75.1698 127.372C77.7298 124.161 78.8478 120.361 77.8821 118.888Z" fill="url(#paint23_linear_77_404)"/>
<path d="M66.657 106.65C66.657 106.65 66.9173 110.627 63.0454 111.293C58.2716 112.113 55.6401 99.6091 56.6826 98.6953C57.8903 97.6373 59.4156 99.4843 62.4272 98.2508C63.6974 97.7309 64.5564 95.845 65.5299 97.5607C66.6388 99.5103 66.6101 103.302 66.6101 103.302C66.6101 103.302 67.5888 102.179 67.9506 103.274C68.4244 104.708 67.4717 105.813 66.657 106.65Z" fill="url(#paint24_linear_77_404)"/>
<path d="M59.5341 92.1693C57.8422 93.5678 56.6865 96.5026 57.5819 98.1312C58.8833 100.471 63.6181 98.6511 65.1824 101.518C65.8683 102.771 65.6536 104.391 66.0739 104.408C66.424 104.422 66.7455 103.317 67.0409 102.413C68.6716 97.4216 70.0043 96.9809 69.774 95.4797C69.2937 92.4266 63.0051 89.2968 59.5341 92.1693Z" fill="#0A2A43"/>
<path d="M87.591 123.523C92.8567 123.856 93.3851 122.279 99.213 126.544C115.95 138.787 126.804 173.325 110.209 190.016C100.979 199.3 84.133 204.963 69.8026 197.882C58.1376 192.114 53.8337 180.71 52.7899 177.657C52.9816 174.596 53.1734 171.535 53.3651 168.473C59.918 175.533 65.5481 177.311 69.6334 177.534C76.5845 177.906 79.4725 173.765 91.3678 173.115C95.9997 172.855 98.587 173.322 99.1258 172.064C100.242 169.464 90.1353 165.269 85.3746 157.555C81.8945 151.927 79.7926 142.042 87.591 123.523Z" fill="url(#paint25_linear_77_404)"/>
<path d="M67.0578 97.692C65.8709 98.7461 67.8101 102.84 71.7366 110.988C74.1521 116.003 75.3612 118.511 76.1889 119.627C80.6477 125.634 88.6933 130.738 97.322 131.15C103.244 131.432 104.34 129.262 109.083 130.565C116.241 132.532 119.755 139.124 120.118 138.834C120.521 138.513 116.636 130.139 107.877 122.587C100.711 116.407 98.4413 117.812 87.0743 109.103C86.2505 108.471 82.76 105.78 77.7962 102.645C71.9526 98.9566 68.2291 96.6444 67.0578 97.692Z" fill="#0A2A43"/>
<path d="M20.4655 143.818L32.6355 173.887C32.7373 174.163 32.9007 174.411 33.1131 174.614C33.3256 174.816 33.5815 174.968 33.8614 175.057L47.8925 179.507C48.2217 179.612 48.5729 179.626 48.9095 179.549C49.2461 179.471 49.5557 179.305 49.806 179.067C50.0563 178.83 50.238 178.529 50.3323 178.197C50.4266 177.866 50.4299 177.514 50.3418 177.181L42.8402 148.751C42.6684 148.102 42.1778 146.656 40.9362 146.262L23.8454 141.323C22.3162 140.878 19.9072 142.329 20.4655 143.818Z" fill="#77DDFF"/>
<path d="M20.3041 144.293L31.0802 173.396C31.1821 173.671 31.3455 173.92 31.5579 174.122C31.7703 174.325 32.0262 174.477 32.3062 174.566L46.336 179.016C46.6651 179.121 47.0164 179.135 47.353 179.058C47.6896 178.98 47.9992 178.814 48.2495 178.576C48.4997 178.338 48.6815 178.038 48.7758 177.706C48.87 177.374 48.8733 177.023 48.7853 176.69L41.2889 148.259C41.2045 147.939 41.039 147.646 40.8083 147.408C40.5776 147.17 40.2895 146.996 39.9718 146.902L22.6624 141.778C22.319 141.676 21.9541 141.672 21.6084 141.766C21.2627 141.859 20.9499 142.047 20.7051 142.308C20.4603 142.569 20.2931 142.893 20.2223 143.244C20.1515 143.594 20.1798 143.958 20.3041 144.293Z" fill="#74FFC8"/>
<path d="M54.1148 170.934L52.6389 169.559C52.6389 169.559 50.541 166.7 48.961 165.305C47.381 163.91 45.8375 163.639 44.156 164.974C42.4745 166.308 43.9035 168.518 45.1165 170.444C45.8544 171.614 47.9341 172.36 49.6716 172.81C50.8885 173.126 53.0203 174.713 53.0203 174.713L54.1148 170.934Z" fill="url(#paint26_linear_77_404)"/>
<path d="M21.9414 157.778L23.3287 156.316C23.3287 156.316 26.2154 154.244 27.6235 152.677C29.0317 151.109 29.3154 149.566 27.9957 147.881C26.6761 146.195 24.4493 147.599 22.5101 148.79C21.3297 149.518 20.5683 151.589 20.105 153.314C19.7783 154.528 18.1723 156.642 18.1723 156.642L21.9414 157.778Z" fill="url(#paint27_linear_77_404)"/>
<path d="M17.9354 154.821L23.3287 157.509C23.8792 158.21 30.4347 166.804 26.9351 175.044C26.4795 176.116 24.759 180.169 21.3648 180.893C16.1264 182.002 8.49594 174.831 8.74062 167.134C8.91111 161.969 12.5942 157.228 17.9354 154.821Z" fill="url(#paint28_linear_77_404)"/>
</g>
<defs>
<linearGradient id="paint0_linear_77_404" x1="274.249" y1="268.838" x2="283.932" y2="255.571" gradientUnits="userSpaceOnUse">
<stop stop-color="#AA80F9"/>
<stop offset="1" stop-color="#6165D7"/>
</linearGradient>
<linearGradient id="paint1_linear_77_404" x1="377.94" y1="359.994" x2="362.192" y2="365.865" gradientUnits="userSpaceOnUse">
<stop stop-color="#444B8C"/>
<stop offset="1" stop-color="#26264F"/>
</linearGradient>
<linearGradient id="paint2_linear_77_404" x1="356.255" y1="372.81" x2="340.674" y2="379.017" gradientUnits="userSpaceOnUse">
<stop stop-color="#444B8C"/>
<stop offset="1" stop-color="#26264F"/>
</linearGradient>
<linearGradient id="paint3_linear_77_404" x1="214.681" y1="326.59" x2="253.737" y2="273.078" gradientUnits="userSpaceOnUse">
<stop stop-color="#AA80F9"/>
<stop offset="1" stop-color="#6165D7"/>
</linearGradient>
<linearGradient id="paint4_linear_77_404" x1="216.047" y1="326.725" x2="256.402" y2="275.503" gradientUnits="userSpaceOnUse">
<stop stop-color="#AA80F9"/>
<stop offset="1" stop-color="#6165D7"/>
</linearGradient>
<linearGradient id="paint5_linear_77_404" x1="194.144" y1="302.754" x2="228.536" y2="250.197" gradientUnits="userSpaceOnUse">
<stop stop-color="#AA80F9"/>
<stop offset="1" stop-color="#6165D7"/>
</linearGradient>
<linearGradient id="paint6_linear_77_404" x1="288.754" y1="376.095" x2="316.774" y2="289.794" gradientUnits="userSpaceOnUse">
<stop stop-color="#444B8C"/>
<stop offset="1" stop-color="#26264F"/>
</linearGradient>
<linearGradient id="paint7_linear_77_404" x1="296.61" y1="304.596" x2="261.349" y2="392.938" gradientUnits="userSpaceOnUse">
<stop stop-color="#444B8C"/>
<stop offset="1" stop-color="#26264F"/>
</linearGradient>
<linearGradient id="paint8_linear_77_404" x1="228.159" y1="305.406" x2="246.809" y2="301.749" gradientUnits="userSpaceOnUse">
<stop stop-color="#FFC444"/>
<stop offset="1" stop-color="#F36F56"/>
</linearGradient>
<linearGradient id="paint9_linear_77_404" x1="295.744" y1="295.455" x2="275.863" y2="271.498" gradientUnits="userSpaceOnUse">
<stop stop-color="#444B8C"/>
<stop offset="1" stop-color="#26264F"/>
</linearGradient>
<linearGradient id="paint10_linear_77_404" x1="234.174" y1="254.839" x2="254.26" y2="208.607" gradientUnits="userSpaceOnUse">
<stop stop-color="#FFC444"/>
<stop offset="1" stop-color="#F36F56"/>
</linearGradient>
<linearGradient id="paint11_linear_77_404" x1="228.935" y1="246.268" x2="256.063" y2="205.36" gradientUnits="userSpaceOnUse">
<stop stop-color="#444B8C"/>
<stop offset="1" stop-color="#26264F"/>
</linearGradient>
<linearGradient id="paint12_linear_77_404" x1="248.461" y1="219.534" x2="240.763" y2="266.473" gradientUnits="userSpaceOnUse">
<stop stop-color="#FFC444"/>
<stop offset="1" stop-color="#F36F56"/>
</linearGradient>
<linearGradient id="paint13_linear_77_404" x1="235.77" y1="243.11" x2="255.18" y2="213.843" gradientUnits="userSpaceOnUse">
<stop stop-color="#444B8C"/>
<stop offset="1" stop-color="#26264F"/>
</linearGradient>
<linearGradient id="paint14_linear_77_404" x1="252.224" y1="226.503" x2="250.322" y2="232.194" gradientUnits="userSpaceOnUse">
<stop stop-color="#FFC444"/>
<stop offset="1" stop-color="#F36F56"/>
</linearGradient>
<linearGradient id="paint15_linear_77_404" x1="17.7078" y1="116.305" x2="42.0322" y2="160.374" gradientUnits="userSpaceOnUse">
<stop stop-color="#AA80F9"/>
<stop offset="1" stop-color="#6165D7"/>
</linearGradient>
<linearGradient id="paint16_linear_77_404" x1="36.6612" y1="348.28" x2="47.301" y2="349.43" gradientUnits="userSpaceOnUse">
<stop stop-color="#AA80F9"/>
<stop offset="1" stop-color="#6165D7"/>
</linearGradient>
<linearGradient id="paint17_linear_77_404" x1="56.6423" y1="353.56" x2="67.2821" y2="354.71" gradientUnits="userSpaceOnUse">
<stop stop-color="#AA80F9"/>
<stop offset="1" stop-color="#6165D7"/>
</linearGradient>
<linearGradient id="paint18_linear_77_404" x1="26.4108" y1="273.955" x2="91.4622" y2="272.818" gradientUnits="userSpaceOnUse">
<stop stop-color="#444B8C"/>
<stop offset="1" stop-color="#26264F"/>
</linearGradient>
<linearGradient id="paint19_linear_77_404" x1="23.6402" y1="269.459" x2="86.1431" y2="275.949" gradientUnits="userSpaceOnUse">
<stop stop-color="#444B8C"/>
<stop offset="1" stop-color="#26264F"/>
</linearGradient>
<linearGradient id="paint20_linear_77_404" x1="48.2864" y1="158.762" x2="134.5" y2="250.278" gradientUnits="userSpaceOnUse">
<stop stop-color="#AA80F9"/>
<stop offset="1" stop-color="#6165D7"/>
</linearGradient>
<linearGradient id="paint21_linear_77_404" x1="55.7167" y1="153.042" x2="149.235" y2="226.945" gradientUnits="userSpaceOnUse">
<stop stop-color="#AA80F9"/>
<stop offset="1" stop-color="#6165D7"/>
</linearGradient>
<linearGradient id="paint22_linear_77_404" x1="65.3387" y1="142.785" x2="64.4308" y2="90.9162" gradientUnits="userSpaceOnUse">
<stop stop-color="#FFC444"/>
<stop offset="1" stop-color="#F36F56"/>
</linearGradient>
<linearGradient id="paint23_linear_77_404" x1="66.2676" y1="136.537" x2="72.2231" y2="94.4783" gradientUnits="userSpaceOnUse">
<stop stop-color="#FFC444"/>
<stop offset="1" stop-color="#F36F56"/>
</linearGradient>
<linearGradient id="paint24_linear_77_404" x1="61.4705" y1="99.7692" x2="69.0651" y2="143.255" gradientUnits="userSpaceOnUse">
<stop stop-color="#FFC444"/>
<stop offset="1" stop-color="#F36F56"/>
</linearGradient>
<linearGradient id="paint25_linear_77_404" x1="76.0335" y1="152.44" x2="121.751" y2="206.777" gradientUnits="userSpaceOnUse">
<stop stop-color="#AA80F9"/>
<stop offset="1" stop-color="#6165D7"/>
</linearGradient>
<linearGradient id="paint26_linear_77_404" x1="45.7471" y1="164.894" x2="59.3175" y2="181.989" gradientUnits="userSpaceOnUse">
<stop stop-color="#FFC444"/>
<stop offset="1" stop-color="#F36F56"/>
</linearGradient>
<linearGradient id="paint27_linear_77_404" x1="27.4965" y1="146.162" x2="10.1935" y2="159.76" gradientUnits="userSpaceOnUse">
<stop stop-color="#FFC444"/>
<stop offset="1" stop-color="#F36F56"/>
</linearGradient>
<linearGradient id="paint28_linear_77_404" x1="27.5275" y1="158.221" x2="2.30344" y2="185.843" gradientUnits="userSpaceOnUse">
<stop stop-color="#AA80F9"/>
<stop offset="1" stop-color="#6165D7"/>
</linearGradient>
<clipPath id="clip0_77_404">
<rect width="379" height="379" fill="white"/>
</clipPath>
</defs>
</svg>
