<svg width="589" height="581" viewBox="0 0 589 581" fill="none" xmlns="http://www.w3.org/2000/svg">
<g clip-path="url(#clip0_90_365)">
<path d="M548.897 239.376C533.96 141.662 472.721 21.6165 351.728 9.05165C351.728 9.05165 259.87 -2.10649 169.312 14.8101C115.58 24.8544 68.4613 54.7562 38.6428 97.731C8.82433 140.706 -1.13578 193.109 10.9515 243.068C18.8024 275.518 24.1094 309.102 22.652 342.445C20.1182 400.475 21.5755 454.642 77.925 489.251C128.238 520.153 191.561 547.406 251.968 552.178C293.02 555.424 339.059 550.174 378.626 539.492C580.262 485.052 563.833 337.087 548.897 239.376Z" fill="#F4F7FA"/>
<mask id="mask0_90_365" style="mask-type:luminance" maskUnits="userSpaceOnUse" x="260" y="0" width="265" height="239">
<path d="M524.012 0.360229H260.861V238.935H524.012V0.360229Z" fill="white"/>
</mask>
<g mask="url(#mask0_90_365)">
<mask id="mask1_90_365" style="mask-type:luminance" maskUnits="userSpaceOnUse" x="317" y="101" width="202" height="230">
<path d="M321.692 311.776L360.967 330.064C360.967 330.064 377.747 313.368 374.744 294.676C368.622 256.537 402.47 253.839 416.479 250.59C437.611 245.688 454.08 232.161 434.854 213.981C415.627 195.801 454.936 171.191 490.195 168.183C524.696 165.246 539.383 102.252 464.122 101.754C419.176 101.457 406.682 143.414 395.332 163.102C383.983 182.79 352.657 170.275 351.423 200.205C350.368 225.773 360.051 249.281 340.247 257.976C320.442 266.671 311.411 282.554 321.692 311.776Z" fill="white"/>
</mask>
<g mask="url(#mask1_90_365)">
<path d="M464.122 101.762C419.176 101.465 406.682 143.422 395.332 163.11C383.983 182.798 352.657 170.283 351.423 200.213C350.871 213.602 353.261 226.426 352.819 236.853H375.657C376.012 235.044 376.696 233.398 377.49 231.706C378.873 228.757 383.104 228.028 385.709 229.552C385.966 229.705 386.211 229.876 386.443 230.065C388.129 229.401 389.895 228.96 391.696 228.755C396.359 228.18 401.198 228.212 405.883 228.261C412.872 228.333 419.838 228.608 426.836 228.789C430.063 228.873 433.317 228.927 436.534 228.624C438.887 228.403 441.102 228.172 443.369 228.273C443.303 224.131 441.598 219.506 437.836 214.399C422.125 193.109 454.938 171.189 490.197 168.189C524.696 165.254 539.383 102.26 464.122 101.762Z" fill="#2D54DE"/>
<g style="mix-blend-mode:soft-light" opacity="0.5">
<path d="M442.294 152.137C420.719 166.2 400.594 188.269 382.476 217.733C378.578 224.071 374.944 230.485 371.565 236.861H372.599C375.909 230.644 379.461 224.388 383.263 218.205C411.598 172.134 459.938 120.83 529.327 138.054L529.549 137.167C498.659 129.492 469.304 134.531 442.294 152.137Z" fill="#0A2A43"/>
</g>
<g style="mix-blend-mode:soft-light" opacity="0.5">
<path d="M431.325 159.979L432.196 160.26C441.544 131.303 470.101 97.2806 470.388 96.9399L469.688 96.3422C469.401 96.6928 440.739 130.853 431.325 159.979Z" fill="#0A2A43"/>
</g>
<g style="mix-blend-mode:soft-light" opacity="0.5">
<path d="M449.642 148.744C485.657 144.36 507.856 164.839 508.067 165.046L508.695 164.383C508.472 164.172 485.988 143.396 449.533 147.845L449.642 148.744Z" fill="#0A2A43"/>
</g>
<g style="mix-blend-mode:soft-light" opacity="0.5">
<path d="M383.855 236.853C412.763 222.595 450.165 232.442 450.605 232.599L450.968 231.76C450.542 231.561 411.365 221.399 381.931 236.853H383.855Z" fill="#0A2A43"/>
</g>
<g style="mix-blend-mode:soft-light" opacity="0.5">
<path d="M372.4 235.311L373.291 235.51C379.764 207.991 360.582 178.054 360.388 177.755L359.621 178.253C359.814 178.558 378.783 208.177 372.4 235.311Z" fill="#0A2A43"/>
</g>
</g>
<path d="M273.503 304.472C257.841 311.178 252.57 327.232 250.482 339.341C251.639 340.393 252.023 341.321 252.94 342.66C261.214 354.753 267.36 357.905 277.426 368.364C279.591 370.613 288.028 375.075 291.605 376.659L298.323 379.5C298.323 379.5 332.571 359.726 325.215 339.153C317.859 318.581 352.422 313.663 367.27 299.57C407.555 261.333 355.612 207.095 403.458 153.817C416.184 139.646 445.189 116.875 443.39 94.8657C441.341 69.7898 420.065 73.466 420.986 54.8618C422.418 25.7809 405.635 -0.183742 376.871 5.21003C348.474 10.536 333.793 58.7412 348.678 121.466C354.26 167.673 348.528 174.866 331.533 189.622C319.631 199.964 281.268 220.289 286.18 246.587C291.092 272.884 291.417 296.808 273.503 304.472Z" fill="#0A2A43"/>
<mask id="mask2_90_365" style="mask-type:luminance" maskUnits="userSpaceOnUse" x="248" y="4" width="196" height="376">
<path d="M248.893 354.936L296.541 379.745C296.541 379.745 332.565 359.732 325.209 339.159C317.853 318.587 355.173 317.821 370.019 303.728C410.306 265.486 355.62 207.091 403.458 153.817C416.184 139.646 445.189 116.875 443.39 94.8657C441.341 69.7898 420.065 73.466 420.986 54.8618C422.418 25.7809 405.635 -0.183742 376.871 5.21003C348.474 10.536 333.793 58.7412 348.678 121.466C354.26 167.673 348.528 174.866 331.533 189.622C319.631 199.964 281.268 220.289 286.18 246.587C291.092 272.884 291.403 296.798 273.499 304.478C246.258 316.144 248.893 354.936 248.893 354.936Z" fill="white"/>
</mask>
<g mask="url(#mask2_90_365)">
<g style="mix-blend-mode:soft-light" opacity="0.5">
<path d="M317.294 288.731L318.271 289.155C330.745 260.483 304.749 206.338 304.485 205.794L303.526 206.258C303.79 206.798 329.573 260.506 317.294 288.731Z" fill="#0A2A43"/>
</g>
<g style="mix-blend-mode:soft-light" opacity="0.5">
<path d="M443.131 79.4237C442.533 79.8481 387.077 119.34 368.57 160.32C371.184 150.003 373.454 139.598 375.368 129.356C376.778 121.823 377.99 114.612 379.021 106.709C379.021 106.709 379.021 106.805 379.021 106.793C380.935 92.8759 382.19 79.1275 382.787 65.5477L382.803 65.5816C388.803 40.8524 400.843 16.2786 404.8 8.19686C405.757 6.2402 406.092 5.55875 406.168 5.29773L405.143 5.00683C405.083 5.20608 404.545 6.32588 403.843 7.74057C400.123 15.3381 389.29 37.483 382.97 60.684C383.082 57.1811 383.148 53.6942 383.169 50.2232C383.279 32.149 382.173 14.7304 379.89 -1.55058C379.491 -4.38794 378.927 -7.26713 378.379 -10.0527C377.651 -13.7628 376.897 -17.5984 376.535 -21.3643L375.474 -21.2626C375.841 -17.445 376.6 -13.5814 377.334 -9.84745C377.878 -7.07585 378.441 -4.2106 378.835 -1.40313C381.114 14.828 382.214 32.1949 382.105 50.2173C381.969 67.8508 380.757 85.4596 378.474 102.945C373.718 79.7465 341.62 51.5383 340.179 50.289L339.479 51.086C339.848 51.4068 376.397 83.5124 377.956 106.877C376.929 114.315 375.718 121.781 374.324 129.273C368.09 162.624 358.094 196.534 344.619 230.061C328.71 269.636 307.673 309.333 282.093 348.046C278.638 353.275 275.05 358.563 271.427 363.761L272.302 364.369C275.929 359.164 279.523 353.868 282.982 348.628C308.6 309.855 329.671 270.097 345.606 230.453C353.572 210.68 360.393 190.466 366.036 169.91H366.062C379.294 126.17 443.103 80.7308 443.747 80.2785L443.131 79.4237Z" fill="#0A2A43"/>
</g>
</g>
<mask id="mask3_90_365" style="mask-type:luminance" maskUnits="userSpaceOnUse" x="275" y="94" width="93" height="206">
<path d="M298.319 279.828L335.819 299.57C340.803 295.416 348.748 287.097 342.173 280.553C333.034 271.455 343.05 252.176 349.673 247.007C357.868 240.609 376.644 225.32 362.737 211.034C351.158 199.141 341.256 193.833 349.92 175.368C358.584 156.903 354.796 140.441 337.938 132.77C320.195 124.698 318.401 94.3576 300.259 94.4493C268.656 94.6107 269.575 146.056 293.174 173.475C316.772 200.894 293.949 202.456 285.257 216.713C273.391 236.176 302.815 246.443 305.747 258.157C308.042 267.347 302.422 275.309 298.319 279.828Z" fill="white"/>
</mask>
<g mask="url(#mask3_90_365)">
<g style="mix-blend-mode:soft-light" opacity="0.5">
<path d="M319.083 283.229L319.964 283.492C339.194 219.191 327.103 145.882 288.427 92.1678L287.681 92.7038C326.2 146.193 338.233 219.191 319.083 283.229Z" fill="#FCFDFE"/>
</g>
<g style="mix-blend-mode:soft-light" opacity="0.5">
<path d="M326.563 247.286L327.374 247.716C339.774 224.438 369.382 216.902 369.681 216.832L369.459 215.942C369.168 216.003 339.16 223.629 326.563 247.286Z" fill="#FCFDFE"/>
</g>
<g style="mix-blend-mode:soft-light" opacity="0.5">
<path d="M322.298 271.304H323.217C323.07 244.566 281.728 218.795 281.312 218.538L280.829 219.319C281.25 219.568 322.153 245.074 322.298 271.304Z" fill="#FCFDFE"/>
</g>
<g style="mix-blend-mode:soft-light" opacity="0.5">
<path d="M324.635 181.533L325.55 181.606C327.244 160.462 352.541 140 352.797 139.795L352.225 139.08C351.965 139.279 326.361 159.991 324.635 181.533Z" fill="#FCFDFE"/>
</g>
<g style="mix-blend-mode:soft-light" opacity="0.5">
<path d="M313.347 140.429L314.144 139.965C301.91 119.117 270.456 110.3 270.139 110.212L269.896 111.099C270.195 111.183 301.294 119.906 313.347 140.429Z" fill="#FCFDFE"/>
</g>
</g>
</g>
<path d="M501.997 150.772L42.1496 120.561C37.2293 120.239 33.2302 123.787 33.2302 128.49V471.463C33.2302 476.166 37.2293 479.784 42.1496 479.545L501.997 457.298C505.575 457.125 508.468 453.748 508.468 449.753V158.429C508.468 154.434 505.575 151.007 501.997 150.772Z" fill="#B7C0CE"/>
<path d="M38.9399 137.96V471.463C38.9399 476.166 42.9391 479.784 47.8593 479.545L507.708 457.298C511.285 457.125 514.178 453.748 514.178 449.753V166.469L38.9399 137.96Z" fill="white"/>
<path d="M507.708 150.772L47.8593 120.561C42.9391 120.239 38.9399 123.787 38.9399 128.49V143.003L514.178 170.753V158.425C514.178 154.434 511.285 151.007 507.708 150.772Z" fill="#D8DEE8"/>
<path d="M59.5598 132.303C59.5598 134.38 57.8015 135.956 55.6304 135.824C53.4594 135.693 51.689 133.895 51.689 131.813C51.689 129.731 53.4554 128.155 55.6304 128.292C57.8054 128.43 59.5598 130.225 59.5598 132.303Z" fill="white"/>
<path d="M69.6096 224.896C64.9665 227.458 60.4849 233.249 61.5036 239.776C62.5383 246.397 68.7544 250.717 73.6467 252.186C80.5107 254.246 82.7695 250.086 90.1319 250.867C101.242 252.044 109.857 262.997 113.447 271.017C116.97 278.89 114.223 280.745 116.499 289.779C120.487 305.629 132.847 315.397 144.564 324.664C154.288 332.355 169.055 341.624 171.701 338.883C172.648 337.902 171.796 335.651 171.282 334.3C169.239 328.906 164.569 327.657 158.194 322.588C153.65 318.975 147.905 314.406 148.836 310.794C149.755 307.235 157.024 305.079 162.428 306.679C167.833 308.279 170.726 313.442 172.121 315.929C173.317 318.055 173.118 320.804 174.221 320.944C174.982 321.039 175.829 319.926 176.214 318.967C177.197 316.5 175.479 314.103 174.853 312.193C173.409 307.771 176.828 303.041 180.223 298.341C185.897 290.49 189.213 290.472 197.949 281.404C203.776 275.353 206.689 272.238 207.008 267.787C207.554 260.142 200.979 254.288 199.874 253.305C194.545 248.561 185.483 245.178 181.617 248.416C178.142 251.325 181.8 257.113 177.715 261.367C174.855 264.356 169.855 264.864 165.953 263.621C160.427 261.863 157.247 256.637 156.926 251.963C156.864 251.042 156.573 246.782 159.472 243.921C160.297 243.108 162.305 241.496 169.041 241.398C178.483 241.263 180.447 244.355 186.065 243.267C190.74 242.363 196.366 238.868 196.298 235.271C196.218 231.057 188.393 230.389 179.39 220.592C175.877 216.771 173.01 213.571 173.246 209.524C173.565 203.831 179.825 199.573 181.061 198.73C185.919 195.425 190.231 192.753 190.231 192.753C191.441 192.001 193.198 190.929 192.996 189.836C192.865 189.116 191.92 188.586 190.231 188.042C184.894 186.345 180.794 187.046 180.794 187.046C174.414 188.146 172.384 191.121 164.554 194.94C161.386 196.487 156.031 199.099 148.708 200.418C140.335 201.93 137.442 200.3 133.27 203.158C129.239 205.919 130.511 208.408 126.36 212.766C122.004 217.336 116.671 218.731 108.36 220.903C105.17 221.738 98.7084 223.22 89.8508 223.693C77.1654 224.382 74.478 222.21 69.6096 224.896Z" fill="#D8DEE8"/>
<path d="M206.457 192.372C197.885 194.255 190.395 195.895 188.834 200.988C188.022 203.636 188.776 207.34 191.049 209.376C195.558 213.421 202.352 207.583 207.279 211.114C209.908 213.007 208.913 215.352 211.922 228.598C213.927 237.425 215.574 241.675 218.726 245.535C220.51 247.726 223.012 250.787 225.504 250.369C229.181 249.749 227.789 242.341 233.59 237.218C235.624 235.425 235.995 236.16 245.638 231.884C251.248 229.395 254.057 228.132 254.675 227.032C257.831 221.413 249.444 214.152 252.819 207.465C253.455 206.206 253.543 206.884 257.853 201.721C262.795 195.799 262.733 194.841 262.603 194.365C262.055 192.346 258.381 192.031 248.834 190.485C232.907 187.909 231.611 186.925 226.856 187.825C223.694 188.423 222.853 189.126 216.015 190.615C210.656 191.77 210.058 191.583 206.457 192.372Z" fill="#D8DEE8"/>
<path d="M184.673 338.833C179.888 342.32 178.935 348.353 178.549 350.788C177.594 356.841 179.384 360.784 182.735 370.723C186.79 382.78 188.814 388.797 189.115 392.218C189.585 397.527 188.605 398.473 184.677 419.474C181.752 435.116 181.439 439.174 184.121 441.944C188.06 446.015 196.511 445.299 196.848 444.219C197.014 443.695 195.191 443.299 193.816 441.575C190.748 437.736 192.957 431.158 193.539 429.421C195.833 422.591 200.213 419.586 207.283 412.724C215.6 404.65 221.003 399.405 224.962 391.71C226.926 387.891 231.11 379.486 229.821 368.673C229.043 362.567 226.719 356.761 223.068 351.804C216.035 342.26 206.521 339.295 203.73 338.468C198.274 336.876 190.508 334.581 184.673 338.833Z" fill="#D8DEE8"/>
<path d="M264.968 301.028C261.958 306.807 258.624 313.183 257.316 319.081C256.146 324.363 255.028 336.35 261.015 340.971C266.421 345.143 272.643 339.45 280.153 344.103C283.975 346.47 285.658 349.987 287.685 354.231C292.041 363.339 289.964 368.406 291.826 380.118C292.699 385.621 295.474 403.088 302.378 404.162C308.122 405.054 314.36 394.221 315.4 392.406C318.16 387.61 319.222 382.658 321.234 372.959C323.941 359.894 322.934 358.078 325.783 354.396C329.443 349.662 333.867 349.094 334.838 344.567C335.55 341.242 333.851 338.253 332.831 336.41C329.057 329.597 323.784 330.346 320.221 323.745C318.17 319.948 317.615 315.436 318.447 315.004C319.19 314.618 321.238 317.383 322.246 318.724C325.307 322.837 324.934 324.321 326.792 326.395C330.544 330.58 336.87 329.878 337.342 329.818C340.237 329.452 345.44 327.756 346.076 324.303C346.567 321.643 344.196 318.794 341.341 315.365C339.037 312.595 337.312 311.402 337.593 310.878C337.874 310.354 339.928 311.051 345.331 313.02C351.182 315.153 354.102 316.208 354.501 316.467C356.463 317.65 358.134 319.256 363.622 328.752C369.168 338.362 371.184 343.184 372.44 342.78C373.064 342.581 372.956 341.26 373.417 336.802C374.102 330.131 374.479 326.75 376.098 324.335C377.462 322.301 380.376 319.553 383.385 319.951C385.189 320.187 387.354 323.14 391.6 329.006C395.775 334.784 397.182 336.743 400.005 338.265C401.485 339.062 404.134 340.49 406.218 339.261C408.526 337.902 409.318 333.764 408.361 330.785C407.2 327.18 403.975 326.832 404.07 324.624C404.204 321.476 410.871 319.423 411.447 319.244C415.737 317.965 416.83 319.429 419.023 317.989C422.274 315.853 423.608 310.162 422.796 305.751C421.955 301.206 419.102 299.51 419.967 297.554C420.693 295.91 422.976 296.511 427.499 295.342C430.851 294.473 435.793 293.194 438.488 289.123C440.093 286.702 440.376 284.09 440.817 280.027C441.077 277.329 441.077 274.612 440.817 271.914C440.274 265.936 439.08 265.498 439.652 263.772C440.908 259.986 446.949 261.182 458.372 257.904C464.884 256.037 469.573 253.738 470.029 254.688C470.605 255.884 463.012 259.072 462.499 265.304C462.111 270.027 465.924 274.869 467.525 274.458C468.845 274.111 467.892 270.371 470.258 264.98C471.128 262.987 472.451 259.986 475.254 258.082C478.618 255.8 480.597 257.484 483.618 255.051C486.03 253.1 485.422 251.486 487.443 249.418C492.015 244.74 499.696 248.322 500.191 246.561C500.645 244.931 494.726 239.587 486.993 238.192C480.095 236.941 479.03 240.135 471.167 239.93C466.69 239.812 461.253 237.698 450.316 233.448C444.114 231.039 440.877 229.423 435.225 228.865C431.281 228.479 431.164 229.096 427.029 228.572C422.332 227.974 416.497 227.239 411.917 222.909C408.329 219.506 409.419 217.597 406.447 215.515C401.64 212.148 395.041 214.519 389.421 216.641C383.44 218.895 379.178 221.752 371.943 226.604C363.5 232.27 360.665 235.136 355.974 234.398C352.466 233.846 351.746 231.882 347.801 231.772C344.611 231.685 343.6 232.93 337.077 235.622C330.751 238.232 327.522 239.529 324.756 238.927C320.466 237.991 320.301 234.877 315.638 232.814C310.654 230.611 305.889 231.969 300.054 233.635C292.825 235.698 285.7 237.734 282.219 244.054C278.534 250.757 281.952 256.838 277.791 259.773C274.334 262.212 270.789 258.865 267.584 261.423C263.726 264.503 264.874 272.521 265.48 276.75C266.676 285.078 269.637 287.164 268.634 292.969C268.204 295.551 267.416 296.34 264.968 301.028Z" fill="#D8DEE8"/>
<path d="M334.836 370.119C333.07 369.954 330.109 377.404 330.819 384.42C330.861 384.836 331.445 390.276 333.08 390.433C334.599 390.583 336.178 386.091 336.339 385.625C336.605 384.856 337.4 382.349 337.091 378.243C337.003 377.093 336.491 370.275 334.836 370.119Z" fill="#D8DEE8"/>
<path d="M397.376 352.442C397.25 352.762 397.739 353.304 399.096 354.45C402.685 357.471 404.479 358.979 407.416 360.049C409.958 360.974 416.269 362.639 417.621 360.185C418.486 358.62 417.242 355.51 415.255 354.072C413.133 352.537 411.539 353.896 406.463 353.643C401.194 353.38 397.687 351.655 397.376 352.442Z" fill="#D8DEE8"/>
<path d="M415.255 338.972C414.208 339.155 414.475 341.363 412.41 346.157C411.445 348.393 410.92 348.989 411.214 349.754C411.877 351.437 415.869 352.218 417.848 350.21C419.696 348.339 418.845 344.992 418.558 343.814C418.012 341.588 416.479 338.757 415.255 338.972Z" fill="#D8DEE8"/>
<path d="M436.407 357.423C437.188 358.644 438.514 360.153 441.762 361.673C442.894 362.203 451.235 366.11 453.325 363.044C454.176 361.797 453.759 359.742 453.093 358.503C452.065 356.584 450.183 356.14 447.089 355.283C437.852 352.721 435.757 351.459 435.001 352.611C434.16 353.904 435.98 356.755 436.407 357.423Z" fill="#D8DEE8"/>
<path d="M420.691 330.01C419.577 330.382 419.648 335.868 421.634 340.221C422.667 342.485 424.545 345.161 425.4 344.794C426.327 344.396 425.857 340.526 425.165 337.91C424.14 334.019 421.77 329.649 420.691 330.01Z" fill="#D8DEE8"/>
<path d="M429.627 304.286C429.644 303.005 432.579 303.34 436.405 300.787C439.06 299.016 442.948 295.322 445.009 290.227C445.426 289.195 445.857 287.894 446.168 287.964C446.636 288.071 446.694 291.271 446.168 294.039C445.193 299.154 442.043 303.72 438.038 305.868C436.465 306.713 435.288 306.9 434.304 306.865C432.119 306.769 429.611 305.468 429.627 304.286Z" fill="#D8DEE8"/>
<path d="M421.634 379.032C416.473 383.941 413.65 383.115 412.884 385.856C412.015 388.963 415.564 390.29 416.202 396.53C416.6 400.408 415.506 402.623 416.437 403.175C417.85 404.012 420.179 398.82 425.635 396.799C426.058 396.644 431.762 394.633 436.401 397.544C439.096 399.234 438.757 400.9 443.149 404.973C445.956 407.577 447.412 408.888 449.17 408.595C452.067 408.113 453.701 403.614 454.706 400.862C455.536 398.581 457.439 393.352 456.086 387.209C455.5 384.547 455.067 385.185 447.089 372.985C444.878 369.597 443.991 368.149 441.987 367.24C437.894 365.385 433.398 367.752 432.665 368.139C431.052 368.988 429.639 370.432 426.806 373.319C423.458 376.75 423.668 377.097 421.634 379.032Z" fill="#D8DEE8"/>
<path d="M215.819 183.025L236.878 227.857L239.789 228.76C239.789 228.76 237.968 211.915 237.558 210.751C237.147 209.588 229.262 185.536 229.262 185.536L215.819 183.025Z" fill="url(#paint0_linear_90_365)"/>
<path d="M309.882 81.211L150.542 68.7278C147.498 68.6102 144.984 71.342 144.984 74.7512V178.771C144.984 182.278 147.638 185.267 150.766 185.265L297.127 176.047C300.572 176.025 318.189 182.423 318.189 178.875V81.7649C318.183 78.1205 313.497 81.3644 309.882 81.211Z" fill="url(#paint1_linear_90_365)"/>
<path d="M314.77 74.9763L153.03 68.7278C149.976 68.6102 147.448 71.346 147.448 74.7631V178.972C147.448 182.485 150.11 185.48 153.244 185.478L220.474 185.406L239.783 228.766L255.478 185.223L315.036 185.4C318.562 185.4 321.3 182.648 321.3 179.096V81.7908C321.3 80.0327 320.621 78.3424 319.405 77.0726C318.188 75.8029 316.528 75.0519 314.77 74.9763Z" fill="#74FFC8"/>
<g style="mix-blend-mode:multiply" opacity="0.3">
<path d="M319.551 77.2378L149.404 70.1125C148.777 70.7125 148.28 71.435 147.945 72.235C147.609 73.0351 147.441 73.8956 147.452 74.7631V90.1315C150.369 88.7965 152.847 88.5673 154.867 88.7865C160.483 89.3843 161.83 93.3354 172.731 99.2353C183.076 104.834 184.171 102.569 188.788 106.592C197.759 114.412 193.826 123.018 201.746 131.482C210.084 140.395 217.356 134.083 229.571 142.868C242.701 152.312 238.473 162.412 249.408 169.225C265.002 178.938 281.266 163.427 295.062 173.184C299.286 176.173 301.999 180.616 303.754 185.404H315.034C318.56 185.404 321.298 182.652 321.298 179.1V81.7907C321.299 80.1094 320.677 78.4872 319.551 77.2378Z" fill="#74FFC8"/>
</g>
<path d="M191.715 148.696L185.046 148.764V133.202L172.287 133.11V148.891L165.309 148.961V112.121L172.287 112.32V126.659L185.046 126.84V112.709L191.715 112.908V148.696Z" fill="white"/>
<path d="M218.999 148.423L201.703 148.596V113.205L218.999 113.719V119.748L208.15 119.501V127.214L218.254 127.358V133.393L208.15 133.32V142.38L218.999 142.346V148.423Z" fill="white"/>
<path d="M227.131 148.343V113.962L233.216 114.141V142.304L244.623 142.27V148.168L227.131 148.343Z" fill="white"/>
<path d="M251.334 148.1V114.681L257.085 114.853V142.232L267.871 142.198V147.935L251.334 148.1Z" fill="white"/>
<path d="M297.023 131.799C297.023 137.03 296.017 141.056 294.005 143.878C291.993 146.699 289.069 148.14 285.233 148.2C281.361 148.242 278.371 146.832 276.262 143.97C274.152 141.107 273.089 136.956 273.072 131.516C273.072 126.098 274.135 121.987 276.262 119.183C278.388 116.378 281.387 115.045 285.257 115.182C289.111 115.298 292.035 116.791 294.029 119.659C296.022 122.527 297.021 126.573 297.023 131.799ZM278.79 131.618C278.79 135.23 279.331 137.953 280.412 139.787C281.494 141.622 283.098 142.528 285.223 142.507C289.456 142.493 291.557 138.909 291.557 131.747C291.557 124.586 289.467 120.946 285.257 120.848C283.13 120.799 281.522 121.677 280.43 123.482C279.339 125.288 278.792 127.999 278.79 131.618Z" fill="white"/>
<path d="M302.635 144.518C302.635 143.322 302.882 142.413 303.377 141.79C303.871 141.167 304.587 140.859 305.524 140.865C306.426 140.865 307.125 141.177 307.619 141.802C308.114 142.426 308.36 143.32 308.359 144.484C308.359 145.606 308.11 146.493 307.611 147.144C307.369 147.465 307.052 147.722 306.689 147.896C306.326 148.069 305.926 148.153 305.524 148.14C304.607 148.151 303.897 147.84 303.393 147.209C302.889 146.578 302.637 145.681 302.635 144.518ZM307.53 137.193L303.542 137.181L302.705 116.21L308.363 116.377L307.53 137.193Z" fill="white"/>
<path d="M473.683 329.659V411.51C473.683 416.244 469.62 420.375 464.878 420.576L354.906 425.051H354.886L352.635 424.912C350.891 424.986 349.286 424.436 347.882 423.621C345.255 422.1 343.544 419.151 343.544 415.884V361.946C343.521 357.481 342.117 353.133 339.525 349.497L321.122 323.572C320.396 322.55 320.46 320.89 321.276 319.938L322.053 318.698L330.777 319.005L464.22 320.585C464.754 320.607 465.286 320.657 465.815 320.735C470.079 321.392 473.683 325.23 473.683 329.659Z" fill="url(#paint2_linear_90_365)"/>
<path d="M477.278 329.657V411.51C477.278 416.246 473.388 420.144 468.656 420.347L356.658 424.914C356.088 424.938 355.448 425.051 354.908 425.051H354.888C352.569 425.051 350.402 423.224 349.051 421.437C347.844 419.834 347.175 417.89 347.141 415.884V361.946C347.141 357.499 345.873 353.159 343.295 349.529L321.963 319.372L321.975 318.973L330.923 318.698H330.963L465.474 320.424L468.353 320.635C473.199 320.675 477.278 324.795 477.278 329.657Z" fill="#0A2A43"/>
<g style="mix-blend-mode:soft-light" opacity="0.48">
<path d="M477.278 410.576V411.51C477.278 416.246 473.388 420.144 468.656 420.347L356.658 424.914C356.088 424.938 355.448 425.051 354.908 425.051H354.888C352.569 425.051 350.402 423.224 349.051 421.437C347.844 419.834 347.175 417.89 347.141 415.884V361.946C347.141 357.499 345.873 353.159 343.295 349.529L321.963 319.372L321.975 319.336L330.885 319.425C330.885 319.425 330.919 319.445 330.929 319.455C338.15 328.444 342.846 337.801 357.406 344.76C367.476 349.574 375.207 349.827 382.392 349.13C386.527 348.732 390.484 347.994 394.617 347.634C400.855 347.088 407.481 347.351 415.709 350.784C447.607 364.088 445.705 400.796 472.988 409.579C473.315 409.689 473.829 409.793 474.166 409.892C475.18 410.214 476.222 410.442 477.278 410.576Z" fill="white"/>
</g>
<path d="M379.009 389.668L373.658 389.827V378.119L363.55 378.36V390.13L358.096 390.292V362.946L363.55 362.859V373.546L373.658 373.331V362.699L379.009 362.614V389.668Z" fill="white"/>
<path d="M409.577 375.406C409.577 379.813 408.571 383.229 406.56 385.653C404.55 388.077 401.65 389.35 397.862 389.471C394.062 389.586 391.138 388.478 389.09 386.145C387.042 383.813 386.015 380.4 386.008 375.908C386.008 371.42 387.038 367.976 389.098 365.574C391.158 363.173 394.093 361.945 397.902 361.892C401.701 361.835 404.597 362.969 406.592 365.295C408.587 367.621 409.582 370.991 409.577 375.406ZM391.559 375.818C391.559 378.82 392.09 381.067 393.153 382.559C394.217 384.05 395.79 384.766 397.872 384.707C402.051 384.594 404.138 381.539 404.134 375.541C404.13 369.543 402.054 366.573 397.906 366.63C395.816 366.668 394.237 367.459 393.169 369.004C392.102 370.548 391.565 372.82 391.559 375.818Z" fill="white"/>
<path d="M416.333 388.556V362.022L421.469 361.942V383.774L431.213 383.507V388.118L416.333 388.556Z" fill="white"/>
<path d="M451.453 387.504L449.754 381.351L441.182 381.58L439.465 387.863L434.036 388.024L442.41 361.502L448.512 361.406L456.788 387.345L451.453 387.504ZM448.568 376.744C446.996 371.153 446.109 367.989 445.908 367.252C445.709 366.517 445.568 365.937 445.482 365.509C445.127 367.04 444.111 370.835 442.434 376.892L448.568 376.744Z" fill="white"/>
<path d="M460.264 384.707C460.264 383.714 460.502 382.957 460.976 382.435C461.451 381.913 462.142 381.641 463.049 381.618C463.923 381.594 464.599 381.837 465.077 382.342C465.555 382.846 465.795 383.583 465.795 384.549C465.795 385.479 465.553 386.22 465.069 386.771C464.585 387.322 463.912 387.61 463.049 387.636C462.164 387.664 461.479 387.422 460.992 386.91C460.506 386.399 460.263 385.664 460.264 384.707ZM464.991 378.53L461.136 378.625L460.338 361.328L465.805 361.243L464.991 378.53Z" fill="white"/>
<path d="M441.395 162.647C424.29 162.647 408.462 166.81 395.568 173.871C375.757 184.719 362.858 202.418 362.858 222.407C362.858 233.765 367.015 244.369 374.238 253.409L366.662 273.534C366.529 273.889 366.475 274.269 366.503 274.647C366.532 275.026 366.643 275.394 366.828 275.725C367.013 276.056 367.268 276.343 367.576 276.566C367.883 276.789 368.235 276.942 368.608 277.014H368.666C368.783 277.035 368.902 277.046 369.021 277.048C369.798 277.118 371.505 277.236 372.587 277.048C372.49 276.871 372.388 276.69 372.286 276.51C379.405 275.189 390.229 273.205 397.509 271.963C410.035 278.401 425.137 282.159 441.397 282.159C465.237 282.159 486.6 274.076 501.006 261.309C512.804 250.857 519.935 237.264 519.935 222.397C519.931 189.401 484.766 162.647 441.395 162.647Z" fill="#552D63"/>
<path d="M523.209 222.407C523.209 237.274 516.078 250.867 504.281 261.319C489.876 274.086 468.514 282.169 444.672 282.169C428.412 282.169 413.311 278.411 400.785 271.973C392.501 273.384 379.653 275.759 372.858 277.023C372.404 277.106 371.935 277.068 371.499 276.911C371.064 276.755 370.679 276.485 370.382 276.131C370.085 275.777 369.888 275.35 369.81 274.894C369.732 274.438 369.777 273.97 369.94 273.538L377.515 253.413C370.293 244.373 366.138 233.761 366.138 222.411C366.138 202.422 379.037 184.723 398.845 173.875C411.74 166.814 427.567 162.651 444.672 162.651C488.045 162.648 523.209 189.401 523.209 222.407Z" fill="#2D54DE"/>
<g style="mix-blend-mode:soft-light" opacity="0.3">
<path d="M504.281 261.319C489.876 274.086 468.514 282.169 444.672 282.169C428.412 282.169 413.311 278.411 400.785 271.973C392.501 273.384 379.653 275.759 372.858 277.022C372.404 277.106 371.935 277.068 371.499 276.911C371.064 276.755 370.679 276.485 370.382 276.131C370.085 275.777 369.888 275.35 369.81 274.894C369.732 274.438 369.777 273.97 369.94 273.538L377.515 253.413C370.293 244.373 366.138 233.761 366.138 222.411C366.138 202.422 379.037 184.723 398.845 173.875C409.212 175.282 418.201 178.883 423.664 186.107C435.679 202.018 422.125 224.336 434.67 235.63C447.123 246.83 467.031 230.774 485.135 238.379C491.941 241.233 498.927 247.621 504.281 261.319Z" fill="#0A2A43"/>
</g>
<path d="M286.997 379.825C286.997 379.825 286.575 369.767 291.95 362.888C297.324 356.01 304.659 346.37 302.775 352.499C300.891 358.628 297.494 361.962 297.494 361.962C297.494 361.962 305.361 366.122 300.163 372.142C294.966 378.161 294.238 380.863 294.238 381.381C294.238 381.899 286.997 379.825 286.997 379.825Z" fill="#FA9B4D"/>
<path style="mix-blend-mode:multiply" opacity="0.3" d="M113.966 473.468C111.802 481.42 104.027 487.362 98.6147 506.707C97.4465 510.891 89.1231 540.63 99.9186 547.952C106.157 552.18 111.755 544.167 126.89 543.122C153.118 541.309 165.612 563.341 182.743 557.325C185.716 556.279 189.641 554.053 193.559 548.941C194.34 553.549 194.205 557.55 191.764 561.603C187.378 568.868 178.752 571.149 158.694 574.011C107.564 581.309 81.9979 584.96 73.6467 572.154C70.1818 566.841 71.7069 562.348 73.9238 544.802C76.2304 526.527 79.791 498.35 77.7934 480.031C73.3457 439.222 40.0025 435.11 42.3788 404.514C43.0148 396.333 46.0252 389.048 50.0523 382.708C92.3488 399.81 120.764 448.473 113.966 473.468Z" fill="url(#paint3_linear_90_365)"/>
<path d="M60.5387 533.662L69.0016 539.064C70.5207 537.308 74.0394 533.771 79.5319 532.562C85.7121 531.203 92.8253 533.16 92.9907 535.126C93.1223 536.708 88.8042 538.314 88.1283 538.552C82.7276 540.544 78.7224 538.888 76.5394 541.058C75.7679 541.825 74.805 543.25 72.5921 544.573C72.1076 544.869 71.6026 545.13 71.0809 545.354C67.4765 546.749 61.2943 540.482 60.764 539.934L60.5387 533.662Z" fill="#FA9B4D"/>
<path d="M297.286 377.326L285.066 378.179C265.728 409.231 253.545 414.045 246.003 412.706C229.039 409.717 228.162 374.32 194.793 355.596C189.031 352.362 184.872 350.862 181.737 350.371C172.747 345.133 160.471 345.657 136.292 346.922C111.438 348.221 96.9102 348.981 86.3082 352.569C86.2842 352.481 86.2603 352.396 86.2344 352.31C22.5205 377.398 -9.97546 436.889 2.7119 484.044C13.1724 522.918 51.2245 541.853 59.7133 545.836C61.6897 541.344 63.6647 536.851 65.6384 532.357C55.8019 521.408 44.7174 505.219 46.2843 486.746C47.5941 471.32 57.0698 462.013 67.1096 450.568C72.1794 458.087 76.3999 467.263 77.7914 480.031C79.7851 498.35 76.2284 526.527 73.9218 544.802C71.7049 562.348 70.1798 566.841 73.6447 572.154C81.996 584.959 107.562 581.319 158.692 574.011C178.75 571.149 187.382 568.868 191.762 561.603C197.632 551.87 190.259 542.475 188.573 524.042C186.673 503.142 194.727 499.661 202.693 465.025C203.563 461.24 204.426 457.498 205.235 453.748C229.171 471.736 258.636 480.196 278.305 467.642C300.004 453.793 306.898 416.141 297.286 377.326Z" fill="#6C69DC"/>
<path d="M134.719 316.773C134.719 316.773 134.215 327.914 130.756 336.256C127.63 343.796 111.182 348.534 107.851 350.218C104.52 351.902 114.095 356.821 123.714 357.79C133.334 358.758 160.806 356.572 165.758 352.928C170.71 349.283 161.77 349.558 154.912 347.038C148.054 344.517 144.077 331.098 145.289 325.007C146.501 318.915 134.719 316.773 134.719 316.773Z" fill="#FA9B4D"/>
<path d="M149.94 312.735C154.924 307.833 155.628 307.261 156.172 305.561C158.353 298.761 153.078 289.448 146.156 287.156C145.796 287.037 141.155 285.552 139.378 287.555C137.873 289.265 140.088 291.626 139.035 294.927C138.038 298.01 135.373 298.241 130.417 302.286C126.332 305.617 123.794 307.687 123.208 310.601C122.012 316.604 129.275 325.307 135.714 325.07C138.033 324.995 138.662 323.811 149.94 312.735Z" fill="url(#paint4_linear_90_365)"/>
<path d="M136.348 326.005C136.348 326.005 141.653 332.01 149.735 330.026C156.972 328.248 155.118 311.649 149.829 308.997C148.062 308.112 144.845 308.186 142.438 309.347C141.013 310.035 140.616 310.742 138.264 311.826C136.095 312.822 135.407 312.681 134.825 313.38C134.093 314.255 133.78 316.138 136.067 320.681C134.418 319.515 132.646 319.27 131.557 320.041C131.192 320.335 130.916 320.724 130.76 321.165C130.06 323.221 132.199 325.309 136.348 326.005Z" fill="#FA9B4D"/>
<path d="M382.816 212.397H388.283L390.251 223.479L393.131 212.397H398.576L401.465 223.463L403.434 212.397H408.871L404.766 232.191H399.122L395.857 219.729L392.603 232.191H386.961L382.816 212.397Z" fill="white"/>
<path d="M410.739 212.397H426.16V216.623H416.507V219.769H425.462V223.806H416.507V227.709H426.439V232.191H410.739V212.397Z" fill="white"/>
<path d="M429.539 212.397H435.294V227.317H444.266V232.191H429.529L429.539 212.397Z" fill="white"/>
<path d="M458.845 224.091L463.889 225.711C463.617 227.061 463.074 228.342 462.294 229.477C461.6 230.456 460.667 231.242 459.583 231.758C458.502 232.272 457.128 232.529 455.46 232.529C453.437 232.529 451.784 232.217 450.5 231.591C449.216 230.965 448.108 229.865 447.176 228.291C446.246 226.717 445.781 224.703 445.781 222.248C445.781 218.972 446.6 216.456 448.239 214.698C449.878 212.941 452.196 212.062 455.193 212.06C457.54 212.06 459.384 212.564 460.725 213.573C462.066 214.581 463.063 216.129 463.715 218.217L458.634 219.413C458.515 218.946 458.327 218.5 458.075 218.09C457.774 217.64 457.368 217.269 456.893 217.01C456.413 216.753 455.875 216.623 455.33 216.631C454.727 216.613 454.13 216.759 453.604 217.053C453.077 217.348 452.64 217.78 452.34 218.303C451.815 219.132 451.549 220.431 451.542 222.2C451.542 224.393 451.856 225.897 452.483 226.711C453.111 227.526 453.991 227.933 455.125 227.933C456.225 227.933 457.057 227.601 457.621 226.936C458.184 226.272 458.592 225.324 458.845 224.091Z" fill="white"/>
<path d="M465.96 222.308C465.96 219.076 466.807 216.56 468.5 214.76C470.193 212.96 472.552 212.06 475.575 212.06C478.676 212.06 481.064 212.945 482.74 214.714C484.416 216.484 485.255 218.961 485.256 222.146C485.256 224.46 484.89 226.357 484.156 227.837C483.461 229.277 482.356 230.48 480.98 231.294C479.597 232.116 477.869 232.528 475.797 232.529C473.695 232.529 471.957 232.173 470.581 231.461C469.206 230.749 468.09 229.624 467.234 228.086C466.385 226.548 465.96 224.622 465.96 222.308ZM471.714 222.336C471.714 224.328 472.063 225.763 472.762 226.641C473.461 227.52 474.412 227.957 475.613 227.953C476.849 227.953 477.806 227.525 478.484 226.669C479.162 225.814 479.501 224.279 479.501 222.065C479.501 220.205 479.147 218.843 478.44 217.98C477.733 217.117 476.774 216.687 475.563 216.691C475.028 216.674 474.496 216.784 474.011 217.012C473.526 217.24 473.101 217.579 472.772 218.002C472.067 218.875 471.714 220.319 471.714 222.336Z" fill="white"/>
<path d="M488.291 212.397H495.866L498.783 224.442L501.682 212.397H509.246V232.191H504.535V217.097L500.902 232.191H496.638L493.012 217.097V232.191H488.299L488.291 212.397Z" fill="white"/>
</g>
<defs>
<linearGradient id="paint0_linear_90_365" x1="215.819" y1="205.895" x2="239.789" y2="205.895" gradientUnits="userSpaceOnUse">
<stop stop-color="#311944"/>
<stop offset="1" stop-color="#A03976"/>
</linearGradient>
<linearGradient id="paint1_linear_90_365" x1="251.368" y1="152.097" x2="178.814" y2="75.3313" gradientUnits="userSpaceOnUse">
<stop stop-color="#311944"/>
<stop offset="1" stop-color="#A03976"/>
</linearGradient>
<linearGradient id="paint2_linear_90_365" x1="320.608" y1="371.875" x2="473.683" y2="371.875" gradientUnits="userSpaceOnUse">
<stop stop-color="#444B8C"/>
<stop offset="1" stop-color="#26264F"/>
</linearGradient>
<linearGradient id="paint3_linear_90_365" x1="-16.0272" y1="709.53" x2="162.221" y2="404.15" gradientUnits="userSpaceOnUse">
<stop stop-color="#F36F56"/>
<stop offset="1" stop-color="#FFC444"/>
</linearGradient>
<linearGradient id="paint4_linear_90_365" x1="144.047" y1="358.429" x2="142.353" y2="337.515" gradientUnits="userSpaceOnUse">
<stop stop-color="#444B8C"/>
<stop offset="1" stop-color="#26264F"/>
</linearGradient>
<clipPath id="clip0_90_365">
<rect width="589" height="580.279" fill="white" transform="translate(0 0.360229)"/>
</clipPath>
</defs>
</svg>
