<svg width="353" height="348" viewBox="0 0 353 348" fill="none" xmlns="http://www.w3.org/2000/svg">
<g clip-path="url(#clip0_89_368)">
<path d="M347.809 148.641C338.242 86.5552 299.014 10.2793 221.512 2.29597C221.512 2.29597 162.671 -4.79961 104.666 5.95284C70.2401 12.341 40.0536 31.3365 20.9524 58.642C1.8511 85.9474 -4.52913 119.245 3.21466 150.988C8.24405 171.606 11.6415 192.945 10.7091 214.131C9.0861 251.003 10.0197 285.421 46.1159 307.411C78.3452 327.045 118.906 344.358 157.602 347.394C183.899 349.456 213.39 346.121 238.735 339.333C367.903 304.743 357.376 210.727 347.809 148.641Z" fill="#F4F7FA"/>
<path d="M303.534 172.546L212.22 176.869C212.123 176.874 212.026 176.86 211.935 176.826C211.843 176.793 211.76 176.741 211.69 176.675L182.642 149.005L41.834 153.931C41.7202 153.939 41.6061 153.923 41.499 153.884C41.3919 153.845 41.294 153.785 41.2116 153.707C41.1292 153.629 41.0641 153.534 41.0203 153.43C40.9766 153.326 40.9553 153.213 40.9576 153.1C40.9696 152.864 41.0707 152.641 41.2408 152.476C41.411 152.31 41.6377 152.214 41.876 152.206L183.002 147.367C183.101 147.362 183.201 147.378 183.294 147.413C183.388 147.449 183.473 147.502 183.545 147.571L212.573 175.248L303.276 171.017L316.276 156.83C316.339 156.758 316.417 156.699 316.505 156.656C316.592 156.614 316.687 156.59 316.784 156.585L330.211 156.041C330.599 156.026 330.905 156.354 330.894 156.775C330.895 156.972 330.822 157.163 330.688 157.309C330.555 157.456 330.371 157.548 330.173 157.567L317.037 158.112L304.048 172.3C303.916 172.446 303.732 172.535 303.534 172.546Z" fill="#D8DEE8"/>
<path d="M304.441 164.795L213.196 168.801C213.099 168.806 213.001 168.791 212.91 168.757C212.819 168.723 212.736 168.671 212.665 168.604L183.639 140.842L42.0413 145.309C41.9274 145.316 41.8133 145.299 41.7062 145.26C41.5991 145.221 41.5014 145.16 41.4192 145.082C41.3369 145.003 41.272 144.909 41.2285 144.804C41.1849 144.7 41.1637 144.587 41.1662 144.474C41.1777 144.238 41.2786 144.016 41.4486 143.851C41.6187 143.685 41.8454 143.59 42.0833 143.584L183.996 139.204C184.096 139.2 184.196 139.217 184.289 139.252C184.383 139.288 184.468 139.342 184.54 139.411L213.541 167.181L304.178 163.264L317.167 149.126C317.231 149.054 317.309 148.995 317.397 148.953C317.484 148.911 317.579 148.887 317.676 148.881L326.168 148.567C326.557 148.553 326.863 148.882 326.853 149.305C326.854 149.502 326.781 149.693 326.647 149.84C326.513 149.986 326.329 150.078 326.131 150.097L317.932 150.406L304.957 164.546C304.825 164.694 304.64 164.783 304.441 164.795Z" fill="#D8DEE8"/>
<path d="M305.352 157.047L214.174 160.738C214.077 160.743 213.98 160.727 213.889 160.693C213.798 160.659 213.715 160.606 213.645 160.539L184.644 132.684L48.2855 136.516C48.1718 136.522 48.0581 136.505 47.9514 136.466C47.8447 136.426 47.7473 136.366 47.6654 136.287C47.5835 136.209 47.5188 136.115 47.4753 136.01C47.4319 135.906 47.4106 135.794 47.4129 135.681C47.4253 135.447 47.5264 135.226 47.6959 135.062C47.8654 134.899 48.0909 134.805 48.3274 134.798L184.989 131.051C185.088 131.046 185.188 131.062 185.281 131.096C185.374 131.131 185.46 131.184 185.532 131.253L214.515 159.12L305.08 155.518L318.072 141.426C318.136 141.354 318.214 141.296 318.301 141.254C318.389 141.213 318.484 141.189 318.58 141.184L323.541 141.018C323.932 141.004 324.239 141.335 324.229 141.759C324.23 141.957 324.156 142.148 324.022 142.294C323.887 142.44 323.703 142.531 323.504 142.549L318.84 142.709L305.861 156.8C305.796 156.873 305.718 156.932 305.631 156.974C305.544 157.017 305.449 157.041 305.352 157.047Z" fill="#D8DEE8"/>
<path d="M306.255 149.305L215.143 152.681C215.046 152.684 214.949 152.669 214.858 152.634C214.767 152.6 214.684 152.547 214.614 152.48L185.632 124.531L48.5004 127.915C48.3866 127.92 48.2729 127.903 48.1662 127.863C48.0596 127.823 47.9624 127.762 47.8806 127.684C47.7989 127.605 47.7343 127.51 47.6911 127.406C47.6478 127.301 47.6267 127.189 47.6291 127.076C47.6398 126.842 47.7401 126.62 47.9097 126.456C48.0793 126.292 48.3056 126.198 48.5424 126.193L185.99 122.896C186.089 122.893 186.189 122.91 186.282 122.946C186.375 122.982 186.46 123.036 186.531 123.105L215.492 151.063L305.995 147.771L318.97 133.729C319.03 133.657 319.105 133.598 319.191 133.556C319.276 133.515 319.369 133.492 319.464 133.489C319.559 133.486 319.653 133.504 319.741 133.54C319.828 133.576 319.907 133.63 319.972 133.699C320.102 133.852 320.171 134.046 320.166 134.246C320.161 134.446 320.083 134.637 319.945 134.783L306.77 149.059C306.705 149.132 306.626 149.191 306.537 149.233C306.449 149.276 306.353 149.3 306.255 149.305Z" fill="#D8DEE8"/>
<path d="M299.225 290.044C299.132 290.055 299.038 290.045 298.95 290.014C298.862 289.983 298.782 289.933 298.716 289.867L276.007 267.201C275.939 267.13 275.886 267.047 275.851 266.955C275.816 266.863 275.801 266.765 275.805 266.668L277.942 179.218C277.943 179.013 278.021 178.817 278.161 178.666C278.3 178.515 278.491 178.42 278.696 178.401C278.794 178.398 278.891 178.416 278.982 178.453C279.072 178.49 279.154 178.545 279.221 178.615C279.289 178.685 279.341 178.769 279.374 178.86C279.407 178.951 279.42 179.048 279.412 179.145L277.284 266.215L299.767 288.674C300.041 288.948 300.029 289.431 299.74 289.766C299.61 289.921 299.426 290.02 299.225 290.044Z" fill="#D8DEE8"/>
<path d="M308.636 286.038C308.545 286.048 308.452 286.037 308.365 286.007C308.278 285.976 308.2 285.927 308.135 285.862L283.474 261.105C283.406 261.035 283.353 260.951 283.319 260.859C283.284 260.768 283.269 260.671 283.273 260.573L285.27 178.852C285.271 178.649 285.348 178.453 285.486 178.303C285.625 178.152 285.815 178.058 286.019 178.039C286.116 178.036 286.213 178.054 286.303 178.091C286.393 178.127 286.474 178.182 286.541 178.252C286.609 178.322 286.66 178.406 286.692 178.497C286.725 178.587 286.738 178.684 286.73 178.78L284.746 260.126L309.168 284.674C309.44 284.948 309.422 285.431 309.141 285.763C309.014 285.915 308.833 286.013 308.636 286.038Z" fill="#D8DEE8"/>
<path d="M315.895 279.97C315.804 279.98 315.712 279.969 315.626 279.939C315.54 279.908 315.462 279.858 315.398 279.793L290.902 255.048C290.835 254.977 290.782 254.894 290.748 254.803C290.714 254.712 290.698 254.615 290.702 254.518L292.561 178.49C292.562 178.288 292.638 178.093 292.776 177.943C292.913 177.793 293.102 177.699 293.305 177.678C293.402 177.676 293.498 177.694 293.588 177.731C293.677 177.767 293.758 177.823 293.825 177.892C293.891 177.962 293.943 178.045 293.975 178.136C294.007 178.226 294.02 178.323 294.012 178.419L292.163 254.078L316.428 278.615C316.699 278.889 316.683 279.372 316.403 279.7C316.274 279.851 316.093 279.947 315.895 279.97Z" fill="#D8DEE8"/>
<path d="M323.107 273.941C323.017 273.951 322.925 273.94 322.84 273.909C322.754 273.878 322.677 273.828 322.614 273.763L298.278 249.029C298.211 248.958 298.159 248.875 298.125 248.784C298.091 248.693 298.076 248.596 298.08 248.499L299.8 178.129C299.801 177.927 299.877 177.733 300.013 177.584C300.15 177.434 300.338 177.341 300.54 177.32C300.636 177.318 300.732 177.336 300.821 177.373C300.91 177.409 300.99 177.464 301.056 177.534C301.122 177.603 301.173 177.686 301.205 177.776C301.237 177.866 301.25 177.961 301.242 178.057L299.531 248.063L323.639 272.589C323.907 272.862 323.893 273.346 323.612 273.67C323.486 273.822 323.305 273.919 323.107 273.941Z" fill="#D8DEE8"/>
<path d="M328.226 265.853C328.136 265.861 328.046 265.85 327.962 265.819C327.877 265.788 327.801 265.738 327.739 265.674L305.606 243.051C305.54 242.98 305.488 242.897 305.454 242.806C305.42 242.715 305.405 242.619 305.409 242.522L306.991 177.773C306.992 177.572 307.067 177.379 307.203 177.23C307.339 177.081 307.525 176.987 307.727 176.966C307.823 176.964 307.918 176.982 308.006 177.019C308.095 177.055 308.175 177.11 308.24 177.18C308.306 177.249 308.356 177.331 308.388 177.421C308.42 177.511 308.432 177.606 308.424 177.701L306.853 242.093L328.756 264.508C329.023 264.78 329.011 265.264 328.729 265.586C328.604 265.737 328.423 265.833 328.226 265.853Z" fill="#D8DEE8"/>
<path d="M123.332 247.673C123.225 247.683 123.118 247.67 123.017 247.636C122.916 247.601 122.823 247.546 122.744 247.474C122.425 247.173 122.438 246.644 122.774 246.295L154.171 213.566C154.324 213.405 154.532 213.306 154.755 213.29L270.65 206.173C270.748 206.169 270.845 206.185 270.936 206.221C271.027 206.256 271.11 206.311 271.178 206.381C271.246 206.451 271.299 206.534 271.332 206.625C271.365 206.716 271.378 206.814 271.371 206.911C271.368 207.117 271.289 207.316 271.148 207.469C271.007 207.621 270.815 207.718 270.608 207.739L155.05 214.914L123.932 247.39C123.774 247.554 123.561 247.656 123.332 247.673Z" fill="#D8DEE8"/>
<path d="M119.316 240.474C119.21 240.483 119.102 240.47 119 240.435C118.899 240.4 118.806 240.345 118.728 240.273C118.407 239.969 118.42 239.44 118.757 239.091L150.258 206.397C150.412 206.236 150.621 206.138 150.844 206.122L267.116 199.346C267.214 199.342 267.312 199.358 267.404 199.394C267.495 199.43 267.578 199.485 267.646 199.555C267.715 199.625 267.767 199.709 267.801 199.801C267.834 199.892 267.847 199.99 267.84 200.087C267.837 200.294 267.758 200.492 267.617 200.645C267.476 200.797 267.284 200.893 267.077 200.915L151.141 207.755L119.916 240.192C119.757 240.355 119.544 240.456 119.316 240.474Z" fill="#D8DEE8"/>
<path d="M115.286 233.249C115.178 233.258 115.07 233.245 114.968 233.209C114.867 233.174 114.774 233.118 114.695 233.045C114.372 232.741 114.385 232.212 114.723 231.862L146.331 199.202C146.485 199.04 146.694 198.942 146.918 198.927L263.57 192.485C263.668 192.481 263.767 192.498 263.858 192.534C263.95 192.57 264.033 192.625 264.101 192.696C264.17 192.766 264.223 192.85 264.256 192.942C264.29 193.033 264.303 193.131 264.296 193.229C264.294 193.436 264.214 193.634 264.074 193.787C263.933 193.939 263.74 194.035 263.533 194.056L147.22 200.56L115.888 232.964C115.73 233.13 115.515 233.232 115.286 233.249Z" fill="#D8DEE8"/>
<path d="M111.241 225.999C111.133 226.008 111.024 225.994 110.922 225.959C110.82 225.923 110.727 225.867 110.648 225.794C110.325 225.487 110.338 224.958 110.677 224.609L142.389 191.987C142.544 191.825 142.754 191.727 142.979 191.713L260.012 185.611C260.111 185.607 260.21 185.624 260.301 185.661C260.393 185.698 260.476 185.753 260.545 185.824C260.614 185.894 260.667 185.978 260.7 186.071C260.734 186.163 260.747 186.261 260.74 186.359C260.738 186.566 260.659 186.764 260.518 186.917C260.377 187.069 260.184 187.165 259.977 187.185L143.283 193.35L111.846 225.714C111.687 225.881 111.471 225.983 111.241 225.999Z" fill="#D8DEE8"/>
<path d="M40.6638 224.6C40.55 224.608 40.4355 224.594 40.3275 224.557C40.2195 224.521 40.1201 224.463 40.0354 224.387L11.7798 198.409C11.6964 198.332 11.6306 198.239 11.5867 198.135C11.5428 198.031 11.5219 197.919 11.5254 197.806L13.0034 137.29C13.0104 137.051 13.1123 136.825 13.2871 136.66L54.5907 97.1655L54.7865 89.1519C54.7964 88.9194 54.8962 88.6996 55.0654 88.5382C55.2346 88.3769 55.46 88.2864 55.6947 88.2856C55.8086 88.2824 55.922 88.302 56.028 88.3435C56.134 88.3849 56.2304 88.4473 56.3114 88.5267C56.3924 88.6062 56.4562 88.7011 56.4991 88.8058C56.542 88.9104 56.5631 89.0226 56.5609 89.1355L56.3574 97.4984C56.3498 97.7292 56.2511 97.9479 56.0827 98.1075L14.8325 137.6L13.3723 197.35L41.3379 223.088C41.6801 223.403 41.6661 223.948 41.3087 224.307C41.137 224.48 40.9076 224.584 40.6638 224.6Z" fill="#D8DEE8"/>
<path d="M49.6439 222.317C49.5309 222.326 49.4172 222.312 49.31 222.275C49.2028 222.238 49.1043 222.18 49.0207 222.104L20.9685 196.193C20.8853 196.117 20.8196 196.024 20.7757 195.92C20.7318 195.816 20.7108 195.704 20.7141 195.592L22.1871 135.295C22.195 135.059 22.2964 134.835 22.4694 134.672L63.4805 95.3497L63.7591 83.9441C63.7682 83.7129 63.8672 83.4942 64.0353 83.3337C64.2034 83.1732 64.4275 83.0833 64.6609 83.0828C64.7743 83.0799 64.8871 83.0998 64.9925 83.1414C65.0979 83.1829 65.1937 83.2453 65.2741 83.3246C65.3545 83.404 65.4178 83.4986 65.4602 83.6029C65.5026 83.7073 65.5232 83.819 65.5207 83.9314L65.2345 95.6826C65.2269 95.9128 65.1287 96.1309 64.9611 96.2904L24.0034 135.604L22.5483 195.139L50.3105 220.81C50.6501 221.124 50.6374 221.668 50.2812 222.025C50.1122 222.197 49.8854 222.301 49.6439 222.317Z" fill="#D8DEE8"/>
<path d="M58.5605 220.051C58.4481 220.06 58.3352 220.045 58.2286 220.009C58.1221 219.973 58.0242 219.915 57.941 219.839L30.0962 193.996C30.0135 193.919 29.948 193.826 29.9042 193.723C29.8603 193.62 29.8391 193.509 29.8418 193.397L31.3097 133.315C31.3181 133.081 31.4185 132.859 31.5895 132.696L72.3118 93.549L72.7151 77.0691C72.7239 76.8403 72.8213 76.6236 72.9872 76.4641C73.153 76.3047 73.3744 76.2147 73.6054 76.2129C73.7183 76.2108 73.8304 76.2314 73.9351 76.2734C74.0398 76.3153 74.1348 76.3778 74.2145 76.457C74.2942 76.5363 74.3569 76.6307 74.3989 76.7346C74.4409 76.8384 74.4613 76.9497 74.4589 77.0616L74.0481 93.8819C74.0414 94.1111 73.9441 94.3284 73.7772 94.4871L33.1095 133.626L31.6595 192.946L59.2245 218.552C59.5615 218.865 59.5476 219.406 59.1939 219.763C59.0257 219.933 58.8002 220.035 58.5605 220.051Z" fill="#D8DEE8"/>
<path d="M73.5304 222.525C73.4199 222.536 73.3085 222.523 73.2036 222.487C73.0987 222.451 73.0027 222.394 72.922 222.318C72.8412 222.243 72.7776 222.151 72.7353 222.05C72.6931 221.948 72.6731 221.838 72.6769 221.729L72.855 214.421L48.1049 191.257C48.0239 191.18 47.9601 191.088 47.9176 190.986C47.875 190.884 47.8548 190.773 47.8581 190.663L48.6213 159.708C48.6329 159.473 48.733 159.251 48.9018 159.085C49.0707 158.92 49.296 158.823 49.5333 158.814C49.6465 158.807 49.76 158.823 49.8667 158.861C49.9733 158.9 50.0707 158.96 50.1526 159.037C50.2345 159.115 50.2993 159.209 50.3427 159.313C50.386 159.417 50.4071 159.529 50.4046 159.641L49.6567 190.218L74.3762 213.38C74.456 213.455 74.5187 213.545 74.5604 213.646C74.6021 213.747 74.6217 213.856 74.6179 213.965L74.4309 221.619C74.419 221.853 74.3207 222.075 74.1546 222.242C73.9886 222.409 73.7665 222.51 73.5304 222.525Z" fill="#D8DEE8"/>
<path d="M82.2358 221.976C82.126 221.986 82.0153 221.973 81.9111 221.937C81.8068 221.901 81.7115 221.844 81.6313 221.769C81.5511 221.694 81.488 221.603 81.4462 221.502C81.4044 221.401 81.3847 221.292 81.3886 221.182L81.5667 213.9L56.9934 190.813C56.9128 190.737 56.8494 190.645 56.8073 190.542C56.7652 190.44 56.7454 190.33 56.7492 190.22L57.5022 159.373C57.5148 159.14 57.6146 158.92 57.7822 158.757C57.9498 158.594 58.173 158.498 58.4079 158.49C58.5205 158.483 58.6334 158.498 58.7394 158.537C58.8454 158.575 58.9422 158.635 59.0236 158.712C59.105 158.79 59.1692 158.883 59.2121 158.987C59.255 159.09 59.2757 159.202 59.2728 159.313L58.5274 189.781L83.0766 212.865C83.1554 212.941 83.2174 213.032 83.2586 213.132C83.2997 213.233 83.3192 213.341 83.3157 213.45L83.1287 221.077C83.1168 221.309 83.0192 221.529 82.8547 221.694C82.6901 221.86 82.4699 221.96 82.2358 221.976Z" fill="#D8DEE8"/>
<path d="M90.8801 221.43C90.7709 221.439 90.6609 221.426 90.5573 221.39C90.4538 221.355 90.3591 221.297 90.2795 221.223C90.2 221.148 90.1374 221.057 90.096 220.956C90.0546 220.856 90.0353 220.748 90.0393 220.639L90.2174 213.383L65.8184 190.371C65.7385 190.295 65.6756 190.204 65.6337 190.102C65.5919 190 65.572 189.891 65.5754 189.781L66.3272 159.046C66.3387 158.814 66.4375 158.595 66.6039 158.431C66.7703 158.268 66.9924 158.172 67.2265 158.163C67.3384 158.156 67.4505 158.173 67.5557 158.211C67.6609 158.25 67.7569 158.309 67.8375 158.387C67.9181 158.464 67.9817 158.557 68.0241 158.66C68.0665 158.763 68.0868 158.873 68.0838 158.984L67.3422 189.345L91.7107 212.353C91.7893 212.428 91.8511 212.519 91.8921 212.619C91.933 212.72 91.9523 212.827 91.9486 212.936L91.7629 220.536C91.7508 220.766 91.6544 220.983 91.4919 221.148C91.3294 221.313 91.1118 221.413 90.8801 221.43Z" fill="#D8DEE8"/>
<path d="M99.466 220.887C99.3571 220.898 99.2472 220.885 99.1438 220.85C99.0404 220.814 98.9459 220.757 98.8666 220.682C98.7874 220.608 98.7253 220.517 98.6845 220.416C98.6437 220.316 98.6252 220.208 98.6303 220.099L98.8071 212.869L74.5823 189.934C74.5027 189.858 74.4401 189.766 74.3985 189.665C74.3569 189.563 74.3371 189.454 74.3406 189.345L75.0885 158.718C75.0994 158.488 75.1967 158.269 75.3614 158.106C75.526 157.943 75.7463 157.846 75.9789 157.835C76.0903 157.829 76.2018 157.845 76.3064 157.884C76.4111 157.922 76.5064 157.982 76.5865 158.059C76.6666 158.136 76.7296 158.228 76.7715 158.331C76.8134 158.433 76.8333 158.543 76.8299 158.654L76.0909 188.907L100.286 211.839C100.365 211.914 100.426 212.004 100.467 212.104C100.507 212.205 100.527 212.312 100.523 212.42L100.337 219.993C100.327 220.222 100.233 220.439 100.072 220.604C99.9119 220.769 99.6962 220.869 99.466 220.887Z" fill="#D8DEE8"/>
<path d="M99.2268 195.678C99.1174 195.685 99.0076 195.669 98.9045 195.632C98.8014 195.595 98.7072 195.537 98.6277 195.462C98.5504 195.382 98.4898 195.288 98.4494 195.185C98.4089 195.082 98.3895 194.972 98.3922 194.861C98.395 194.75 98.4198 194.641 98.4652 194.54C98.5106 194.439 98.5758 194.348 98.657 194.272L122.111 170.544C122.269 170.382 122.484 170.285 122.711 170.274L188.877 167.443C188.981 167.439 189.084 167.456 189.18 167.493C189.277 167.531 189.364 167.588 189.437 167.661C189.51 167.735 189.567 167.822 189.603 167.918C189.64 168.014 189.656 168.117 189.65 168.22C189.645 168.436 189.559 168.643 189.409 168.799C189.258 168.956 189.054 169.051 188.836 169.066L123.018 171.933L99.8387 195.399C99.6766 195.564 99.4586 195.663 99.2268 195.678Z" fill="#D8DEE8"/>
<path d="M272.963 292.659C272.87 292.67 272.774 292.66 272.685 292.629C272.595 292.599 272.514 292.549 272.447 292.483L230.151 250.823L151.235 257.099C151.131 257.109 151.025 257.097 150.926 257.063C150.827 257.03 150.736 256.975 150.66 256.903C150.584 256.831 150.525 256.744 150.486 256.647C150.447 256.55 150.43 256.447 150.435 256.343L151.16 226.678C151.167 226.454 151.256 226.241 151.411 226.079C151.566 225.916 151.775 225.815 152 225.795C152.105 225.787 152.211 225.8 152.31 225.836C152.409 225.871 152.5 225.927 152.576 226C152.651 226.073 152.71 226.161 152.749 226.258C152.787 226.355 152.804 226.46 152.799 226.564L152.095 255.385L230.507 249.199C230.605 249.19 230.704 249.203 230.796 249.236C230.889 249.269 230.973 249.321 231.043 249.39L273.518 291.272C273.798 291.548 273.786 292.042 273.49 292.377C273.357 292.534 273.169 292.635 272.963 292.659Z" fill="#D8DEE8"/>
<path d="M286.17 291.341C286.078 291.352 285.984 291.341 285.896 291.311C285.808 291.28 285.728 291.23 285.662 291.165L236.462 242.387L157.981 248.363C157.877 248.373 157.772 248.36 157.673 248.326C157.574 248.291 157.484 248.237 157.409 248.165C157.333 248.093 157.274 248.006 157.236 247.91C157.197 247.813 157.18 247.71 157.186 247.606L157.908 218.022C157.916 217.801 158.005 217.59 158.159 217.429C158.313 217.268 158.521 217.168 158.744 217.149C158.849 217.141 158.954 217.155 159.053 217.191C159.152 217.226 159.242 217.283 159.317 217.356C159.392 217.429 159.45 217.517 159.488 217.614C159.527 217.711 159.543 217.815 159.538 217.919L158.835 246.661L236.822 240.776C236.919 240.767 237.018 240.78 237.11 240.813C237.202 240.847 237.285 240.9 237.354 240.969L286.726 289.967C287.004 290.242 286.991 290.734 286.7 291.065C286.565 291.221 286.376 291.32 286.17 291.341Z" fill="#D8DEE8"/>
<path d="M270.052 260.926C269.957 260.936 269.861 260.924 269.772 260.892C269.682 260.86 269.601 260.808 269.534 260.741L242.736 233.999L164.674 239.674C164.57 239.682 164.466 239.669 164.368 239.634C164.27 239.6 164.18 239.545 164.105 239.473C164.031 239.402 163.972 239.315 163.934 239.219C163.896 239.123 163.879 239.02 163.884 238.917L164.404 217.606C164.411 217.385 164.499 217.175 164.653 217.014C164.806 216.854 165.013 216.754 165.235 216.735C165.339 216.727 165.444 216.742 165.542 216.777C165.641 216.813 165.73 216.869 165.805 216.942C165.88 217.014 165.938 217.102 165.976 217.199C166.014 217.296 166.03 217.399 166.025 217.503L165.525 237.978L243.089 232.39C243.186 232.382 243.284 232.395 243.375 232.429C243.467 232.462 243.55 232.516 243.619 232.584L270.608 259.544C270.889 259.825 270.876 260.321 270.581 260.65C270.447 260.806 270.257 260.904 270.052 260.926Z" fill="#D8DEE8"/>
<path d="M269.828 239.846C269.733 239.854 269.637 239.842 269.548 239.809C269.458 239.776 269.377 239.724 269.31 239.656L250.602 220.812L173.066 226.025C172.963 226.033 172.858 226.018 172.76 225.983C172.663 225.948 172.574 225.892 172.499 225.82C172.425 225.748 172.367 225.66 172.329 225.564C172.292 225.468 172.276 225.365 172.281 225.262C172.288 225.042 172.376 224.832 172.528 224.672C172.679 224.512 172.885 224.412 173.106 224.392L250.951 219.212C251.048 219.204 251.145 219.217 251.236 219.251C251.327 219.285 251.409 219.338 251.477 219.407L270.383 238.469C270.665 238.753 270.652 239.249 270.356 239.576C270.221 239.73 270.032 239.826 269.828 239.846Z" fill="#D8DEE8"/>
<path d="M300.193 132.527L219.454 134.909C219.353 134.912 219.253 134.895 219.16 134.857C219.066 134.819 218.982 134.762 218.912 134.69L196.028 111.093C195.956 111.017 195.899 110.928 195.862 110.831C195.824 110.734 195.807 110.63 195.81 110.526L196.761 71.6632C196.766 71.4482 196.853 71.2431 197.005 71.0895L216.283 51.7762C216.354 51.7023 216.44 51.6436 216.534 51.6038C216.629 51.5639 216.731 51.5437 216.834 51.5445C216.937 51.5452 217.039 51.5668 217.133 51.6079C217.227 51.6491 217.312 51.7089 217.382 51.7838C217.524 51.9409 217.6 52.1458 217.595 52.3567C217.59 52.5676 217.503 52.7686 217.354 52.9186L198.33 71.9936L197.398 110.16L219.813 133.297L299.932 130.99L309.306 120.936C309.368 120.863 309.445 120.803 309.532 120.762C309.618 120.72 309.713 120.697 309.809 120.695C309.906 120.693 310.001 120.711 310.09 120.748C310.179 120.785 310.259 120.841 310.324 120.911C310.455 121.064 310.525 121.26 310.52 121.46C310.515 121.661 310.436 121.853 310.297 121.999L300.714 132.287C300.648 132.359 300.568 132.418 300.478 132.459C300.388 132.501 300.291 132.524 300.193 132.527Z" fill="#D8DEE8"/>
<path d="M297.567 121.769L227.446 123.499C227.344 123.5 227.243 123.481 227.149 123.441C227.055 123.402 226.97 123.344 226.899 123.271C226.829 123.198 226.774 123.111 226.739 123.016C226.704 122.921 226.689 122.82 226.695 122.719L228.335 55.6109C228.336 55.4026 228.419 55.203 228.567 55.0545C228.714 54.9059 228.914 54.8201 229.124 54.8152C229.226 54.8177 229.327 54.8407 229.421 54.8826C229.515 54.9246 229.599 54.9847 229.669 55.0595C229.739 55.1342 229.793 55.2221 229.828 55.3179C229.863 55.4137 229.878 55.5154 229.873 55.6172L228.254 121.883L297.605 120.22C297.703 120.221 297.799 120.241 297.888 120.28C297.977 120.319 298.057 120.376 298.123 120.447C298.19 120.518 298.24 120.601 298.272 120.693C298.304 120.784 298.317 120.88 298.31 120.977C298.31 121.177 298.233 121.37 298.096 121.517C297.958 121.664 297.769 121.754 297.567 121.769Z" fill="#D8DEE8"/>
<path d="M308.532 114.565L234.518 116.162C234.416 116.163 234.316 116.143 234.222 116.103C234.128 116.064 234.044 116.006 233.974 115.933C233.904 115.859 233.85 115.773 233.816 115.678C233.781 115.583 233.766 115.482 233.773 115.382L235.139 59.6284C235.139 59.4209 235.221 59.2219 235.368 59.0735C235.514 58.9252 235.713 58.8392 235.922 58.834C236.024 58.8365 236.124 58.8593 236.217 58.9008C236.31 58.9424 236.393 59.0019 236.463 59.076C236.532 59.15 236.585 59.237 236.62 59.3319C236.655 59.4268 236.67 59.5276 236.665 59.6284L235.323 114.553L308.572 113.022C308.669 113.024 308.765 113.045 308.853 113.084C308.941 113.124 309.021 113.181 309.086 113.251C309.151 113.322 309.201 113.406 309.233 113.496C309.264 113.587 309.277 113.683 309.269 113.779C309.27 113.978 309.194 114.171 309.057 114.317C308.92 114.462 308.732 114.551 308.532 114.565Z" fill="#D8DEE8"/>
<path d="M302.997 106.188L243.115 107.253C243.014 107.254 242.914 107.233 242.821 107.193C242.729 107.153 242.645 107.095 242.576 107.022C242.507 106.949 242.453 106.863 242.419 106.769C242.384 106.674 242.37 106.574 242.376 106.474L243.442 62.8225C243.443 62.6162 243.524 62.4181 243.67 62.2703C243.815 62.1225 244.013 62.0365 244.221 62.0306C244.322 62.0337 244.422 62.0568 244.514 62.0986C244.607 62.1404 244.69 62.2 244.758 62.274C244.827 62.3479 244.881 62.4348 244.915 62.5294C244.95 62.624 244.965 62.7246 244.96 62.8251L243.915 105.655L303.038 104.646C303.135 104.647 303.23 104.669 303.319 104.708C303.407 104.747 303.487 104.804 303.552 104.875C303.618 104.946 303.668 105.029 303.7 105.12C303.732 105.21 303.745 105.306 303.739 105.402C303.74 105.602 303.664 105.795 303.526 105.941C303.388 106.087 303.199 106.176 302.997 106.188Z" fill="#D8DEE8"/>
<path d="M331.331 253.412C330.949 253.445 330.637 253.131 330.648 252.71L331.125 233.211L321.727 223.447C321.595 223.304 321.526 223.114 321.534 222.92L322.843 169.334C322.842 169.136 322.916 168.944 323.05 168.797C323.184 168.649 323.369 168.556 323.568 168.536C323.958 168.519 324.266 168.846 324.256 169.269L322.955 222.499L332.342 232.263C332.473 232.405 332.542 232.593 332.534 232.786L332.051 252.584C332.039 253.012 331.717 253.379 331.331 253.412Z" fill="#D8DEE8"/>
<path d="M181.417 114.051C181.313 114.054 181.209 114.036 181.113 113.997C181.016 113.958 180.929 113.899 180.857 113.824L161.41 93.9273L89.6705 94.7608C89.5589 94.7638 89.4479 94.7442 89.3443 94.7032C89.2406 94.6622 89.1464 94.6008 89.0675 94.5225C88.9886 94.4443 88.9266 94.3509 88.8853 94.2482C88.8439 94.1454 88.8242 94.0354 88.8271 93.9248L89.3855 71.0668C89.3944 70.8387 89.4921 70.6228 89.6582 70.4646C89.8242 70.3063 90.0456 70.218 90.2759 70.2182C90.3878 70.2168 90.4988 70.2378 90.6024 70.2799C90.7059 70.322 90.7998 70.3843 90.8785 70.4631C90.9572 70.542 91.0191 70.6357 91.0605 70.7388C91.1018 70.8419 91.1218 70.9522 91.1192 71.0631L90.5812 93.0585L161.795 92.2805C161.901 92.2789 162.007 92.2989 162.105 92.3393C162.203 92.3796 162.291 92.4394 162.365 92.515L182.025 112.652C182.171 112.81 182.25 113.018 182.245 113.233C182.24 113.448 182.151 113.652 181.997 113.803C181.922 113.88 181.832 113.942 181.732 113.985C181.632 114.028 181.525 114.05 181.417 114.051Z" fill="#D8DEE8"/>
<path d="M191.217 104.124C191.114 104.125 191.011 104.106 190.916 104.067C190.82 104.028 190.733 103.969 190.662 103.895L171.376 83.9932L100.233 84.5266C100.122 84.5287 100.012 84.5085 99.9089 84.4671C99.806 84.4257 99.7127 84.3641 99.6346 84.2859C99.5565 84.2078 99.4952 84.1147 99.4544 84.0124C99.4136 83.9101 99.3941 83.8006 99.3973 83.6906L99.8704 64.3004C99.8777 64.0747 99.9732 63.8606 100.137 63.7034C100.3 63.5462 100.519 63.4582 100.747 63.458C100.858 63.4573 100.968 63.4788 101.071 63.5211C101.174 63.5634 101.267 63.6258 101.345 63.7045C101.423 63.7832 101.484 63.8766 101.525 63.9791C101.566 64.0817 101.585 64.1914 101.583 64.3016L101.13 82.8382L171.75 82.3577C171.855 82.3567 171.96 82.3771 172.057 82.4177C172.154 82.4582 172.242 82.5181 172.315 82.5935L191.811 102.733C191.957 102.89 192.035 103.098 192.03 103.311C192.025 103.525 191.937 103.729 191.783 103.879C191.635 104.031 191.431 104.119 191.217 104.124Z" fill="#D8DEE8"/>
<path d="M190.015 82.9075C189.911 82.9084 189.808 82.888 189.713 82.8476C189.617 82.8073 189.531 82.7478 189.46 82.6729L181.26 74.1423L110.709 74.3819C110.599 74.3833 110.489 74.3626 110.387 74.3208C110.285 74.2791 110.192 74.2174 110.115 74.1392C110.037 74.0611 109.977 73.9683 109.937 73.8663C109.896 73.7643 109.877 73.6553 109.881 73.5459L110.147 62.632C110.154 62.4077 110.248 62.1947 110.411 62.0383C110.573 61.8818 110.79 61.794 111.017 61.7935C111.127 61.7931 111.237 61.8147 111.339 61.8571C111.441 61.8995 111.533 61.9618 111.61 62.0402C111.688 62.1187 111.748 62.2117 111.788 62.3138C111.829 62.4159 111.848 62.525 111.845 62.6345L111.598 72.701L181.632 72.5144C181.736 72.5137 181.84 72.5344 181.936 72.5752C182.033 72.616 182.12 72.676 182.191 72.7514L190.611 81.5204C190.756 81.6783 190.834 81.8859 190.829 82.0997C190.824 82.3135 190.736 82.517 190.583 82.6679C190.509 82.743 190.421 82.8028 190.323 82.8439C190.226 82.885 190.121 82.9066 190.015 82.9075Z" fill="#D8DEE8"/>
<path d="M219.448 119.291C219.347 119.294 219.246 119.275 219.153 119.237C219.06 119.199 218.975 119.141 218.906 119.069L203.316 102.88C203.245 102.805 203.189 102.716 203.152 102.619C203.114 102.521 203.097 102.418 203.1 102.314L203.79 74.068C203.795 73.8538 203.883 73.6497 204.034 73.4968L216.048 61.414C216.118 61.3396 216.203 61.2804 216.298 61.2399C216.392 61.1994 216.494 61.1785 216.597 61.1785C216.7 61.1785 216.802 61.1994 216.896 61.2399C216.991 61.2804 217.076 61.3396 217.147 61.414C217.289 61.5711 217.365 61.776 217.36 61.9869C217.354 62.1978 217.268 62.3988 217.119 62.5489L205.352 74.3959L204.677 101.96L220.029 117.911C220.171 118.068 220.248 118.273 220.243 118.484C220.238 118.695 220.151 118.896 220.001 119.046C219.856 119.197 219.657 119.285 219.448 119.291Z" fill="#D8DEE8"/>
<path d="M68.1855 118.895C68.0141 118.9 67.8451 118.854 67.7014 118.761C67.5577 118.668 67.4464 118.533 67.3825 118.375C67.3186 118.218 67.3052 118.044 67.3442 117.879C67.3832 117.713 67.4727 117.563 67.6004 117.45L83.6909 101.856C83.8576 101.697 84.0791 101.607 84.3104 101.604L151.782 100.634C151.89 100.633 151.996 100.653 152.095 100.694C152.194 100.734 152.284 100.794 152.359 100.87C152.434 100.947 152.492 101.037 152.531 101.136C152.569 101.236 152.587 101.342 152.582 101.448C152.577 101.667 152.487 101.876 152.33 102.032C152.174 102.188 151.964 102.278 151.743 102.285L84.6284 103.294L68.8126 118.643C68.6431 118.802 68.4192 118.892 68.1855 118.895Z" fill="#D8DEE8"/>
<path d="M181.871 62.733L119.454 62.6422C119.344 62.6426 119.235 62.621 119.134 62.5788C119.032 62.5365 118.94 62.4745 118.864 62.3964C118.787 62.3183 118.727 62.2256 118.687 62.124C118.647 62.0224 118.629 61.9138 118.632 61.8049C118.638 61.5816 118.732 61.3695 118.893 61.2136C119.054 61.0577 119.27 60.9704 119.496 60.9701L181.58 61.1038L196.828 45.9858C196.901 45.9113 196.988 45.8522 197.084 45.8122C197.181 45.7721 197.284 45.7519 197.389 45.7527C197.494 45.7535 197.597 45.7754 197.693 45.817C197.788 45.8586 197.875 45.919 197.946 45.9946C198.091 46.1526 198.168 46.3595 198.163 46.5726C198.158 46.7857 198.07 46.9887 197.918 47.1396L182.442 62.4959C182.367 62.5707 182.278 62.6302 182.18 62.6708C182.082 62.7115 181.977 62.7326 181.871 62.733Z" fill="#D8DEE8"/>
<path d="M290.917 97.0798L261.419 97.4833C261.321 97.4843 261.224 97.465 261.134 97.4265C261.044 97.3881 260.963 97.3314 260.896 97.2601L252.12 87.8972C251.98 87.7455 251.905 87.5454 251.912 87.3399L252.375 68.3671C252.376 68.1616 252.457 67.9644 252.601 67.817C252.745 67.6695 252.942 67.5833 253.149 67.5764C253.25 67.579 253.349 67.6016 253.441 67.6429C253.533 67.6843 253.615 67.7436 253.684 67.8172C253.752 67.8909 253.805 67.9774 253.839 68.0716C253.873 68.1658 253.887 68.2659 253.881 68.3658L253.426 86.9994L261.762 95.9045L290.951 95.5262C291.049 95.5281 291.145 95.5496 291.235 95.5896C291.324 95.6296 291.404 95.6872 291.471 95.7589C291.537 95.8306 291.588 95.9149 291.62 96.0067C291.653 96.0985 291.666 96.1959 291.659 96.2929C291.66 96.493 291.583 96.6859 291.446 96.8321C291.308 96.9783 291.119 97.0669 290.917 97.0798Z" fill="#D8DEE8"/>
<path d="M183.835 113.19C183.802 114.538 182.702 115.653 181.377 115.681C180.053 115.708 179.001 114.636 179.034 113.285C179.067 111.933 180.17 110.818 181.497 110.794C182.824 110.77 183.868 111.841 183.835 113.19Z" fill="#D8DEE8"/>
<path d="M192.07 101.677C192.037 103.022 190.944 104.127 189.629 104.149C188.313 104.17 187.269 103.096 187.302 101.753C187.335 100.41 188.431 99.3004 189.748 99.2815C191.066 99.2626 192.103 100.334 192.07 101.677Z" fill="#D8DEE8"/>
<path d="M192.548 82.074C192.516 83.417 191.423 84.5153 190.108 84.5254C188.793 84.5355 187.749 83.4523 187.782 82.1056C187.815 80.7588 188.91 79.6618 190.227 79.6542C191.543 79.6466 192.581 80.7349 192.548 82.074Z" fill="#D8DEE8"/>
<path d="M153.811 101.43C153.794 102.089 153.524 102.716 153.055 103.183C152.587 103.649 151.955 103.921 151.291 103.941C150.969 103.946 150.65 103.886 150.352 103.765C150.054 103.644 149.784 103.463 149.559 103.235C149.334 103.007 149.158 102.735 149.043 102.437C148.927 102.139 148.874 101.821 148.887 101.502C148.904 100.843 149.175 100.215 149.645 99.7478C150.115 99.2807 150.747 99.01 151.412 98.9915C151.734 98.9868 152.053 99.0471 152.35 99.1687C152.647 99.2904 152.916 99.4709 153.141 99.6991C153.365 99.9274 153.541 100.199 153.656 100.496C153.771 100.794 153.824 101.112 153.811 101.43Z" fill="#D8DEE8"/>
<path d="M70.8389 117.991C70.8045 119.404 69.5987 120.574 68.1436 120.606C67.8056 120.62 67.4683 120.566 67.1526 120.445C66.8369 120.325 66.5494 120.142 66.308 119.907C66.0667 119.672 65.8765 119.39 65.7494 119.08C65.6223 118.769 65.5609 118.436 65.5691 118.1C65.6034 116.686 66.8131 115.514 68.2695 115.485C68.6069 115.472 68.9436 115.527 69.2586 115.648C69.5737 115.768 69.8605 115.952 70.1012 116.187C70.342 116.421 70.5317 116.703 70.6585 117.013C70.7854 117.323 70.8468 117.656 70.8389 117.991Z" fill="#D8DEE8"/>
<path d="M92.8339 71.058C92.8099 71.7395 92.5205 72.3853 92.0264 72.8598C91.5324 73.3342 90.8722 73.6005 90.1843 73.6027C89.8486 73.6074 89.5154 73.5448 89.2047 73.4189C88.8939 73.2929 88.612 73.1061 88.3758 72.8695C88.1396 72.633 87.954 72.3517 87.83 72.0424C87.706 71.733 87.6463 71.4021 87.6544 71.0694C87.6784 70.387 87.9685 69.7405 88.4636 69.2659C88.9588 68.7913 89.6203 68.5256 90.309 68.5247C90.6442 68.5209 90.9768 68.584 91.2869 68.7104C91.597 68.8367 91.8782 69.0237 92.1138 69.2601C92.3494 69.4965 92.5346 69.7775 92.6584 70.0864C92.7821 70.3953 92.8417 70.7258 92.8339 71.058Z" fill="#D8DEE8"/>
<path d="M103.353 61.7721C103.331 62.4481 103.044 63.089 102.554 63.5596C102.064 64.0301 101.409 64.2935 100.726 64.2941C100.393 64.2964 100.063 64.2324 99.7556 64.106C99.4479 63.9797 99.1689 63.7934 98.9351 63.5583C98.7012 63.3232 98.5173 63.044 98.3942 62.7372C98.271 62.4304 98.2112 62.1022 98.2182 61.7721C98.2406 61.0953 98.5278 60.4536 99.019 59.9829C99.5101 59.5123 100.167 59.2495 100.85 59.2502C101.183 59.2484 101.512 59.3127 101.819 59.4394C102.127 59.566 102.405 59.7523 102.638 59.9874C102.872 60.2225 103.055 60.5015 103.178 60.8081C103.301 61.1146 103.36 61.4424 103.353 61.7721Z" fill="#D8DEE8"/>
<path d="M113.561 61.796C113.54 62.4684 113.257 63.1064 112.771 63.5754C112.284 64.0444 111.633 64.3075 110.954 64.3092C110.623 64.311 110.294 64.2466 109.987 64.1198C109.681 63.993 109.404 63.8063 109.172 63.571C108.94 63.3357 108.758 63.0565 108.637 62.7501C108.516 62.4436 108.458 62.1161 108.468 61.7872C108.488 61.1141 108.772 60.4753 109.259 60.0062C109.746 59.537 110.399 59.2744 111.078 59.2741C111.409 59.2731 111.738 59.3381 112.043 59.4653C112.349 59.5924 112.626 59.7792 112.857 60.0144C113.089 60.2496 113.271 60.5284 113.391 60.8345C113.512 61.1405 113.57 61.4675 113.561 61.796Z" fill="#D8DEE8"/>
<path d="M122 61.8111C121.982 62.48 121.701 63.1154 121.218 63.5829C120.736 64.0503 120.088 64.3131 119.413 64.3154C119.083 64.3164 118.756 64.2516 118.452 64.1249C118.147 63.9981 117.872 63.812 117.641 63.5775C117.411 63.3431 117.23 63.0652 117.11 62.7602C116.99 62.4552 116.933 62.1295 116.943 61.8023C116.962 61.1326 117.244 60.4965 117.728 60.0291C118.212 59.5616 118.861 59.2993 119.536 59.298C119.866 59.2975 120.193 59.3627 120.496 59.4897C120.8 59.6167 121.075 59.803 121.305 60.0374C121.535 60.2718 121.715 60.5496 121.834 60.8543C121.954 61.159 122.01 61.4844 122 61.8111Z" fill="#D8DEE8"/>
<path d="M199.741 46.5822C199.708 47.9227 198.622 49.0008 197.314 48.992C196.006 48.9832 194.968 47.8861 195 46.5431C195.032 45.2002 196.123 44.122 197.432 44.1334C198.741 44.1447 199.778 45.2418 199.741 46.5822Z" fill="#D8DEE8"/>
<path d="M76.2117 77.049C76.1851 77.7376 75.8909 78.3894 75.3907 78.8679C74.8905 79.3464 74.223 79.6146 73.5278 79.6164C73.1888 79.6234 72.852 79.5624 72.5374 79.437C72.2228 79.3116 71.9371 79.1244 71.6974 78.8867C71.4577 78.6489 71.269 78.3656 71.1427 78.0537C71.0163 77.7418 70.955 77.4077 70.9623 77.0717C70.9892 76.3821 71.2844 75.7296 71.7859 75.251C72.2874 74.7724 72.9564 74.5048 73.6525 74.5043C73.9909 74.4981 74.3271 74.5598 74.641 74.6856C74.9548 74.8114 75.2397 74.9987 75.4788 75.2363C75.7178 75.474 75.9059 75.757 76.0318 76.0685C76.1578 76.38 76.219 76.7135 76.2117 77.049Z" fill="#D8DEE8"/>
<path d="M67.2837 83.9201C67.2494 85.3349 66.0397 86.4912 64.5807 86.5038C64.2403 86.5126 63.9016 86.4529 63.5851 86.3282C63.2687 86.2036 62.9809 86.0166 62.7394 85.7787C62.4978 85.5407 62.3074 85.2567 62.1796 84.9437C62.0519 84.6308 61.9894 84.2954 61.9961 83.9579C62.0317 82.5393 63.2439 81.383 64.7054 81.3741C65.0454 81.3661 65.3834 81.4263 65.6993 81.5513C66.0151 81.6762 66.3021 81.8633 66.543 82.1012C66.784 82.3391 66.9738 82.6229 67.1011 82.9355C67.2284 83.2481 67.2905 83.583 67.2837 83.9201Z" fill="#D8DEE8"/>
<path d="M58.3341 89.1254C58.2985 90.5453 57.0812 91.7092 55.6108 91.7243C54.1404 91.7394 52.974 90.5982 53.0083 89.1746C53.0427 87.7509 54.265 86.5883 55.7367 86.5757C57.2084 86.5631 58.3684 87.7055 58.3341 89.1254Z" fill="#D8DEE8"/>
<path d="M51.1958 126.989C51.1601 128.413 49.9352 129.598 48.4585 129.637C46.9817 129.676 45.8064 128.549 45.842 127.115C45.8776 125.681 47.1051 124.505 48.5844 124.467C50.0637 124.429 51.2301 125.565 51.1958 126.989Z" fill="#D8DEE8"/>
<path d="M50.9859 135.582C50.9503 137.005 49.7253 138.194 48.2486 138.237C46.7718 138.28 45.5965 137.158 45.6309 135.73C45.6652 134.303 46.8952 133.115 48.3745 133.082C49.8538 133.049 51.0202 134.153 50.9859 135.582Z" fill="#D8DEE8"/>
<path d="M45.8687 144.328C45.8344 145.754 44.6044 146.949 43.1213 146.997C41.6381 147.045 40.459 145.924 40.4933 144.495C40.5277 143.067 41.7653 141.87 43.2472 141.826C44.729 141.782 45.9031 142.902 45.8687 144.328Z" fill="#D8DEE8"/>
<path d="M45.6576 152.942C45.622 154.368 44.3932 155.567 42.9088 155.62C41.4244 155.673 40.2466 154.558 40.2809 153.128C40.3153 151.698 41.5529 150.499 43.036 150.45C44.5191 150.401 45.6919 151.51 45.6576 152.942Z" fill="#D8DEE8"/>
<path d="M191.238 168.145C191.205 169.488 190.113 170.624 188.797 170.682C187.48 170.74 186.437 169.698 186.47 168.351C186.503 167.004 187.599 165.869 188.916 165.814C190.234 165.758 191.271 166.802 191.238 168.145Z" fill="#D8DEE8"/>
<path d="M101.823 194.281C101.793 194.967 101.508 195.618 101.023 196.109C100.539 196.6 99.8879 196.896 99.1963 196.94C98.8683 196.965 98.5388 196.921 98.2293 196.81C97.9198 196.7 97.6373 196.526 97.4004 196.299C97.1635 196.073 96.9776 195.8 96.8548 195.497C96.732 195.195 96.6752 194.87 96.688 194.544C96.7177 193.857 97.003 193.205 97.489 192.713C97.9749 192.222 98.627 191.926 99.3197 191.883C99.6473 191.86 99.9763 191.905 100.285 192.015C100.594 192.126 100.876 192.301 101.112 192.527C101.348 192.753 101.534 193.026 101.656 193.328C101.779 193.631 101.836 193.955 101.823 194.281Z" fill="#D8DEE8"/>
<path d="M49.5689 157.095C51.0444 157.042 52.2121 158.152 52.1777 159.574C52.1434 160.997 50.9185 162.196 49.443 162.253C47.9675 162.309 46.7947 161.2 46.8291 159.774C46.8634 158.347 48.0921 157.149 49.5689 157.095Z" fill="#D8DEE8"/>
<path d="M58.4498 156.772C59.9151 156.719 61.0739 157.825 61.0396 159.243C61.0052 160.66 59.7892 161.855 58.3252 161.912C56.8611 161.969 55.6947 160.862 55.7291 159.442C55.7634 158.022 56.9832 156.827 58.4498 156.772Z" fill="#D8DEE8"/>
<path d="M67.2684 156.452C68.7236 156.399 69.8734 157.501 69.8391 158.914C69.8048 160.326 68.5977 161.516 67.1425 161.573C65.6874 161.63 64.5324 160.526 64.5668 159.112C64.6011 157.697 65.8108 156.505 67.2684 156.452Z" fill="#D8DEE8"/>
<path d="M76.0234 156.133C77.4684 156.081 78.6106 157.18 78.5763 158.587C78.542 159.994 77.3438 161.181 75.8988 161.235C74.4538 161.289 73.3065 160.192 73.3408 158.782C73.3752 157.373 74.5772 156.186 76.0234 156.133Z" fill="#D8DEE8"/>
<path d="M73.6131 219.122C75.0593 219.032 76.2028 220.102 76.1685 221.509C76.1341 222.916 74.9346 224.134 73.4884 224.226C72.0422 224.319 70.8923 223.249 70.9266 221.838C70.961 220.427 72.1643 219.212 73.6131 219.122Z" fill="#D8DEE8"/>
<path d="M82.3185 218.584C83.7545 218.495 84.8904 219.561 84.8624 220.964C84.8344 222.368 83.6375 223.58 82.2002 223.67C80.7628 223.761 79.6231 222.697 79.6562 221.291C79.6893 219.885 80.8799 218.673 82.3185 218.584Z" fill="#D8DEE8"/>
<path d="M90.9628 218.05C92.39 217.962 93.5169 219.025 93.4826 220.422C93.4482 221.819 92.2666 223.027 90.8394 223.119C89.4123 223.211 88.2802 222.148 88.3145 220.747C88.3489 219.346 89.5356 218.135 90.9628 218.05Z" fill="#D8DEE8"/>
<path d="M99.5461 217.521C99.8719 217.492 100.2 217.533 100.509 217.64C100.817 217.747 101.099 217.918 101.336 218.142C101.573 218.366 101.759 218.637 101.882 218.937C102.004 219.238 102.061 219.561 102.048 219.885C102.015 221.272 100.84 222.481 99.4227 222.571C98.0057 222.66 96.8788 221.604 96.9156 220.206C96.9467 219.517 97.2316 218.863 97.7164 218.368C98.2011 217.873 98.8521 217.572 99.5461 217.521Z" fill="#D8DEE8"/>
<path d="M57.8711 216.674C59.3351 216.586 60.4939 217.663 60.4596 219.08C60.4252 220.498 59.2105 221.72 57.7452 221.812C56.2798 221.904 55.116 220.826 55.1503 219.406C55.1847 217.986 56.4032 216.763 57.8711 216.674Z" fill="#D8DEE8"/>
<path d="M48.9482 218.929C50.4237 218.838 51.5913 219.919 51.5557 221.34C51.5201 222.761 50.2977 223.988 48.8222 224.084C47.3467 224.18 46.174 223.098 46.2096 221.673C46.2452 220.248 47.4714 219.017 48.9482 218.929Z" fill="#D8DEE8"/>
<path d="M40.1881 221.185C41.6737 221.094 42.849 222.176 42.8134 223.604C42.7778 225.031 41.5415 226.264 40.0609 226.359C38.5803 226.453 37.3897 225.371 37.4292 223.941C37.4686 222.512 38.6999 221.277 40.1881 221.185Z" fill="#D8DEE8"/>
<path d="M278.734 176.84C279.952 176.781 280.912 177.779 280.88 179.072C280.848 180.364 279.837 181.468 278.62 181.523C277.403 181.579 276.437 180.585 276.469 179.291C276.501 177.997 277.516 176.9 278.734 176.84Z" fill="#D8DEE8"/>
<path d="M286.062 176.483C287.272 176.424 288.225 177.42 288.194 178.707C288.164 179.995 287.157 181.089 285.948 181.151C284.738 181.213 283.785 180.215 283.812 178.925C283.839 177.635 284.851 176.541 286.062 176.483Z" fill="#D8DEE8"/>
<path d="M293.343 176.127C294.545 176.069 295.493 177.062 295.461 178.347C295.429 179.632 294.431 180.72 293.23 180.782C292.029 180.843 291.075 179.849 291.107 178.562C291.139 177.276 292.14 176.187 293.343 176.127Z" fill="#D8DEE8"/>
<path d="M300.577 175.775C301.771 175.717 302.714 176.707 302.682 177.987C302.65 179.267 301.658 180.353 300.464 180.413C299.269 180.474 298.324 179.484 298.356 178.202C298.388 176.919 299.382 175.834 300.577 175.775Z" fill="#D8DEE8"/>
<path d="M307.769 175.425C308.955 175.367 309.892 176.354 309.861 177.63C309.83 178.907 308.843 179.988 307.657 180.049C306.47 180.11 305.53 179.122 305.56 177.844C305.591 176.565 306.578 175.483 307.769 175.425Z" fill="#D8DEE8"/>
<path d="M323.606 167.01C324.775 166.957 325.698 167.941 325.667 169.208C325.635 170.476 324.663 171.546 323.494 171.604C322.325 171.662 321.396 170.676 321.428 169.407C321.46 168.139 322.434 167.065 323.606 167.01Z" fill="#D8DEE8"/>
<path d="M325.504 147.064C326.671 147.021 327.592 148.014 327.562 149.278C327.531 150.543 326.559 151.607 325.392 151.653C324.224 151.698 323.298 150.706 323.329 149.437C323.359 148.169 324.335 147.107 325.504 147.064Z" fill="#D8DEE8"/>
<path d="M323.572 139.487C324.743 139.448 325.665 140.444 325.635 141.711C325.604 142.978 324.63 144.038 323.46 144.079C322.289 144.121 321.363 143.125 321.394 141.855C321.425 140.585 322.396 139.525 323.572 139.487Z" fill="#D8DEE8"/>
<path d="M328.839 154.571C330.003 154.524 330.921 155.511 330.891 156.775C330.86 158.038 329.891 159.103 328.728 159.152C327.566 159.201 326.641 158.214 326.673 156.948C326.704 155.682 327.672 154.617 328.839 154.571Z" fill="#D8DEE8"/>
<path d="M319.511 131.957C320.685 131.923 321.611 132.923 321.581 134.193C321.55 135.463 320.574 136.522 319.398 136.559C318.223 136.595 317.294 135.595 317.325 134.323C317.355 133.051 318.335 131.993 319.511 131.957Z" fill="#D8DEE8"/>
<path d="M309.853 119.252C311.039 119.224 311.972 120.235 311.942 121.51C311.911 122.785 310.924 123.843 309.74 123.874C308.556 123.906 307.617 122.893 307.648 121.616C307.678 120.339 308.667 119.281 309.853 119.252Z" fill="#D8DEE8"/>
<path d="M297.642 118.67C298.841 118.643 299.786 119.659 299.755 120.94C299.725 122.221 298.727 123.286 297.529 123.316C296.331 123.346 295.382 122.33 295.414 121.046C295.446 119.762 296.448 118.698 297.642 118.67Z" fill="#D8DEE8"/>
<path d="M308.612 111.481C309.799 111.458 310.734 112.473 310.703 113.751C310.672 115.03 309.685 116.083 308.499 116.109C307.312 116.136 306.373 115.121 306.404 113.84C306.434 112.558 307.424 111.505 308.612 111.481Z" fill="#D8DEE8"/>
<path d="M302.263 103.11C303.457 103.091 304.398 104.111 304.366 105.391C304.334 106.671 303.348 107.726 302.15 107.748C300.952 107.769 300.011 106.749 300.043 105.467C300.074 104.184 301.069 103.132 302.263 103.11Z" fill="#D8DEE8"/>
<path d="M290.992 93.9739C292.198 93.96 293.148 94.9903 293.118 96.2765C293.087 97.5627 292.084 98.6194 290.879 98.637C289.675 98.6547 288.717 97.6282 288.75 96.3345C288.783 95.0407 289.787 93.989 290.992 93.9739Z" fill="#D8DEE8"/>
<path d="M253.192 65.9977C254.438 65.9977 255.422 67.0594 255.39 68.3671C255.358 69.6747 254.323 70.7377 253.076 70.7403C251.83 70.7428 250.841 69.6823 250.873 68.3709C250.905 67.0594 251.944 65.9977 253.192 65.9977Z" fill="#D8DEE8"/>
<path d="M244.259 60.4442C245.516 60.4442 246.506 61.5135 246.475 62.8275C246.443 64.1414 245.4 65.2045 244.143 65.2045C242.886 65.2045 241.89 64.1364 241.923 62.8212C241.957 61.506 243.002 60.4404 244.259 60.4442Z" fill="#D8DEE8"/>
<path d="M235.962 57.2325C237.234 57.2325 238.226 58.3107 238.194 59.6284C238.162 60.9462 237.11 62.013 235.846 62.0104C234.582 62.0079 233.577 60.9361 233.609 59.6146C233.64 58.293 234.696 57.2325 235.962 57.2325Z" fill="#D8DEE8"/>
<path d="M229.16 53.2176C230.432 53.2251 231.439 54.3033 231.407 55.6248C231.375 56.9463 230.317 58.0207 229.043 58.0093C227.77 57.998 226.761 56.9287 226.795 55.6034C226.828 54.2781 227.888 53.2113 229.16 53.2176Z" fill="#D8DEE8"/>
<path d="M216.383 59.5717C217.669 59.5717 218.686 60.6561 218.653 61.9852C218.62 63.3143 217.552 64.3899 216.265 64.3899C214.978 64.3899 213.958 63.308 213.991 61.9764C214.024 60.6448 215.095 59.5679 216.383 59.5717Z" fill="#D8DEE8"/>
<path d="M216.619 49.9352C217.905 49.9453 218.921 51.0298 218.888 52.3589C218.855 53.6879 217.788 54.7547 216.5 54.7547C215.213 54.7547 214.193 53.664 214.226 52.3324C214.259 51.0008 215.33 49.9264 216.619 49.9352Z" fill="#D8DEE8"/>
<path d="M219.537 115.684C220.819 115.658 221.826 116.711 221.798 118.037C221.77 119.364 220.702 120.463 219.418 120.492C218.135 120.521 217.119 119.47 217.152 118.141C217.185 116.812 218.252 115.712 219.537 115.684Z" fill="#D8DEE8"/>
<path d="M270.689 204.607C271.914 204.532 272.882 205.523 272.852 206.82C272.821 208.116 271.801 209.228 270.575 209.305C269.349 209.382 268.378 208.392 268.412 207.093C268.447 205.795 269.462 204.681 270.689 204.607Z" fill="#D8DEE8"/>
<path d="M267.154 197.772C268.384 197.702 269.354 198.697 269.317 199.995C269.28 201.294 268.264 202.405 267.035 202.478C265.806 202.551 264.83 201.558 264.862 200.256C264.894 198.955 265.921 197.843 267.154 197.772Z" fill="#D8DEE8"/>
<path d="M263.608 190.916C264.842 190.849 265.815 191.848 265.783 193.149C265.751 194.451 264.727 195.56 263.494 195.63C262.26 195.699 261.282 194.7 261.313 193.398C261.345 192.095 262.373 190.983 263.608 190.916Z" fill="#D8DEE8"/>
<path d="M260.05 184.037C261.288 183.973 262.265 184.978 262.233 186.281C262.201 187.583 261.173 188.693 259.936 188.759C258.698 188.824 257.718 187.82 257.749 186.515C257.781 185.21 258.811 184.101 260.05 184.037Z" fill="#D8DEE8"/>
<path d="M173.686 222.723C175.017 222.635 176.069 223.66 176.036 225.011C176.003 226.361 174.898 227.533 173.566 227.621C172.234 227.709 171.177 226.688 171.21 225.334C171.244 223.979 172.353 222.81 173.686 222.723Z" fill="#D8DEE8"/>
<path d="M269.913 236.322C271.139 236.23 272.107 237.205 272.076 238.503C272.044 239.802 271.025 240.926 269.799 241.025C268.573 241.125 267.601 240.143 267.636 238.844C267.672 237.545 268.686 236.419 269.913 236.322Z" fill="#D8DEE8"/>
<path d="M270.128 257.794C271.353 257.692 272.321 258.659 272.291 259.954C272.26 261.249 271.24 262.387 270.015 262.491C268.79 262.596 267.817 261.63 267.853 260.332C267.888 259.035 268.901 257.897 270.128 257.794Z" fill="#D8DEE8"/>
<path d="M165.275 215.098C166.616 215.014 167.676 216.045 167.643 217.402C167.61 218.759 166.498 219.924 165.155 220.013C163.811 220.103 162.748 219.069 162.781 217.71C162.814 216.35 163.932 215.181 165.275 215.098Z" fill="#D8DEE8"/>
<path d="M158.776 215.503C160.125 215.42 161.192 216.454 161.157 217.813C161.121 219.172 160.004 220.345 158.655 220.432C157.305 220.519 156.238 219.486 156.269 218.123C156.299 216.76 157.421 215.587 158.776 215.503Z" fill="#D8DEE8"/>
<path d="M152.041 224.148C153.396 224.059 154.467 225.093 154.434 226.456C154.401 227.819 153.276 228.999 151.92 229.091C150.564 229.183 149.486 228.151 149.519 226.785C149.553 225.419 150.68 224.238 152.041 224.148Z" fill="#D8DEE8"/>
<path d="M123.415 244.339C123.734 244.309 124.057 244.347 124.36 244.45C124.664 244.554 124.941 244.722 125.174 244.941C125.406 245.16 125.589 245.427 125.708 245.722C125.828 246.018 125.882 246.335 125.867 246.653C125.838 247.334 125.561 247.981 125.088 248.475C124.614 248.969 123.977 249.276 123.293 249.34C122.973 249.372 122.65 249.335 122.345 249.232C122.041 249.128 121.763 248.961 121.53 248.742C121.296 248.522 121.114 248.256 120.994 247.96C120.874 247.664 120.82 247.346 120.835 247.028C120.865 246.346 121.142 245.698 121.616 245.204C122.091 244.709 122.73 244.402 123.415 244.339Z" fill="#D8DEE8"/>
<path d="M119.398 237.134C119.719 237.104 120.042 237.143 120.347 237.248C120.651 237.353 120.929 237.521 121.162 237.741C121.396 237.962 121.579 238.229 121.699 238.525C121.819 238.822 121.874 239.14 121.859 239.459C121.83 240.141 121.552 240.789 121.076 241.283C120.601 241.777 119.961 242.083 119.276 242.144C118.955 242.175 118.631 242.136 118.325 242.032C118.02 241.928 117.742 241.76 117.508 241.54C117.274 241.319 117.091 241.052 116.97 240.755C116.85 240.458 116.795 240.139 116.809 239.82C116.839 239.137 117.118 238.488 117.594 237.994C118.07 237.5 118.711 237.194 119.398 237.134Z" fill="#D8DEE8"/>
<path d="M115.367 229.905C115.689 229.876 116.013 229.915 116.318 230.021C116.624 230.126 116.903 230.295 117.136 230.516C117.37 230.738 117.554 231.006 117.674 231.303C117.795 231.6 117.85 231.92 117.836 232.24C117.807 232.923 117.527 233.572 117.05 234.065C116.574 234.559 115.932 234.864 115.245 234.922C114.923 234.952 114.597 234.913 114.292 234.808C113.986 234.703 113.706 234.534 113.472 234.313C113.237 234.091 113.054 233.823 112.933 233.525C112.812 233.227 112.757 232.907 112.771 232.587C112.8 231.903 113.079 231.253 113.557 230.759C114.035 230.265 114.679 229.962 115.367 229.905Z" fill="#D8DEE8"/>
<path d="M111.322 222.649C111.645 222.621 111.971 222.661 112.277 222.768C112.583 222.874 112.863 223.044 113.098 223.266C113.332 223.489 113.516 223.758 113.637 224.057C113.758 224.355 113.814 224.676 113.8 224.997C113.77 225.681 113.49 226.33 113.011 226.824C112.532 227.317 111.888 227.62 111.2 227.675C110.876 227.704 110.549 227.664 110.242 227.558C109.935 227.451 109.655 227.281 109.419 227.058C109.184 226.835 109 226.565 108.879 226.265C108.758 225.966 108.702 225.645 108.717 225.322C108.748 224.638 109.03 223.989 109.509 223.497C109.989 223.005 110.634 222.703 111.322 222.649Z" fill="#D8DEE8"/>
<path d="M273.044 289.528C274.266 289.402 275.23 290.36 275.198 291.654C275.167 292.948 274.152 294.095 272.929 294.218C271.707 294.34 270.739 293.389 270.767 292.093C270.795 290.797 271.816 289.648 273.044 289.528Z" fill="#D8DEE8"/>
<path d="M286.245 288.233C287.454 288.114 288.408 289.061 288.376 290.348C288.344 291.634 287.341 292.774 286.132 292.896C284.924 293.018 283.97 292.07 283.999 290.781C284.028 289.493 285.037 288.352 286.245 288.233Z" fill="#D8DEE8"/>
<path d="M299.301 286.953C300.494 286.836 301.437 287.778 301.405 289.056C301.373 290.335 300.387 291.469 299.187 291.588C297.986 291.708 297.047 290.766 297.079 289.485C297.111 288.204 298.102 287.07 299.301 286.953Z" fill="#D8DEE8"/>
<path d="M308.71 282.961C309.894 282.846 310.828 283.785 310.797 285.059C310.767 286.333 309.78 287.455 308.598 287.581C307.416 287.707 306.475 286.759 306.507 285.483C306.539 284.207 307.526 283.076 308.71 282.961Z" fill="#D8DEE8"/>
<path d="M315.969 276.903C317.146 276.792 318.074 277.73 318.042 279C318.011 280.27 317.034 281.396 315.857 281.504C314.681 281.613 313.748 280.678 313.78 279.406C313.812 278.134 314.791 277.014 315.969 276.903Z" fill="#D8DEE8"/>
<path d="M323.182 270.883C324.351 270.776 325.274 271.715 325.243 272.98C325.212 274.245 324.239 275.361 323.07 275.471C321.902 275.58 320.976 274.642 321.007 273.374C321.039 272.105 322.015 270.99 323.182 270.883Z" fill="#D8DEE8"/>
<path d="M328.3 262.803C329.463 262.699 330.38 263.64 330.35 264.902C330.319 266.164 329.351 267.274 328.188 267.379C327.024 267.483 326.103 266.544 326.133 265.279C326.164 264.015 327.134 262.9 328.3 262.803Z" fill="#D8DEE8"/>
<path d="M331.404 250.364C332.566 250.268 333.48 251.213 333.45 252.474C333.419 253.735 332.454 254.837 331.287 254.935C330.121 255.034 329.206 254.091 329.238 252.827C329.27 251.564 330.243 250.461 331.404 250.364Z" fill="#D8DEE8"/>
<path d="M177.57 162.219L92.2437 165.678C92.1334 165.684 92.0229 165.668 91.9192 165.63C91.8156 165.592 91.7211 165.533 91.6419 165.457C91.5627 165.381 91.5005 165.289 91.4593 165.187C91.4182 165.085 91.3989 164.976 91.4029 164.867C91.4116 164.637 91.5069 164.419 91.6702 164.255C91.8334 164.092 92.0526 163.995 92.2844 163.984L177.611 160.589C177.716 160.585 177.82 160.603 177.917 160.641C178.014 160.679 178.103 160.736 178.176 160.81C178.25 160.884 178.307 160.972 178.345 161.069C178.382 161.165 178.399 161.269 178.393 161.373C178.387 161.59 178.3 161.797 178.147 161.954C177.995 162.11 177.789 162.205 177.57 162.219Z" fill="#D8DEE8"/>
<path d="M94.8398 164.724C94.8108 165.411 94.5237 166.063 94.0349 166.551C93.5461 167.039 92.8909 167.329 92.1979 167.362C91.8673 167.383 91.5361 167.334 91.2254 167.22C90.9148 167.106 90.6316 166.929 90.394 166.701C90.1564 166.472 89.9696 166.196 89.8457 165.892C89.7218 165.587 89.6634 165.26 89.6743 164.932C89.7031 164.244 89.991 163.591 90.4811 163.103C90.9713 162.614 91.6283 162.325 92.3226 162.293C92.6527 162.274 92.9834 162.323 93.2934 162.437C93.6033 162.551 93.8858 162.729 94.1227 162.958C94.3596 163.186 94.5458 163.462 94.6693 163.766C94.7927 164.07 94.8508 164.396 94.8398 164.724Z" fill="#D8DEE8"/>
<path d="M179.996 161.307C179.963 162.658 178.86 163.795 177.531 163.85C176.202 163.906 175.149 162.853 175.182 161.5C175.215 160.147 176.326 159.009 177.651 158.957C178.975 158.904 180.029 159.958 179.996 161.307Z" fill="#D8DEE8"/>
<path d="M33.4593 42.0452V313.639C33.4593 318.817 37.157 323.317 42.395 324.513L65.33 329.75C67.5136 330.248 69.7493 330.488 71.99 330.465C72.1655 330.465 72.3424 330.452 72.5166 330.436L76.0781 330.093L97.6025 101.872L69.5745 27.7544L43.5995 30.9611C37.8018 31.6773 33.4593 36.4262 33.4593 42.0452Z" fill="#0A2A43"/>
<path d="M61.3868 37.4892V320.653C61.3868 326.306 66.3781 330.771 72.2406 330.363L228.893 314.512C234.186 314.144 238.283 309.906 238.283 304.802V44.1183C238.283 38.9079 234.018 34.6205 228.606 34.3923L71.9519 27.7632C66.1924 27.5199 61.3868 31.9447 61.3868 37.4892Z" fill="#2D54DE"/>
<path d="M49.504 318.296V39.5787C49.504 35.401 52.7794 31.1629 56.8471 29.3281L52.193 29.9031C48.0489 31.3646 45.1602 35.1778 45.1602 39.5787V318.296C45.1659 319.749 45.485 321.183 46.0963 322.503C46.7075 323.823 47.5966 324.998 48.704 325.949L55.3182 327.462C51.8139 325.727 49.504 322.228 49.504 318.296Z" fill="#2D54DE"/>
<path d="M85.4997 62.1681V224.282C85.4997 228.994 89.4721 232.814 94.3704 232.814L210.06 228.674C214.96 228.674 218.931 224.854 218.931 220.142V66.1604C218.931 61.6031 215.207 57.8492 210.473 57.6386L94.7838 53.6463C89.7277 53.4193 85.4997 57.3007 85.4997 62.1681Z" fill="#2D54DE"/>
<path d="M214.921 220.142V66.1604C214.921 61.6031 211.196 57.8492 206.462 57.6386L92.9662 53.7434C88.7547 54.389 85.4997 57.8984 85.4997 62.1681V224.282C85.4997 228.994 89.4721 232.814 94.3704 232.814L206.05 228.674C210.95 228.674 214.921 224.854 214.921 220.142Z" fill="#0A2A43"/>
<path d="M154.871 49.6742C156.337 49.6742 157.525 47.8207 157.525 45.5344C157.525 43.248 156.337 41.3945 154.871 41.3945C153.405 41.3945 152.216 43.248 152.216 45.5344C152.216 47.8207 153.405 49.6742 154.871 49.6742Z" fill="#0A2A43"/>
<g style="mix-blend-mode:soft-light">
<path d="M190.691 135.938L119.631 137.11C114.223 137.198 109.822 141.368 109.822 146.421V190.786C109.822 195.839 114.223 199.761 119.631 199.546L190.691 196.717C195.795 196.514 199.919 192.39 199.919 187.512V144.638C199.919 139.745 195.795 135.854 190.691 135.938Z" fill="white"/>
<path d="M189.663 131.517C187.511 131.549 185.763 129.902 185.763 127.839V118.129C185.763 108.388 177.452 100.487 167.163 100.517L144.013 100.583C133.456 100.613 124.806 108.748 124.806 118.716V128.652C124.806 130.765 122.975 132.502 120.711 132.536C118.446 132.57 116.602 130.881 116.602 128.762V118.8C116.602 104.573 128.966 92.9979 144.009 92.9979H167.159C181.776 92.9979 193.548 104.241 193.548 118.06V127.741C193.551 129.792 191.811 131.486 189.663 131.517Z" fill="white"/>
<path d="M166.658 160.525C166.658 155.595 162.317 151.725 157.038 152.076C152.371 152.39 148.516 156.095 148.262 160.525C148.066 163.958 149.969 166.926 152.861 168.426C153.451 168.736 153.925 169.226 154.213 169.822C154.501 170.419 154.589 171.092 154.464 171.742L152.429 183.029C152.174 184.466 153.335 185.728 154.869 185.677L160.085 185.491C161.611 185.437 162.767 184.097 162.511 182.683L160.484 171.501C160.242 170.167 160.941 168.841 162.176 168.111C164.862 166.516 166.658 163.696 166.658 160.525Z" fill="url(#paint0_linear_89_368)"/>
</g>
<g style="mix-blend-mode:soft-light">
<path d="M128.851 269.942C128.689 269.957 128.526 269.939 128.372 269.888C128.218 269.837 128.076 269.755 127.955 269.647C127.834 269.539 127.738 269.408 127.671 269.261C127.604 269.114 127.569 268.955 127.568 268.794V265.606C127.568 262.409 124.839 259.962 121.479 260.151L113.974 260.573C110.584 260.764 107.819 263.542 107.819 266.763V269.976C107.819 270.659 107.235 271.247 106.514 271.29C105.793 271.333 105.206 270.816 105.206 270.133V266.917C105.206 262.327 109.15 258.374 113.974 258.108L121.479 257.693C126.259 257.428 130.128 260.911 130.128 265.456V268.64C130.118 268.976 129.981 269.296 129.745 269.537C129.509 269.778 129.19 269.923 128.851 269.942Z" fill="white"/>
<path d="M129.191 271.379L106.168 272.783C104.448 272.888 103.054 274.297 103.054 275.919V290.209C103.054 291.836 104.453 293.06 106.168 292.94L129.191 291.353C130.875 291.237 132.244 289.84 132.244 288.229V274.106C132.236 272.497 130.875 271.277 129.191 271.379ZM119.262 282.697C119.068 282.81 118.913 282.977 118.815 283.177C118.717 283.377 118.681 283.602 118.712 283.822L119.371 287.446C119.386 287.56 119.378 287.676 119.346 287.786C119.313 287.897 119.259 288 119.185 288.088C119.111 288.177 119.019 288.249 118.915 288.301C118.812 288.352 118.698 288.382 118.582 288.388L116.893 288.502C116.782 288.514 116.669 288.5 116.564 288.461C116.459 288.423 116.364 288.36 116.288 288.279C116.211 288.198 116.155 288.1 116.123 287.994C116.091 287.887 116.085 287.775 116.105 287.666L116.761 283.971C116.804 283.762 116.776 283.545 116.682 283.354C116.588 283.162 116.434 283.006 116.242 282.91C115.77 282.686 115.376 282.327 115.111 281.879C114.847 281.43 114.724 280.914 114.758 280.396C114.839 278.955 116.084 277.701 117.594 277.537C119.306 277.353 120.717 278.56 120.717 280.169C120.707 280.678 120.569 281.176 120.315 281.617C120.061 282.059 119.698 282.43 119.262 282.697Z" fill="white"/>
</g>
<g style="mix-blend-mode:multiply" opacity="0.6">
<path d="M147.745 274.231C147.745 289.993 134.398 303.756 117.735 304.992C100.846 306.244 86.9866 294.181 86.9866 278.034C86.9866 261.887 100.851 248.089 117.735 247.227C134.398 246.381 147.745 258.471 147.745 274.231Z" fill="#2D54DE"/>
</g>
<g style="mix-blend-mode:multiply" opacity="0.6">
<path d="M219.932 269.709C219.932 285.009 207.356 298.344 191.659 299.507C175.759 300.686 162.712 288.955 162.712 273.291C162.712 257.627 175.758 244.262 191.659 243.45C207.356 242.652 219.932 254.412 219.932 269.709Z" fill="#2D54DE"/>
</g>
<g style="mix-blend-mode:soft-light">
<path d="M201.05 265.548C200.909 265.481 200.783 265.387 200.68 265.27C200.577 265.153 200.499 265.017 200.451 264.869C200.404 264.721 200.387 264.565 200.402 264.411C200.418 264.257 200.465 264.107 200.541 263.972L202.006 261.148C203.475 258.32 202.404 254.969 199.614 253.682L193.39 250.794C190.579 249.493 187.077 250.743 185.588 253.586L184.102 256.423C183.953 256.711 183.7 256.933 183.393 257.043C183.086 257.153 182.749 257.144 182.448 257.017C182.306 256.95 182.179 256.854 182.076 256.736C181.972 256.618 181.894 256.48 181.847 256.331C181.799 256.182 181.783 256.025 181.799 255.87C181.815 255.714 181.863 255.564 181.94 255.427L183.428 252.587C185.549 248.541 190.537 246.767 194.535 248.622L200.752 251.505C204.718 253.344 206.239 258.102 204.153 262.123L202.691 264.944C202.547 265.234 202.297 265.458 201.992 265.57C201.686 265.682 201.349 265.674 201.05 265.548Z" fill="white"/>
<path d="M202.449 266.911L180.773 268.234C179.154 268.332 177.848 269.693 177.848 271.271V285.142C177.848 286.721 179.16 287.91 180.773 287.799L202.449 286.297C204.036 286.188 205.322 284.832 205.322 283.271V269.563C205.326 269.197 205.252 268.834 205.106 268.498C204.96 268.161 204.745 267.859 204.475 267.609C204.205 267.36 203.885 267.169 203.536 267.049C203.187 266.928 202.817 266.882 202.449 266.911ZM193.094 277.882C192.91 277.994 192.763 278.157 192.671 278.35C192.579 278.544 192.546 278.76 192.576 278.972L193.197 282.49C193.212 282.599 193.205 282.71 193.176 282.816C193.146 282.922 193.095 283.021 193.026 283.106C192.956 283.192 192.87 283.262 192.771 283.313C192.673 283.364 192.566 283.394 192.455 283.402L190.864 283.509C190.757 283.519 190.649 283.504 190.549 283.465C190.45 283.427 190.36 283.366 190.288 283.287C190.216 283.208 190.163 283.114 190.134 283.012C190.105 282.909 190.101 282.802 190.121 282.697L190.738 279.112C190.779 278.911 190.753 278.703 190.666 278.517C190.578 278.332 190.433 278.179 190.251 278.082C189.801 277.856 189.429 277.504 189.18 277.07C188.931 276.635 188.817 276.138 188.852 275.639C188.928 274.241 190.102 273.027 191.523 272.865C193.134 272.689 194.463 273.863 194.463 275.425C194.458 275.915 194.329 276.395 194.09 276.823C193.851 277.251 193.509 277.614 193.094 277.879V277.882Z" fill="white"/>
</g>
<g style="mix-blend-mode:soft-light" opacity="0.3">
<path d="M228.606 34.3859L97.6203 28.8489C97.6549 30.3801 97.767 31.9087 97.9561 33.4288C101.476 61.6081 128.808 66.1086 139.33 97.487C148.971 126.245 129.58 133.077 140.983 158.368C151.668 182.067 171.628 182.565 183.594 212.484C188.848 225.612 186.197 266.158 190.628 279.99C194.419 291.824 201.519 300.874 215.316 315.454L228.888 314.507C234.181 314.139 238.278 309.9 238.278 304.797V44.1182C238.283 38.9015 234.018 34.6141 228.606 34.3859Z" fill="white"/>
</g>
<path d="M227.141 336.214C227.184 336.214 227.228 336.205 227.268 336.188C227.308 336.172 227.345 336.147 227.376 336.117C227.407 336.086 227.431 336.05 227.448 336.01C227.464 335.969 227.473 335.927 227.473 335.883V206.097C227.473 206.01 227.438 205.926 227.375 205.865C227.313 205.803 227.229 205.768 227.141 205.768C227.053 205.768 226.968 205.803 226.906 205.865C226.844 205.926 226.809 206.01 226.809 206.097V335.883C226.808 335.927 226.817 335.969 226.833 336.01C226.85 336.05 226.875 336.086 226.905 336.117C226.936 336.147 226.973 336.172 227.013 336.188C227.054 336.205 227.097 336.214 227.141 336.214Z" fill="#0A2A43"/>
<path d="M262.411 328.06C262.499 328.06 262.584 328.025 262.646 327.964C262.708 327.902 262.743 327.818 262.743 327.731V202.824C262.743 202.736 262.708 202.653 262.646 202.591C262.584 202.529 262.499 202.495 262.411 202.495C262.323 202.495 262.239 202.529 262.176 202.591C262.114 202.653 262.079 202.736 262.079 202.824V327.731C262.079 327.818 262.114 327.902 262.176 327.964C262.239 328.025 262.323 328.06 262.411 328.06Z" fill="#0A2A43"/>
<path d="M343.955 333.877C343.994 333.877 344.032 333.87 344.068 333.857C344.109 333.842 344.147 333.82 344.179 333.79C344.212 333.761 344.238 333.726 344.256 333.687C344.275 333.647 344.285 333.605 344.287 333.562C344.289 333.518 344.282 333.475 344.267 333.434L297.118 204.642C297.105 204.599 297.083 204.56 297.054 204.526C297.025 204.492 296.989 204.464 296.949 204.444C296.909 204.424 296.865 204.413 296.82 204.41C296.775 204.408 296.73 204.414 296.688 204.429C296.645 204.445 296.607 204.468 296.574 204.499C296.541 204.529 296.515 204.566 296.497 204.607C296.479 204.648 296.469 204.692 296.469 204.737C296.469 204.781 296.478 204.825 296.495 204.867L343.638 333.659C343.661 333.724 343.704 333.779 343.761 333.818C343.818 333.858 343.886 333.878 343.955 333.877Z" fill="#0A2A43"/>
<path d="M309.149 343.955C309.182 343.955 309.215 343.95 309.247 343.94C309.288 343.927 309.327 343.907 309.361 343.879C309.395 343.852 309.422 343.818 309.443 343.779C309.463 343.741 309.476 343.699 309.479 343.656C309.483 343.613 309.479 343.57 309.465 343.529L267.151 207.74C267.138 207.699 267.117 207.66 267.089 207.627C267.061 207.594 267.027 207.566 266.988 207.546C266.95 207.526 266.907 207.513 266.864 207.509C266.82 207.505 266.776 207.509 266.735 207.522C266.693 207.535 266.654 207.556 266.62 207.583C266.587 207.611 266.559 207.645 266.538 207.683C266.518 207.721 266.505 207.763 266.501 207.807C266.497 207.85 266.502 207.893 266.515 207.935L308.831 343.729C308.853 343.795 308.896 343.853 308.953 343.893C309.01 343.934 309.078 343.955 309.149 343.955Z" fill="#0A2A43"/>
<path d="M262.022 202.694L226.641 205.29V206.08L267.077 207.877L297.3 204.205V203.416L262.022 202.694Z" fill="#D8DEE8"/>
<path d="M262.022 201.906L226.641 205.29L267.077 207.087L297.3 203.416L262.022 201.906Z" fill="#2D54DE"/>
<path d="M299.993 314.579C300.022 314.579 300.05 314.575 300.078 314.567L333.768 305.806C333.81 305.795 333.85 305.776 333.884 305.75C333.919 305.724 333.948 305.691 333.97 305.654C333.992 305.616 334.006 305.575 334.012 305.532C334.018 305.489 334.015 305.446 334.004 305.404C333.993 305.362 333.974 305.323 333.948 305.288C333.921 305.254 333.888 305.225 333.85 305.203C333.813 305.181 333.771 305.167 333.728 305.161C333.685 305.156 333.641 305.158 333.599 305.169L299.909 313.931C299.83 313.95 299.762 313.998 299.716 314.065C299.67 314.131 299.651 314.212 299.661 314.292C299.672 314.371 299.711 314.445 299.772 314.498C299.833 314.55 299.912 314.579 299.993 314.579Z" fill="#0A2A43"/>
<path d="M290.451 283.841C290.47 283.843 290.489 283.843 290.508 283.841L323.572 278.04C323.658 278.025 323.736 277.976 323.786 277.905C323.837 277.833 323.857 277.744 323.841 277.658C323.826 277.572 323.777 277.496 323.704 277.446C323.632 277.395 323.543 277.376 323.456 277.391L290.393 283.192C290.312 283.206 290.238 283.25 290.188 283.315C290.137 283.381 290.113 283.462 290.12 283.544C290.128 283.626 290.166 283.702 290.227 283.758C290.288 283.814 290.368 283.845 290.451 283.845V283.841Z" fill="#0A2A43"/>
<path d="M280.528 252.114C280.542 252.116 280.557 252.116 280.571 252.114L312.569 248.02C312.612 248.014 312.654 248.001 312.692 247.979C312.73 247.957 312.763 247.929 312.789 247.895C312.816 247.86 312.836 247.821 312.847 247.779C312.858 247.738 312.861 247.694 312.856 247.651C312.85 247.608 312.836 247.567 312.814 247.529C312.793 247.492 312.764 247.459 312.729 247.433C312.695 247.406 312.655 247.387 312.613 247.376C312.571 247.364 312.527 247.361 312.484 247.367L280.486 251.456C280.402 251.467 280.325 251.508 280.271 251.573C280.217 251.637 280.19 251.72 280.196 251.804C280.201 251.887 280.238 251.966 280.3 252.023C280.362 252.08 280.443 252.112 280.528 252.112V252.114Z" fill="#0A2A43"/>
<path d="M274.169 230.099C274.187 230.1 274.204 230.1 274.221 230.099L304.306 225.433C304.393 225.42 304.471 225.373 304.523 225.302C304.575 225.232 304.597 225.144 304.584 225.057C304.57 224.971 304.522 224.894 304.451 224.842C304.38 224.791 304.291 224.769 304.204 224.783L274.118 229.448C274.036 229.461 273.961 229.504 273.909 229.569C273.857 229.634 273.831 229.716 273.838 229.799C273.844 229.882 273.882 229.959 273.943 230.015C274.005 230.072 274.086 230.103 274.169 230.103V230.099Z" fill="#0A2A43"/>
<path d="M246.293 199.144C246.293 199.144 237.253 203.217 237.105 203.868C236.958 204.518 242.918 203.649 245.351 203.741C247.785 203.833 249.787 203.122 249.567 202.102C249.347 201.082 248.494 198.51 248.494 198.51L246.293 199.144Z" fill="#0A2A43"/>
<path d="M245.673 195.505L246.223 199.54C246.223 199.54 247.654 200.045 248.615 199.448L249.025 195.022L245.673 195.505Z" fill="#FA9B4D"/>
<path d="M288.242 195.602L289.294 197.275C289.44 197.506 289.536 197.764 289.578 198.033C289.619 198.302 289.604 198.577 289.535 198.84C289.167 200.227 288.433 202.944 288.113 203.65C287.676 204.613 281.827 205.186 281.827 205.186C281.827 205.186 281.305 204.458 282.52 203.579C283.735 202.7 284.516 202.561 284.944 201.264C285.373 199.966 285.658 196.298 285.658 196.298L288.242 195.602Z" fill="#0A2A43"/>
<path d="M283.867 191.349C284.248 191.653 286.13 197.306 286.13 197.306C286.13 197.306 286.738 198.077 287.893 196.939C289.048 195.8 288.415 196.434 288.415 196.434L288.199 190.873L283.867 191.349Z" fill="#FA9B4D"/>
<path d="M240.7 114.445C240.223 126.48 240.202 139.556 240.902 153.525C241.688 169.256 243.268 183.789 245.26 196.974C246.001 196.998 246.779 197.002 247.591 196.974C248.141 196.959 248.673 196.933 249.186 196.897C250.501 193.422 251.619 189.876 252.536 186.277C253.574 182.185 254.355 178.032 254.875 173.844C256.615 160.211 254.575 159.022 255.988 148.92C257.239 139.967 259.019 139.623 261.107 126.92C263.373 113.136 261.686 111.069 260.866 110.321C257.373 107.146 249.169 109.311 240.7 114.445Z" fill="url(#paint1_linear_89_368)"/>
<path style="mix-blend-mode:multiply" opacity="0.3" d="M260.866 110.326C257.534 107.3 249.917 109.13 241.87 113.759C251.126 123.674 252.136 130.105 251.028 134.278C249.774 138.995 245.962 140.353 245.976 145.511C245.994 151.848 251.763 153.527 251.641 160.234C251.56 164.667 249.025 164.622 248.426 170.1C247.717 176.58 251.03 178.813 249.952 183.609C249.49 185.67 248.171 188.366 244.422 191.143C244.691 193.113 244.969 195.061 245.259 196.974C245.998 196.997 246.776 197.002 247.589 196.974C248.138 196.959 248.67 196.933 249.184 196.897C250.498 193.422 251.616 189.877 252.533 186.278C253.571 182.185 254.352 178.032 254.872 173.844C256.612 160.211 254.572 159.022 255.985 148.92C257.237 139.967 259.016 139.623 261.105 126.92C263.377 113.141 261.686 111.077 260.866 110.326Z" fill="url(#paint2_linear_89_368)"/>
<path d="M246.433 114.242C263.154 138.487 275.777 165.273 283.805 193.545C284.638 193.93 285.564 194.072 286.476 193.957C287.645 193.791 288.717 193.217 289.498 192.337C290.527 185.993 290.76 179.547 290.191 173.146C289.916 170.091 289.428 165.003 287.468 158.722C285.267 151.686 283.755 151.291 280.884 143.842C277.905 136.115 278.626 134.188 275.773 124.519C274.057 118.725 271.928 113.06 269.402 107.565L246.433 114.242Z" fill="url(#paint3_linear_89_368)"/>
<path d="M209.636 128.915C211.168 131.278 216.444 131.002 220.047 129.724C228.471 126.738 233.867 116.121 234.337 107.665C234.439 105.85 234.374 104.076 234.746 104.023C235.679 103.887 238.076 114.859 239.961 124.162C241.473 124.711 243.765 125.297 246.386 124.867C250.673 124.171 251.185 121.53 255.98 119.808C258.778 118.799 261.521 118.799 267.004 118.799C273.195 118.799 273.364 119.556 274.557 119.001C274.746 118.897 274.929 118.783 275.105 118.66C279.514 115.523 266.902 91.6752 270.534 69.671C270.937 67.2259 271.552 64.7153 270.179 62.2664C266.618 55.9413 252.546 55.0486 243.828 59.2123C241.439 60.3535 237.437 62.849 233.863 65.4807C232.434 66.5324 230.949 67.7089 229.398 69.0506C225.641 72.3052 223.023 74.5712 220.867 77.7161C212.174 90.3953 222.222 100.964 214.336 117.185C211.62 122.752 208.03 126.441 209.636 128.915Z" fill="url(#paint4_linear_89_368)"/>
<path d="M233.009 56.9236C233.009 56.9236 235.274 59.472 237.706 60.7923C239.904 61.9852 244.75 59.9752 245.872 59.7394C246.994 59.5036 245.648 62.4959 243.531 64.5589C241.415 66.6218 234.424 71.3405 232.539 71.4186C230.654 71.4968 232.842 69.8613 234 67.9547C235.159 66.0481 233.526 62.1063 232.064 60.8932C230.603 59.6801 233.009 56.9236 233.009 56.9236Z" fill="#FA9B4D"/>
<path d="M222.382 132.656C222.382 132.656 219.056 134.03 216.741 134.236C214.426 134.442 213.832 136.237 214.436 136.938C215.04 137.639 218.735 137.092 219.993 136.472C221.251 135.851 222.382 132.656 222.382 132.656Z" fill="#FA9B4D"/>
<path d="M227.81 58.9172C225.241 58.7243 222.647 55.5882 223.171 54.2201C223.321 53.8279 223.654 53.7661 228.681 52.9452C231.178 52.5379 232.426 52.3702 233.289 53.0536C233.816 53.471 234.227 54.215 234.356 54.9186C234.423 55.2806 234.426 55.7786 234.364 56.771C234.308 57.6537 234.325 57.6134 234.302 57.8744C234.246 58.4986 234.074 59.5982 233.46 61.1227C233.149 60.7811 232.808 60.4671 232.442 60.1845C231.964 59.8169 231.441 59.511 230.885 59.2741C229.604 58.7647 228.643 58.9803 227.81 58.9172Z" fill="url(#paint5_linear_89_368)"/>
<path d="M234.398 59.4241C234.398 59.4241 234.284 61.8603 231.969 62.9296C229.896 63.8867 227.143 59.5956 227.899 57.9575C228.153 57.4103 228.933 56.8226 229.734 56.6322C230.207 56.5225 230.439 56.6171 231.21 56.4242C231.919 56.2464 232.057 56.0824 232.331 56.1379C232.675 56.206 233.111 56.5931 233.438 58.1063C233.609 57.5162 233.985 57.1202 234.395 57.0975C234.539 57.0974 234.68 57.1367 234.803 57.211C235.366 57.5641 235.257 58.4682 234.398 59.4241Z" fill="#FA9B4D"/>
<path d="M289.796 108.585C293.267 106.898 300.76 102.578 303.065 94.6208C306.9 81.3729 293.258 68.7365 286.215 64.0078C278.139 58.5856 270.025 57.7117 265.094 57.1796C258.976 56.5201 255.241 56.1178 252.436 58.3939C245.186 64.284 249.544 83.7158 256.724 85.7157C259.075 86.3702 259.964 84.6653 264.89 83.4888C266.494 83.1105 278.466 80.2468 284.691 86.5253C289.049 90.9186 289.605 98.7947 286.529 106.156L289.796 108.585Z" fill="url(#paint6_linear_89_368)"/>
<path d="M158.282 153.754L169.535 157.074C170.241 157.279 170.999 157.215 171.659 156.895L177.366 154.162L176.059 151.16L180.979 148.797L179.861 151.345L182.289 151.805L186.912 149.592L185.706 146.818L191.735 143.918L192.945 146.692L195.199 145.628L194.575 144.197L199.663 141.757L197.86 142.731L200.287 143.192L204.259 141.29L202.939 138.255L205.783 136.889L204.677 139.467L207.104 139.928L209.576 138.744L208.253 135.703L213.214 133.323L212.112 135.911L214.539 136.371L224.551 131.579C231.001 138.876 240.56 142.773 250.539 142.272H250.564C250.818 142.26 251.076 142.244 251.337 142.224H251.412C251.676 142.204 251.938 142.181 252.201 142.156H252.215C252.759 142.103 253.304 142.03 253.85 141.956L253.954 141.939C254.179 141.905 254.404 141.869 254.63 141.831L254.806 141.799C255.018 141.763 255.23 141.722 255.442 141.682L255.604 141.651C256.131 141.545 256.659 141.427 257.187 141.296L257.333 141.258C257.542 141.205 257.749 141.151 257.958 141.095L258.189 141.03C258.374 140.979 258.558 140.926 258.743 140.87L258.982 140.799L259.581 140.61L259.755 140.555C260.01 140.471 260.267 140.383 260.526 140.291L260.661 140.242L261.287 140.011L261.541 139.913C261.714 139.846 261.886 139.778 262.059 139.709L262.328 139.598C262.503 139.526 262.678 139.45 262.853 139.375L263.09 139.272C263.345 139.161 263.596 139.048 263.843 138.931C281.507 130.655 289.934 109.905 282.444 92.689C274.953 75.4727 254.525 68.6457 237.047 77.3478C236.799 77.4714 236.553 77.5974 236.309 77.7261L236.08 77.8522C235.91 77.943 235.741 78.0342 235.571 78.1258L235.317 78.2695C235.154 78.3603 234.994 78.4537 234.833 78.547L234.598 78.6844C234.405 78.7992 234.217 78.9164 234.023 79.0337L233.896 79.1094C233.663 79.2544 233.433 79.4032 233.204 79.5532L233.05 79.6554C232.874 79.7722 232.698 79.8908 232.524 80.011L232.316 80.1547C232.158 80.2674 231.999 80.38 231.841 80.4927L231.642 80.6352C231.467 80.7613 231.292 80.8949 231.119 81.0261C231.079 81.0576 231.035 81.0879 230.992 81.1206C230.555 81.4569 230.126 81.8003 229.706 82.1509L229.579 82.2631C229.409 82.4043 229.244 82.5468 229.083 82.6906L228.944 82.8167C228.77 82.9705 228.598 83.1256 228.428 83.282L228.344 83.3589C227.931 83.7414 227.528 84.1319 227.135 84.5304L227.12 84.5455C226.932 84.7355 226.746 84.9284 226.562 85.1243L226.505 85.1861C226.324 85.3778 226.146 85.5707 225.97 85.7649L225.947 85.7901C219.079 93.4304 215.644 103.604 216.679 113.515L158.922 141.672C158.456 141.904 158.053 142.244 157.748 142.663C157.443 143.082 157.245 143.569 157.17 144.081L156.232 150.454C156.216 150.562 156.208 150.672 156.202 150.779C156.202 150.81 156.202 150.841 156.202 150.871C156.202 150.953 156.202 151.034 156.202 151.114C156.202 151.142 156.202 151.17 156.202 151.196C156.211 151.298 156.225 151.399 156.243 151.498C156.34 152.023 156.582 152.512 156.942 152.91C157.302 153.309 157.766 153.6 158.282 153.754ZM267.418 107.514C263.846 109.229 259.739 107.817 258.237 104.362C256.734 100.907 258.398 96.7077 261.962 94.9751C265.526 93.2425 269.667 94.6384 271.176 98.11C272.686 101.581 271.008 105.794 267.421 107.514H267.418Z" fill="#74FFC8"/>
<path d="M240.312 122.403L212.107 135.907L210.78 132.858L205.826 135.237L207.15 138.28L204.679 139.463L203.356 136.424L200.513 137.79L201.833 140.825L197.861 142.728L197.236 141.291L192.146 143.736L192.769 145.169L190.514 146.248L189.306 143.468L183.275 146.368L184.482 149.142L179.859 151.356L178.55 148.348L173.63 150.71L174.936 153.713L169.23 156.445C168.569 156.765 167.811 156.83 167.105 156.625L155.851 153.305C154.452 152.892 153.589 151.49 153.809 149.996L154.75 143.61C154.824 143.099 155.022 142.612 155.327 142.193C155.631 141.774 156.034 141.433 156.5 141.202L226.566 107.047L240.312 122.403Z" fill="#77DDFF"/>
<path d="M234.618 76.8876C217.379 85.4698 209.498 105.956 216.811 122.748C224.123 139.541 243.99 146.618 261.413 138.455C279.077 130.179 287.505 109.43 280.014 92.2136C272.523 74.9973 252.097 68.1855 234.618 76.8876ZM259.539 94.5162C263.113 92.7785 267.243 94.1808 268.753 97.651C270.263 101.121 268.576 105.334 264.993 107.053C261.41 108.772 257.316 107.357 255.812 103.9C254.309 100.444 255.975 96.2488 259.539 94.5162Z" fill="#77DDFF"/>
<g style="mix-blend-mode:multiply">
<path d="M214.257 113.048L156.5 141.203C156.034 141.435 155.632 141.774 155.327 142.194C155.022 142.613 154.824 143.099 154.75 143.61L153.811 149.983C153.741 150.434 153.775 150.895 153.91 151.332C154.044 151.769 154.276 152.17 154.588 152.505C161.966 151.836 166.809 149.407 170.077 146.899C173.766 144.063 174.804 141.624 179.711 139.087C186.759 135.444 189.087 138.151 197.108 135.22C206.734 131.701 209.352 125.645 213.958 126.871C215.6 127.307 217.519 128.684 219.108 132.553L222.117 131.111C231.432 141.647 247.228 145.096 261.406 138.453C279.07 130.177 287.498 109.427 280.008 92.2111C272.517 74.9948 252.097 68.1829 234.618 76.885C220.589 83.8721 212.761 98.7341 214.257 113.048ZM264.993 107.053C261.422 108.769 257.316 107.357 255.812 103.9C254.309 100.444 255.975 96.2462 259.539 94.5136C263.103 92.781 267.243 94.1782 268.753 97.6484C270.263 101.119 268.576 105.334 264.993 107.053Z" fill="#77DDFF"/>
</g>
<path d="M237.248 82.9289C223.358 89.8038 216.983 106.289 222.874 119.819C228.766 133.349 244.775 139.016 258.783 132.414C272.947 125.731 279.676 109.086 273.666 95.2777C267.656 81.4699 251.293 75.9771 237.248 82.9289ZM259.539 94.5161C263.113 92.7785 267.243 94.1807 268.753 97.6509C270.263 101.121 268.576 105.334 264.993 107.053C261.41 108.772 257.316 107.357 255.812 103.9C254.309 100.444 255.975 96.2487 259.539 94.5161Z" fill="#77DDFF"/>
<path d="M289.095 108.064L287.257 106.697C287.257 106.697 286.104 107.489 284.695 107.381C283.932 107.321 282.907 107.779 282.678 108.02C282.449 108.261 281.378 108.843 282.909 108.692C284.441 108.541 284.69 108.963 284.474 109.722C284.257 110.481 282.982 112.606 282.333 113.061C281.684 113.517 283.546 113.818 284.312 113.542C285.078 113.266 286.303 112.758 287.196 111.113C287.521 110.514 289.095 108.064 289.095 108.064Z" fill="#FA9B4D"/>
<path d="M108.487 65.4428C112.557 65.7821 116.159 62.5148 116.532 58.1442C116.905 53.7737 113.903 49.9478 109.831 49.6137C109.62 49.596 109.412 49.5947 109.203 49.596C109.013 47.367 108.659 45.1548 108.143 42.9771C108.337 42.8989 108.525 42.8182 108.72 42.7249C112.431 40.8334 114.05 36.0946 112.336 32.1389C110.621 28.1832 106.223 26.5098 102.511 28.4013C102.316 28.4997 102.129 28.6106 101.95 28.7254C100.746 26.9214 99.4038 25.2123 97.9345 23.6133C98.0693 23.4393 98.2029 23.2628 98.3263 23.0736C100.683 19.4584 99.887 14.5178 96.5455 12.0375C93.204 9.55711 88.5855 10.4776 86.2285 14.0929C86.1013 14.2783 86.0008 14.4712 85.8965 14.6603C83.9988 13.7534 82.0275 13.0063 80.0035 12.4271C80.0391 12.2064 80.0722 11.9858 80.0912 11.7588C80.4626 7.38821 81.2665 2.4527 77.1898 2.17529C67.7594 1.5347 65.7179 6.15496 65.3465 10.5268C65.3274 10.7525 65.3223 10.977 65.321 11.2002C63.2278 11.4358 61.1582 11.8454 59.1342 12.4246C59.0629 12.2191 58.9904 12.0135 58.9027 11.8105C57.188 7.85477 57.4971 5.21679 53.6011 6.69845C45.1043 9.93036 43.7458 14.7032 45.4604 18.6589C45.5495 18.8645 45.6499 19.0612 45.7542 19.2554C44.0359 20.5881 42.4242 22.0506 40.9335 23.6297C40.7732 23.486 40.6091 23.346 40.4348 23.2174C37.0946 20.737 32.4748 21.6576 30.1178 25.2728C27.7609 28.8881 28.5571 33.8286 31.8986 36.309C32.0703 36.4351 32.2459 36.5486 32.4239 36.6583C31.5477 38.7195 30.825 40.8415 30.2616 43.0073C30.0568 42.9708 29.8507 42.938 29.6396 42.9203C25.5693 42.5811 21.9657 45.8484 21.5943 50.2189C21.2229 54.5895 24.2235 58.4091 28.2951 58.7495C28.5063 58.7672 28.7149 58.7684 28.9222 58.7672C29.1124 60.9962 29.4669 63.2084 29.983 65.3861C29.7897 65.4643 29.6014 65.545 29.4068 65.6383C25.6952 67.5298 24.076 72.2686 25.7893 76.2243C27.5027 80.18 31.9024 81.8534 35.6153 79.9619C35.8087 79.8635 35.9969 79.7526 36.1763 79.6378C37.38 81.4415 38.7221 83.1505 40.1906 84.7498C40.0558 84.9239 39.9235 85.1004 39.8001 85.2895C37.4419 88.9048 38.2394 93.8466 41.5809 96.3257C44.9224 98.8048 52.1536 97.6712 54.5105 94.0559C54.6377 93.8706 52.1268 93.8945 52.2311 93.7029C54.1287 94.61 56.1001 95.3571 58.1242 95.9361C58.0873 96.1567 58.0542 96.3787 58.0352 96.6044C57.6638 100.975 60.6643 104.801 64.7359 105.134C68.8075 105.467 72.4098 102.207 72.7812 97.8351C72.8003 97.6094 72.8054 97.3849 72.8066 97.1618C74.8999 96.9262 76.9695 96.5166 78.9935 95.9373C79.0635 96.1429 79.1372 96.3484 79.225 96.5514C80.9396 100.507 85.3381 102.18 89.051 100.289C92.7639 98.3975 94.3819 93.6587 92.6673 89.7043C92.5782 89.4975 92.4765 89.3008 92.3734 89.1066C94.0914 87.7739 95.7031 86.3119 97.1942 84.7334C97.3545 84.8759 97.5173 85.0159 97.6928 85.1445C101.033 87.6249 105.652 86.7044 108.01 83.0891C110.368 79.4739 109.571 74.5333 106.229 72.053C106.059 71.9269 105.882 71.8134 105.705 71.7049C106.58 69.6434 107.303 67.5214 107.867 65.3558C108.068 65.3924 108.276 65.429 108.487 65.4428ZM66.621 82.9151C51.8368 81.6806 40.9449 67.8148 42.2932 51.9452C43.6415 36.0757 56.7199 24.2111 71.5041 25.4456C86.2883 26.6801 97.179 40.5459 95.8307 56.4154C94.4824 72.285 81.4052 84.1496 66.621 82.9151Z" fill="#2D54DE"/>
<path d="M108.72 42.721C112.431 40.8295 114.05 36.0907 112.336 32.135C110.621 28.1793 106.223 26.506 102.511 28.3975C102.316 28.4958 102.129 28.6068 101.95 28.7215C100.746 26.9176 99.4038 25.2084 97.9345 23.6095C98.0706 23.4355 98.2029 23.2589 98.3263 23.0698C100.683 19.4545 102.495 12.2833 98.9152 10.156C92.1216 6.12084 88.5855 10.4738 86.2285 14.089C86.1013 14.2744 86.0008 14.4673 85.8965 14.6565C83.9988 13.7495 82.0275 13.0025 80.0035 12.4233C80.0391 12.2026 80.0721 11.9819 80.0912 11.7549C80.1947 10.6443 80.0686 9.52447 79.7206 8.46382C79.3726 7.40317 78.8102 6.424 78.0675 5.58618C77.1602 12.4207 76.3122 19.262 75.5236 26.11C88.2115 29.2764 97.0594 42.0212 95.8357 56.4154C94.8003 68.6142 86.8301 78.4373 76.4864 81.7738C76.5106 83.1067 76.5449 84.4434 76.5322 85.7787C76.4992 89.4016 76.2613 93.032 76.0234 96.6598C77.0275 96.4581 78.0192 96.2176 78.9986 95.9385C79.0685 96.1441 79.1423 96.3496 79.2301 96.5526C80.9447 100.508 84.7746 102.913 91.6039 99.7354C95.3829 97.9776 94.387 93.6599 92.6723 89.7055C92.5833 89.4987 92.4815 89.3019 92.3785 89.1078C94.0962 87.7748 95.7079 86.3128 97.1993 84.7346C97.3596 84.8771 97.5224 85.0171 97.6979 85.1457C101.038 87.6261 108.533 86.234 110.89 82.6237C113.247 79.0135 109.576 74.5395 106.234 72.0592C106.064 71.9331 105.887 71.8196 105.71 71.7099C106.586 69.6491 107.309 67.5275 107.872 65.3621C108.077 65.3974 108.283 65.4302 108.493 65.4478C112.563 65.787 116.167 62.5198 116.538 58.1492C116.91 53.7786 113.911 49.9528 109.839 49.6186C109.628 49.601 109.419 49.5997 109.211 49.601C109.021 47.3724 108.667 45.1606 108.151 42.9833C108.337 42.8988 108.529 42.8181 108.72 42.721Z" fill="#2D54DE"/>
<path d="M112.285 64.3899C116.355 64.7304 119.959 61.4619 120.33 57.0913C120.702 52.7207 117.701 48.8949 113.629 48.562C113.418 48.5443 113.21 48.5418 113.002 48.5431C112.812 46.3145 112.458 44.1027 111.942 41.9254C112.135 41.8472 112.323 41.7653 112.518 41.6732C116.229 39.7817 117.849 35.0429 116.135 31.0809C114.422 27.1189 110.022 25.4556 106.309 27.3471C106.116 27.4467 105.928 27.5577 105.748 27.6712C104.545 25.866 103.203 24.1556 101.734 22.5554C101.869 22.3814 102.001 22.2036 102.124 22.0144C104.483 18.4004 103.685 13.4586 100.344 10.9782C97.0022 8.49787 92.3836 9.41966 90.0254 13.0349C89.8982 13.2203 89.7977 13.4132 89.6934 13.6024C87.7958 12.6948 85.8245 11.9473 83.8003 11.3679C83.8359 11.1485 83.8703 10.9265 83.8894 10.6996C84.2608 6.32897 81.2602 2.5107 77.1886 2.17023C73.117 1.82977 69.5147 5.09824 69.1433 9.46883C69.1243 9.69455 69.1192 9.91901 69.1179 10.1422C67.0245 10.3777 64.9549 10.7878 62.931 11.3679C62.861 11.1611 62.7873 10.9555 62.6995 10.7525C60.9849 6.79806 56.5864 5.12473 52.8748 7.01495C49.1631 8.90517 47.5426 13.6452 49.2573 17.6073C49.3463 17.8141 49.4481 18.0108 49.5511 18.205C47.8328 19.5372 46.2211 20.9993 44.7303 22.5781C44.57 22.4356 44.4072 22.2956 44.2317 22.1657C40.8915 19.6854 36.2717 20.6059 33.9147 24.2211C31.5577 27.8364 32.3552 32.7694 35.6929 35.2535C35.8634 35.3796 36.0402 35.4931 36.217 35.6028C35.3408 37.664 34.6181 39.786 34.0546 41.9519C33.8498 41.9153 33.6438 41.8838 33.4326 41.8661C29.3623 41.5257 25.7588 44.7929 25.3886 49.1647C25.0185 53.5366 28.0165 57.3612 32.0881 57.6941C32.2993 57.7117 32.5079 57.7142 32.7165 57.713C32.9092 59.9418 33.2663 62.1536 33.7849 64.3306C33.5916 64.4088 33.4034 64.4908 33.2087 64.5828C29.4971 66.4743 27.8779 71.2144 29.5925 75.1688C31.3071 79.1233 35.7056 80.7979 39.4173 78.9064C39.6106 78.8081 39.7989 78.6971 39.9782 78.5836C41.1823 80.387 42.5248 82.0956 43.9938 83.6944C43.8577 83.8684 43.7254 84.0462 43.6021 84.2341C41.2451 87.8493 42.0413 92.7912 45.3828 95.2703C48.7243 97.7494 53.3416 96.8301 55.6998 93.2148C55.827 93.0295 55.9275 92.8366 56.0318 92.6474C57.9296 93.5546 59.9008 94.302 61.9249 94.8819C61.8893 95.1013 61.8562 95.3232 61.8371 95.5502C61.4657 99.9208 64.465 103.739 68.5366 104.08C72.6082 104.42 76.2104 101.152 76.5818 96.7809C76.6009 96.5539 76.606 96.3308 76.6073 96.1076C78.7007 95.8722 80.7703 95.4621 82.7942 94.8819C82.8654 95.0887 82.9379 95.2942 83.0257 95.4972C84.7403 99.4517 89.1388 101.125 92.8517 99.2348C96.5646 97.3446 98.1826 92.6045 96.4679 88.6488C96.3789 88.442 96.2771 88.2453 96.1741 88.0511C97.8921 86.7185 99.5038 85.2564 100.995 83.678C101.155 83.8205 101.319 83.9605 101.494 84.0903C104.834 86.5694 109.454 85.6502 111.811 82.0337C114.167 78.4172 113.371 73.4779 110.03 70.9975C109.858 70.8714 109.682 70.7592 109.504 70.6495C110.381 68.5883 111.103 66.4662 111.667 64.3004C111.868 64.3395 112.074 64.3723 112.285 64.3899ZM70.4179 81.8622C55.635 80.6277 44.743 66.7631 46.0913 50.8923C47.4396 35.0215 60.5181 23.1594 75.3022 24.3939C90.0864 25.6284 100.978 39.493 99.6301 55.3625C98.2818 71.232 85.2033 83.0967 70.4179 81.8622Z" fill="#77DDFF"/>
<path d="M66.1682 337.877C71.7343 337.932 78.9426 337.037 86.1255 333.241C93.8985 329.136 104.344 320.204 102.407 313.822C101.682 311.439 99.1772 309.23 96.8012 309.208C93.2931 309.177 92.4536 313.938 85.9309 318.62C84.7263 319.485 78.4949 323.958 75.7729 322.025C74.4195 321.063 74.2058 318.711 74.5976 316.972C75.7423 311.887 82.1531 311.66 88.7483 306.632C95.4351 301.533 101.474 292.138 99.1327 285.215C97.787 281.238 93.5869 277.818 90.5685 278.406C89.2787 278.658 88.3909 279.605 83.8359 287.44C80.0989 293.871 79.225 295.762 77.1479 296.219C75.011 296.689 71.8539 295.581 70.8083 293.445C68.0876 287.874 82.6174 281.295 85.2097 266.611C86.371 260.03 85.4501 250.043 79.5837 247.398C75.6177 245.61 69.5873 247.272 67.1425 250.803C64.9382 253.991 67.0153 256.722 64.8886 264.134C64.2411 266.384 62.9107 271.013 60.9773 271.09C58.7068 271.181 56.739 264.954 56.2913 263.439C52.9167 252.043 58.4371 246.826 54.8018 241.12C51.9666 236.667 45.1284 234.372 39.4033 235.986C34.3917 237.398 30.0835 241.844 29.3763 246.786C28.6563 251.812 32.4875 257.22 40.1486 268.037C43.7827 273.167 46.7248 276.676 46.1129 281.403C45.814 283.706 44.5967 286.874 42.8999 287.022C39.1565 287.35 38.6719 272.481 30.1446 269.434C25.7791 267.874 20.0184 269.666 17.2175 273.444C13.7831 278.072 15.162 285.186 18.5887 289.167C23.0609 294.361 28.4147 291.185 37.176 297.122C41.0632 299.753 47.0567 305.148 45.7555 309.053C45.1882 310.753 43.1988 312.291 41.1624 312.339C36.5998 312.446 35.7705 304.975 28.8001 301.104C23.7783 298.315 16.5204 297.924 14.5374 300.697C11.7391 304.606 19.5083 314.752 23.7147 319.301C28.8001 324.787 41.0034 335.443 66.1682 337.877Z" fill="#74FFC8"/>
<g opacity="0.5">
<path d="M64.175 335.345C66.0206 323.09 60.0665 297.289 55.1567 284.905C50.3715 272.845 46.4437 254.073 46.4042 253.885L45.4859 254.073C45.5253 254.262 49.4697 273.114 54.2828 285.246C59.1558 297.529 65.0705 323.097 63.2477 335.201L64.175 335.345Z" fill="white"/>
</g>
<path d="M79.0507 340.633C83.7291 335.275 90.7669 325.483 93.1099 311.757C94.0766 306.1 95.9629 295.05 89.963 284.842C86.9726 279.754 80.3545 272.036 75.2666 273.641C71.9926 274.674 69.5822 279.496 70.1291 283.373C70.6811 287.282 73.9145 287.927 76.8833 294.742C77.9823 297.264 79.2301 300.221 77.9314 301.714C76.8464 302.96 74.174 302.968 72.2597 301.992C68.3051 299.974 70.0452 295.026 65.9367 291C63.0111 288.136 57.8673 286.46 55.406 288.369C53.2703 290.031 53.2258 294.354 54.7077 297.369C57.0825 302.197 62.2034 301.298 65.0107 306.595C66.2559 308.946 66.981 312.396 65.5958 313.608C64.0173 314.995 59.891 313.308 57.3279 311.395C53.9369 308.873 54.0208 306.508 51.6778 306.004C49.069 305.442 45.5469 307.643 44.7825 310.349C43.7114 314.144 48.1112 318.729 51.7287 320.874C56.3612 323.618 60.0805 322.578 62.1589 325.95C62.9221 327.189 63.5454 329.153 62.73 330.238C61.5674 331.787 57.9461 330.92 55.5434 330.345C49.6923 328.943 48.2524 326.667 46.0341 327.513C43.789 328.371 42.3593 331.814 43.0653 334.381C43.4571 335.808 44.8168 338.085 52.3914 340.107C57.6879 341.522 66.6782 342.986 79.0507 340.633Z" fill="#77DDFF"/>
</g>
<defs>
<linearGradient id="paint0_linear_89_368" x1="148.246" y1="168.867" x2="166.658" y2="168.867" gradientUnits="userSpaceOnUse">
<stop stop-color="#311944"/>
<stop offset="1" stop-color="#893976"/>
</linearGradient>
<linearGradient id="paint1_linear_89_368" x1="240.356" y1="152.916" x2="262.242" y2="152.916" gradientUnits="userSpaceOnUse">
<stop stop-color="#444B8C"/>
<stop offset="1" stop-color="#3E4177"/>
</linearGradient>
<linearGradient id="paint2_linear_89_368" x1="240.356" y1="152.916" x2="262.242" y2="152.916" gradientUnits="userSpaceOnUse">
<stop stop-color="#444B8C"/>
<stop offset="1" stop-color="#3E4177"/>
</linearGradient>
<linearGradient id="paint3_linear_89_368" x1="246.433" y1="150.778" x2="290.491" y2="150.778" gradientUnits="userSpaceOnUse">
<stop stop-color="#444B8C"/>
<stop offset="1" stop-color="#3E4177"/>
</linearGradient>
<linearGradient id="paint4_linear_89_368" x1="249.511" y1="149.007" x2="233.552" y2="57.89" gradientUnits="userSpaceOnUse">
<stop stop-color="#AA80F9"/>
<stop offset="1" stop-color="#6165D7"/>
</linearGradient>
<linearGradient id="paint5_linear_89_368" x1="241.746" y1="65.8433" x2="226.161" y2="52.6426" gradientUnits="userSpaceOnUse">
<stop stop-color="#444B8C"/>
<stop offset="1" stop-color="#3E4177"/>
</linearGradient>
<linearGradient id="paint6_linear_89_368" x1="287.402" y1="142.372" x2="271.442" y2="51.2534" gradientUnits="userSpaceOnUse">
<stop stop-color="#AA80F9"/>
<stop offset="1" stop-color="#6165D7"/>
</linearGradient>
<clipPath id="clip0_89_368">
<rect width="353" height="348" fill="white"/>
</clipPath>
</defs>
</svg>
